<svg width="45" height="45" viewBox="0 0 45 45" fill="none" xmlns="http://www.w3.org/2000/svg">
<path d="M14.0625 31.6406C15.2255 31.6406 16.1719 30.6942 16.1719 29.5312C16.1719 28.3683 15.2255 27.4219 14.0625 27.4219C12.8995 27.4219 11.9531 28.3683 11.9531 29.5312C11.9531 30.6942 12.8995 31.6406 14.0625 31.6406ZM14.0625 28.8281C14.4506 28.8281 14.7656 29.1438 14.7656 29.5312C14.7656 29.9187 14.4506 30.2344 14.0625 30.2344C13.6744 30.2344 13.3594 29.9187 13.3594 29.5312C13.3594 29.1438 13.6744 28.8281 14.0625 28.8281Z" fill="#FF0000"/>
<path d="M44.2969 17.6632C44.2969 16.4531 43.3125 15.4687 42.1024 15.4687C41.5245 15.4687 40.9591 15.7029 40.5506 16.1114L33.4589 23.2031H30.2344V20.2612C31.0507 19.9701 31.6406 19.1967 31.6406 18.2812C31.6406 17.1182 30.6942 16.1718 29.5312 16.1718C29.2064 16.1718 28.9027 16.2513 28.6277 16.3835L27.2109 14.9667C27.3424 14.6911 27.4219 14.3873 27.4219 14.0625C27.4219 13.147 26.832 12.3736 26.0156 12.0825V10.2782L29.6972 8.43746H38.6719V7.03121H29.3653L25.3125 9.05762L21.7969 7.2998V3.08105L16.875 0.620117L11.9531 3.08105V7.2998L8.4375 9.05762L4.89586 7.28715C4.90641 7.20207 4.92188 7.1184 4.92188 7.03121C4.92188 5.86824 3.97547 4.92184 2.8125 4.92184C1.64953 4.92184 0.703125 5.86824 0.703125 7.03121C0.703125 8.19418 1.64953 9.14059 2.8125 9.14059C3.37992 9.14059 3.8932 8.91277 4.27289 8.54715L7.73438 10.2782V14.497L11.9531 16.6064V18.9843H9.14062C8.36508 18.9843 7.73438 19.615 7.73438 20.3906V21.7968C7.73438 22.5724 8.36508 23.2031 9.14062 23.2031V31.2511C9.14062 31.3783 9.10547 31.5035 9.04008 31.6132L5.44922 37.5989C5.10469 38.1733 4.92188 38.8314 4.92188 39.5015C4.92188 39.9733 5.01117 40.436 5.18625 40.8754L6.02437 42.9714C6.34711 43.7765 7.11562 44.2968 7.98328 44.2968H20.141C21.0087 44.2968 21.7772 43.7765 22.0999 42.9707L22.2778 42.525C22.8867 43.5782 24.0117 44.2968 25.3125 44.2968H35.1562C37.0948 44.2968 38.6719 42.7197 38.6719 40.7812V27.4218C39.4474 27.4218 40.0781 26.7911 40.0781 26.0156V24.6093C40.0781 24.1164 39.8222 23.6833 39.4369 23.4323L43.6542 19.215C44.0691 18.8008 44.2969 18.2496 44.2969 17.6632ZM29.5312 17.5781C29.9194 17.5781 30.2344 17.8938 30.2344 18.2812C30.2344 18.6686 29.9194 18.9843 29.5312 18.9843C29.1431 18.9843 28.8281 18.6686 28.8281 18.2812C28.8281 17.8938 29.1431 17.5781 29.5312 17.5781ZM25.3125 13.3593C25.7006 13.3593 26.0156 13.675 26.0156 14.0625C26.0156 14.4499 25.7006 14.7656 25.3125 14.7656C24.9244 14.7656 24.6094 14.4499 24.6094 14.0625C24.6094 13.675 24.9244 13.3593 25.3125 13.3593ZM24.6094 12.0825C23.793 12.3736 23.2031 13.147 23.2031 14.0625C23.2031 14.1496 23.2186 14.2333 23.2291 14.3177L21.0938 15.3857L17.5781 13.6279V10.2782L21.0938 8.52043L24.6094 10.2782V12.0825ZM16.875 2.1923L20.3906 3.95012V7.2998L16.875 9.05762L13.3594 7.2998V3.95012L16.875 2.1923ZM2.8125 7.73434C2.42438 7.73434 2.10938 7.41863 2.10938 7.03121C2.10938 6.64379 2.42438 6.32809 2.8125 6.32809C3.20062 6.32809 3.51562 6.64379 3.51562 7.03121C3.51562 7.41863 3.20062 7.73434 2.8125 7.73434ZM9.14062 10.2782L12.6562 8.52043L16.1719 10.2782V13.6279L12.6562 15.3857L9.14062 13.6279V10.2782ZM13.3594 16.6064L16.875 14.8486L21.0938 16.9579L23.8521 15.5784C24.2318 15.944 24.7451 16.1718 25.3125 16.1718C25.6373 16.1718 25.9411 16.0924 26.216 15.9602L27.6328 17.377C27.5013 17.6526 27.4219 17.9564 27.4219 18.2812C27.4219 19.1967 28.0118 19.9701 28.8281 20.2612V23.2031H21.7969C21.0213 23.2031 20.3906 23.8338 20.3906 24.6093V26.0156C20.3906 26.7911 21.0213 27.4218 21.7969 27.4218V36.1336L19.0849 31.6132C19.0195 31.5035 18.9844 31.3783 18.9844 31.2511V23.2031C19.7599 23.2031 20.3906 22.5724 20.3906 21.7968V20.3906C20.3906 19.615 19.7599 18.9843 18.9844 18.9843H13.3594V16.6064ZM19.9941 35.8614C19.1355 35.8671 18.2981 36.0358 17.5141 36.3382L17.1084 36.0337C17.5191 35.23 18.2869 34.6612 19.1784 34.5016L19.9941 35.8614ZM16.1297 37.0575C15.7514 37.3106 15.3977 37.601 15.0722 37.9272L14.3606 37.724C13.0873 37.3598 11.7541 37.2304 10.4323 37.3043L10.5026 37.2157C11.1923 36.3529 12.221 35.8586 13.3263 35.8586C14.1033 35.8586 14.8746 36.1153 15.4962 36.5814L16.1297 37.0575ZM20.0391 37.2656H20.8357L21.4425 38.2767C19.8998 38.7576 18.2384 38.7935 16.6788 38.38C17.6414 37.6636 18.8177 37.2656 20.0391 37.2656ZM9.14062 20.3906H18.9844L18.9851 21.7968H9.14062V20.3906ZM10.2459 32.336C10.4428 32.0083 10.5469 31.6329 10.5469 31.2511V23.2031H17.5781V31.2511C17.5781 31.6329 17.6815 32.0083 17.8791 32.3367L18.4261 33.2486C17.3862 33.5693 16.5052 34.2731 15.9616 35.2202C15.1713 34.7315 14.2566 34.4531 13.3256 34.4531C11.7914 34.4531 10.362 35.14 9.40359 36.3382L8.40023 37.5918C7.86094 37.7156 7.32727 37.8654 6.81047 38.0629L10.2459 32.336ZM20.7942 42.4483C20.6873 42.7169 20.4307 42.8906 20.1417 42.8906H7.98328C7.6943 42.8906 7.43766 42.7169 7.33008 42.4483L6.49195 40.353C6.41953 40.173 6.38016 39.986 6.35555 39.7961L6.38297 39.7821C8.70961 38.6191 11.4715 38.3625 13.9732 39.0768L16.1311 39.6935C17.0262 39.9487 17.9508 40.0781 18.881 40.0781C19.8668 40.0781 20.8406 39.9262 21.7842 39.6407C21.7695 39.8847 21.7252 40.1245 21.633 40.353L20.7942 42.4483ZM35.1562 42.8906H25.3125C24.1495 42.8906 23.2031 41.9442 23.2031 40.7812V38.7815C23.5062 38.8814 23.7452 39.0403 24.0216 39.2407C24.5348 39.614 25.174 40.0781 26.3693 40.0781C27.5653 40.0781 28.2037 39.6133 28.7177 39.2407C29.172 38.9102 29.4996 38.6718 30.2386 38.6718C30.9769 38.6718 31.3052 38.9102 31.7587 39.2407C32.2713 39.6133 32.9105 40.0781 34.1058 40.0781C35.3004 40.0781 35.9381 39.6133 36.4514 39.2407C36.7263 39.0403 36.964 38.8821 37.2656 38.7822V40.7812C37.2656 41.9442 36.3192 42.8906 35.1562 42.8906ZM26.0156 37.9687C26.0156 37.1932 26.6463 36.5625 27.4219 36.5625C28.0568 36.5625 28.5884 36.9879 28.7627 37.5672C28.4126 37.7268 28.1362 37.9244 27.8909 38.103C27.4366 38.4335 27.1083 38.6718 26.3693 38.6718C26.3039 38.6718 26.2568 38.6606 26.197 38.6571C26.0796 38.4482 26.0156 38.2113 26.0156 37.9687ZM37.2656 28.8281H34.4531V30.2343H37.2656V31.6406H34.4531V33.0468H37.2656V34.4531H34.4531V35.8593H37.2656V37.3296C36.5055 37.4674 36.0239 37.8119 35.6231 38.1037C35.1703 38.4335 34.8427 38.6718 34.1058 38.6718C33.3675 38.6718 33.0391 38.4335 32.5856 38.103C32.0723 37.7304 31.4339 37.2656 30.2386 37.2656C30.2027 37.2656 30.1711 37.2698 30.1359 37.2705C29.8237 36.0583 28.7304 35.1562 27.4219 35.1562C25.882 35.1562 24.6312 36.4007 24.6129 37.9357C24.2571 37.6889 23.8226 37.4414 23.2031 37.3289V27.4218H37.2656V28.8281ZM21.7969 26.0156V24.6093H38.6719L38.6726 26.0156H21.7969ZM42.66 18.2207L37.6777 23.2031H35.4473L41.5448 17.1056C41.6918 16.9593 41.895 16.875 42.1024 16.875C42.537 16.875 42.8906 17.2286 42.8906 17.6632C42.8906 17.8741 42.8091 18.0717 42.66 18.2207Z" fill="#FF0000"/>
<path d="M30.2344 9.84375H38.6719V11.25H30.2344V9.84375Z" fill="#FF0000"/>
<path d="M30.2344 12.6562H33.0469V14.0625H30.2344V12.6562Z" fill="#FF0000"/>
<path d="M34.4531 12.6562H38.6719V14.0625H34.4531V12.6562Z" fill="#FF0000"/>
</svg>
