<svg width="45" height="45" viewBox="0 0 45 45" fill="none" xmlns="http://www.w3.org/2000/svg">
<path d="M21.0938 35.8594H22.5V37.2656H21.0938V35.8594Z" fill="#FF0000"/>
<path d="M5.625 13.3594V23.2031H2.10937C1.98211 23.2031 1.85723 23.2377 1.74805 23.3031C1.63887 23.3685 1.54949 23.4623 1.48944 23.5745C1.42939 23.6867 1.40092 23.8131 1.40707 23.9402C1.41322 24.0673 1.45375 24.1904 1.52435 24.2963L3.71063 27.5757C3.9671 27.9613 4.31501 28.2775 4.72332 28.496C5.13164 28.7145 5.58769 28.8286 6.0508 28.8281H14.5312L15.5755 29.6113C16.5211 30.3203 17.1508 31.372 17.3293 32.5404C17.5077 33.7087 17.2206 34.9004 16.5297 35.8594H16.1719C15.6126 35.86 15.0765 36.0825 14.681 36.4779C14.2856 36.8733 14.0631 37.4095 14.0625 37.9687V38.6719H13.3594C12.6137 38.6727 11.8988 38.9693 11.3716 39.4966C10.8443 40.0238 10.5477 40.7387 10.5469 41.4844V42.8906C10.5469 43.0771 10.621 43.2559 10.7528 43.3878C10.8847 43.5197 11.0635 43.5937 11.25 43.5937H33.75C33.9365 43.5937 34.1153 43.5197 34.2472 43.3878C34.379 43.2559 34.4531 43.0771 34.4531 42.8906V41.4844C34.4523 40.7387 34.1557 40.0238 33.6284 39.4966C33.1012 38.9693 32.3863 38.6727 31.6406 38.6719H30.9375V37.9687C30.9369 37.4095 30.7144 36.8733 30.319 36.4779C29.9235 36.0825 29.3874 35.86 28.8281 35.8594H28.4703C27.7794 34.9004 27.4923 33.7087 27.6707 32.5404C27.8492 31.372 28.4789 30.3203 29.4245 29.6113L30.4688 28.8281H38.9492C39.4123 28.8286 39.8684 28.7145 40.2767 28.496C40.685 28.2775 41.0329 27.9613 41.2894 27.5757L43.4756 24.2963C43.5462 24.1904 43.5868 24.0673 43.5929 23.9402C43.5991 23.8131 43.5706 23.6867 43.5106 23.5745C43.4505 23.4623 43.3611 23.3685 43.2519 23.3031C43.1428 23.2377 43.0179 23.2031 42.8906 23.2031H39.375V13.3594C39.3741 12.7046 39.145 12.0705 38.7273 11.5663C38.3095 11.062 37.7291 10.7191 37.0858 10.5965L36.1157 7.68605C36.2066 7.65044 36.2892 7.59626 36.3581 7.52696C36.427 7.45766 36.4806 7.37477 36.5157 7.28357C36.5508 7.19237 36.5664 7.09487 36.5617 6.99728C36.557 6.89968 36.532 6.80415 36.4883 6.71676L34.3789 2.49801C34.3205 2.38123 34.2307 2.28301 34.1196 2.21437C34.0086 2.14573 33.8806 2.10937 33.75 2.10937C33.6194 2.10937 33.4914 2.14573 33.3804 2.21437C33.2693 2.28301 33.1795 2.38123 33.1211 2.49801L31.0117 6.71676C30.968 6.80415 30.943 6.89968 30.9383 6.99728C30.9336 7.09487 30.9492 7.19237 30.9843 7.28357C31.0193 7.37477 31.073 7.45766 31.1419 7.52696C31.2108 7.59626 31.2934 7.65044 31.3843 7.68605L30.4307 10.5469H28.6395C28.7808 10.2182 28.8442 9.86125 28.8247 9.50401C28.8052 9.14676 28.7034 8.79885 28.5272 8.48747L30.6562 6.89066L29.8125 5.76559L27.7509 7.31185L27.7213 7.26745C27.5667 7.03591 27.3679 6.83724 27.1362 6.6829C27.2899 6.41894 27.3843 6.12467 27.4127 5.82055C27.4412 5.51642 27.403 5.20976 27.3009 4.92187H28.125V3.51562H27.2255L26.905 2.55397C26.7936 2.21974 26.5798 1.92904 26.2939 1.72305C26.0081 1.51706 25.6647 1.40623 25.3124 1.40625C24.9601 1.40627 24.6167 1.51714 24.3309 1.72316C24.0451 1.92918 23.8313 2.2199 23.7199 2.55415L23.3994 3.51562H22.5V4.92187H23.3241C23.222 5.20976 23.1838 5.51642 23.2123 5.82055C23.2407 6.12467 23.3351 6.41894 23.4888 6.6829C23.2571 6.83724 23.0583 7.03591 22.9037 7.26745L22.8741 7.31185L20.8125 5.76559L19.9688 6.89066L22.0979 8.48747C21.9216 8.79885 21.8198 9.14675 21.8003 9.504C21.7808 9.86125 21.8442 10.2182 21.9855 10.5469H19.4189L18.0127 7.73437H18.2812C18.4085 7.73438 18.5334 7.69984 18.6426 7.63444C18.7517 7.56904 18.8411 7.47524 18.9012 7.36303C18.9612 7.25082 18.9897 7.12442 18.9836 6.9973C18.9774 6.87019 18.9369 6.74712 18.8663 6.64123L16.0538 2.42248C15.9896 2.32617 15.9026 2.24719 15.8005 2.19257C15.6985 2.13795 15.5845 2.10937 15.4687 2.10937C15.353 2.10937 15.239 2.13795 15.137 2.19257C15.0349 2.24719 14.9479 2.32617 14.8837 2.42248L13.7109 4.18169L12.5381 2.42248C12.4739 2.32617 12.387 2.24719 12.2849 2.19257C12.1828 2.13795 12.0689 2.10937 11.9531 2.10937C11.8374 2.10937 11.7234 2.13795 11.6214 2.19257C11.5193 2.24719 11.4323 2.32617 11.3681 2.42248L8.5556 6.64123C8.485 6.74712 8.44447 6.87019 8.43832 6.9973C8.43217 7.12442 8.46064 7.25082 8.52069 7.36303C8.58074 7.47524 8.67012 7.56904 8.7793 7.63444C8.88848 7.69984 9.01336 7.73438 9.14062 7.73437H9.40919L7.98444 10.5839C7.32618 10.6922 6.72772 11.0306 6.29564 11.5389C5.86356 12.0471 5.62591 12.6923 5.625 13.3594ZM33.0469 41.4844V42.1875H11.9531V41.4844C11.9536 41.1115 12.1018 40.7541 12.3655 40.4905C12.6291 40.2268 12.9865 40.0785 13.3594 40.0781H31.6406C32.0135 40.0785 32.3709 40.2268 32.6345 40.4905C32.8982 40.7541 33.0464 41.1115 33.0469 41.4844ZM40.1193 26.7957C39.9911 26.9885 39.8171 27.1465 39.6129 27.2558C39.4088 27.3651 39.1808 27.4221 38.9492 27.4219H20.3906V28.8281H28.1666C27.2074 29.6939 26.5577 30.8497 26.3165 32.1191C26.0753 33.3886 26.2559 34.7021 26.8308 35.8594H23.9062V37.2656H28.8281C29.0145 37.2658 29.1933 37.34 29.3251 37.4718C29.4569 37.6036 29.531 37.7823 29.5312 37.9687V38.6719H15.4687V37.9687C15.469 37.7823 15.5431 37.6036 15.6749 37.4718C15.8067 37.34 15.9855 37.2658 16.1719 37.2656H18.9844V35.8594H18.1692C18.7441 34.7021 18.9247 33.3886 18.6835 32.1191C18.4423 30.8497 17.7926 29.6939 16.8334 28.8281H18.9844V27.4219H6.0508C5.81924 27.4221 5.59122 27.3651 5.38705 27.2558C5.18289 27.1465 5.00893 26.9885 4.88067 26.7957L3.42318 24.6094H41.5768L40.1193 26.7957ZM7.03125 23.2031V15.9033L9.00175 14.9181L11.4132 17.3296C12.0226 17.9389 12.8491 18.2812 13.7109 18.2812C14.5727 18.2812 15.3992 17.9389 16.0086 17.3296L18.3709 14.9672L19.1231 15.4687C19.8108 15.9272 20.6188 16.1719 21.4453 16.1719C22.2718 16.1719 23.0798 15.9272 23.7675 15.4687L24.3367 15.0894L25.461 17.3379C25.7083 17.8326 26.0886 18.2487 26.5591 18.5395C27.0296 18.8303 27.5718 18.9844 28.125 18.9844C28.6781 18.9844 29.2203 18.8304 29.6908 18.5396C30.1614 18.2488 30.5416 17.8327 30.789 17.338L31.8332 15.2494L32.4263 15.8426C32.7529 16.171 33.1413 16.4312 33.5692 16.6085C33.997 16.7857 34.4558 16.8763 34.9188 16.875C35.6812 16.8734 36.4228 16.6262 37.0337 16.1701L37.9687 15.4688V23.2031H7.03125ZM37.9687 13.3594V13.7109L36.19 15.045C35.8228 15.3192 35.377 15.4678 34.9188 15.4687C34.6404 15.4695 34.3647 15.415 34.1076 15.3085C33.8505 15.202 33.617 15.0455 33.4207 14.8482L32.1378 13.5653C32.0591 13.4865 31.9627 13.4276 31.8567 13.3934C31.7506 13.3592 31.638 13.3506 31.528 13.3685C31.4181 13.3863 31.3139 13.43 31.2241 13.496C31.1344 13.562 31.0616 13.6484 31.0117 13.748L29.5312 16.7091C29.4007 16.9702 29.1999 17.1899 28.9515 17.3433C28.7032 17.4968 28.417 17.5781 28.125 17.5781C27.833 17.5781 27.5468 17.4968 27.2984 17.3433C27.05 17.1898 26.8493 16.9702 26.7187 16.709L25.2383 13.748C25.1937 13.6588 25.1306 13.5802 25.0533 13.5172C24.976 13.4543 24.8862 13.4085 24.7898 13.3829C24.6935 13.3573 24.5928 13.3525 24.4944 13.3688C24.3961 13.3851 24.3023 13.4222 24.2194 13.4775L22.9875 14.2987C22.5308 14.6032 21.9942 14.7656 21.4453 14.7656C20.8964 14.7656 20.3598 14.6032 19.9031 14.2987L18.6713 13.4775C18.536 13.3873 18.3737 13.3468 18.212 13.3628C18.0502 13.3788 17.899 13.4504 17.784 13.5653L15.0142 16.3351C14.8431 16.5063 14.6399 16.6421 14.4163 16.7347C14.1926 16.8273 13.953 16.875 13.7109 16.875C13.4689 16.875 13.2292 16.8273 13.0056 16.7347C12.782 16.6421 12.5788 16.5063 12.4077 16.3351L9.63784 13.5653C9.53348 13.4609 9.39892 13.3921 9.25324 13.3684C9.10756 13.3448 8.95814 13.3676 8.82614 13.4336L7.03125 14.3311V13.3594C7.03167 12.9865 7.17997 12.6291 7.4436 12.3655C7.70723 12.1018 8.06467 11.9535 8.4375 11.9531H36.5625C36.9353 11.9535 37.2928 12.1018 37.5564 12.3655C37.82 12.6291 37.9683 12.9865 37.9687 13.3594ZM32.9142 6.62012C32.8624 6.54826 32.7975 6.48684 32.7229 6.4391L33.75 4.38474L34.7771 6.4391C34.6453 6.52346 34.5454 6.64937 34.4933 6.79691C34.4411 6.94445 34.4397 7.10518 34.4892 7.25363L35.5869 10.5469H31.913L33.0108 7.25363C33.046 7.14793 33.0556 7.03537 33.0388 6.92523C33.022 6.81509 32.9793 6.71052 32.9142 6.62012ZM25.054 2.99892C25.072 2.94466 25.1067 2.89745 25.1531 2.86399C25.1995 2.83053 25.2552 2.81251 25.3124 2.8125C25.3696 2.81248 25.4253 2.83045 25.4717 2.86388C25.5181 2.89731 25.5528 2.94449 25.5709 2.99875L25.7432 3.51562H24.8818L25.054 2.99892ZM26.0156 5.625C26.0156 5.76406 25.9744 5.9 25.8971 6.01563C25.8199 6.13126 25.7101 6.22138 25.5816 6.2746C25.4531 6.32782 25.3117 6.34174 25.1753 6.31461C25.0389 6.28748 24.9136 6.22052 24.8153 6.12218C24.717 6.02385 24.65 5.89856 24.6229 5.76217C24.5958 5.62578 24.6097 5.4844 24.6629 5.35592C24.7161 5.22744 24.8062 5.11763 24.9219 5.04037C25.0375 4.96311 25.1734 4.92187 25.3125 4.92187C25.4989 4.92209 25.6776 4.99623 25.8094 5.12805C25.9413 5.25986 26.0154 5.43858 26.0156 5.625ZM23.2031 9.63089C23.2029 9.45002 23.2564 9.27316 23.3569 9.12277L24.0738 8.04748C24.1379 7.95109 24.2249 7.87205 24.327 7.81742C24.429 7.76279 24.543 7.73426 24.6588 7.73437H25.9662C26.082 7.73426 26.196 7.76279 26.298 7.81742C26.4001 7.87205 26.4871 7.95109 26.5512 8.04748L27.2682 9.12286C27.3601 9.26082 27.4128 9.42114 27.4208 9.58673C27.4288 9.75232 27.3917 9.91697 27.3134 10.0631C27.2352 10.2093 27.1188 10.3315 26.9766 10.4167C26.8343 10.5019 26.6717 10.5469 26.5059 10.5469H24.1191C23.8763 10.5466 23.6434 10.45 23.4717 10.2783C23.3 10.1066 23.2034 9.87374 23.2031 9.63089ZM15.4687 4.08005L16.9674 6.32812H16.875C16.7551 6.32811 16.6373 6.35874 16.5326 6.4171C16.4279 6.47547 16.3398 6.55963 16.2768 6.66159C16.2138 6.76355 16.1779 6.87993 16.1725 6.99967C16.1672 7.11941 16.1925 7.23853 16.2461 7.34573L17.8467 10.5469H13.0908L14.6914 7.34573C14.745 7.23853 14.7703 7.11941 14.7649 6.99967C14.7596 6.87993 14.7237 6.76355 14.6607 6.66159C14.5976 6.55963 14.5096 6.47547 14.4049 6.4171C14.3002 6.35874 14.1824 6.32811 14.0625 6.32812H13.9701L15.4687 4.08005ZM11.145 6.66158C11.082 6.55963 10.994 6.47548 10.8893 6.41712C10.7846 6.35876 10.6667 6.32813 10.5469 6.32812H10.4544L11.9531 4.08005L12.8659 5.44924L12.0712 6.64123C12.0006 6.74712 11.9601 6.87019 11.9539 6.9973C11.9478 7.12442 11.9763 7.25082 12.0363 7.36303C12.0964 7.47524 12.1857 7.56904 12.2949 7.63444C12.4041 7.69984 12.529 7.73438 12.6562 7.73437H12.9248L11.5186 10.5469H9.57518L11.1758 7.34573C11.2294 7.23852 11.2547 7.1194 11.2493 6.99966C11.2439 6.87992 11.208 6.76355 11.145 6.66158Z" fill="#FF0000"/>
<path d="M8.75244 20.2788L9.53291 19.1088L11.6421 20.5158L10.8617 21.6858L8.75244 20.2788Z" fill="#FF0000"/>
<path d="M13.1362 20.437L15.2463 19.7344L15.6907 21.069L13.5806 21.7716L13.1362 20.437Z" fill="#FF0000"/>
<path d="M18.319 19.9204L19.6536 19.476L20.3562 21.5861L19.0216 22.0305L18.319 19.9204Z" fill="#FF0000"/>
<path d="M17.9552 16.9473L19.3608 16.2445L19.9894 17.5016L18.5838 18.2045L17.9552 16.9473Z" fill="#FF0000"/>
<path d="M21.4126 19.5757L22.1931 18.4057L24.3023 19.8127L23.5218 20.9827L21.4126 19.5757Z" fill="#FF0000"/>
<path d="M25.5135 21.3003L26.9196 19.8943L27.9138 20.8886L26.5078 22.2946L25.5135 21.3003Z" fill="#FF0000"/>
<path d="M31.311 21.0288L31.9396 19.7716L33.3452 20.4744L32.7166 21.7316L31.311 21.0288Z" fill="#FF0000"/>
<path d="M33.2472 18.7803L34.2415 17.786L35.6475 19.192L34.6532 20.1863L33.2472 18.7803Z" fill="#FF0000"/>
</svg>
