<svg width="45" height="45" viewBox="0 0 45 45" fill="none" xmlns="http://www.w3.org/2000/svg">
<path d="M11.6718 0.025723C11.5769 0.0624876 11.4996 0.154399 11.4785 0.257341C11.4644 0.319841 11.4046 0.397046 11.3238 0.452193C11.2499 0.503664 11.1656 0.602929 11.1339 0.672782C11.0531 0.852929 11.0566 1.13234 11.1445 1.26837C11.264 1.45587 11.2781 1.48528 11.3203 1.60661C11.373 1.75366 11.5066 1.84558 11.6718 1.85293C11.8371 1.85661 11.9777 1.75734 12.048 1.58822C12.0796 1.51469 12.1429 1.37131 12.1921 1.27205C12.2976 1.05513 12.2871 0.790429 12.1675 0.621311C12.1113 0.540429 12.0937 0.481605 12.1113 0.415429C12.171 0.165429 11.9074 -0.0661888 11.6718 0.025723Z" fill="#FF0000"/>
<path d="M7.50582 0.349348C7.29489 0.569936 7.52692 0.93023 7.80113 0.808907C7.98746 0.731701 8.02965 0.507436 7.89254 0.353024C7.78004 0.228024 7.62184 0.224348 7.50582 0.349348Z" fill="#FF0000"/>
<path d="M35.7293 0.79772C35.673 0.819779 35.6695 0.926397 35.7258 0.98522C35.782 1.04404 35.8066 1.04037 35.8735 0.970514C35.9156 0.926397 35.9192 0.896985 35.8945 0.841838C35.8559 0.771985 35.8137 0.760955 35.7293 0.79772Z" fill="#FF0000"/>
<path d="M34.1297 0.926456C34.0981 0.952191 34.0629 1.01101 34.0488 1.05513C34.0172 1.17278 34.2598 1.44116 34.3934 1.44116C34.5727 1.44116 34.6746 1.26837 34.6078 1.08454C34.5832 1.02572 34.316 0.882338 34.2281 0.882338C34.2035 0.882338 34.1613 0.904397 34.1297 0.926456Z" fill="#FF0000"/>
<path d="M37.2023 1.20213C37.2093 1.2389 37.2375 1.26831 37.2656 1.26831C37.2937 1.26831 37.3219 1.2389 37.3289 1.20213C37.3359 1.15802 37.3184 1.13963 37.2656 1.13963C37.2128 1.13963 37.1952 1.15802 37.2023 1.20213Z" fill="#FF0000"/>
<path d="M9.77344 1.25351C9.77344 1.26086 9.91406 1.7388 10.0863 2.31601C10.2586 2.89322 10.3957 3.36748 10.3922 3.37115C10.3922 3.37483 10.3043 3.35277 10.2023 3.32704C9.71719 3.19468 9.27774 3.54763 9.27774 4.06233C9.27774 4.69468 9.93867 5.0513 10.4379 4.69101C10.5117 4.63586 10.5926 4.5513 10.6172 4.50351C10.6418 4.45204 10.6734 4.41159 10.6875 4.41159C10.7051 4.41159 10.8984 5.02557 10.8984 5.08807C10.8984 5.09542 10.8563 5.11013 10.8035 5.11748C10.7332 5.12483 10.7016 5.15057 10.6945 5.21307C10.6734 5.37483 10.807 5.45939 10.909 5.34909C10.9582 5.3013 10.9688 5.31601 11.018 5.46674C11.0496 5.56233 11.0742 5.64322 11.0742 5.64689C11.0742 5.65057 11.0145 5.62115 10.9441 5.58439C10.7121 5.46307 10.4098 5.50351 10.2305 5.67998L10.1426 5.76822L10.1531 5.59174C10.1637 5.43733 10.1531 5.39689 10.0652 5.29763C9.92813 5.13586 9.73125 5.10645 9.5625 5.22777C9.16172 5.51086 9.5168 6.15057 9.95274 5.9263L10.0793 5.86013L10.0301 5.9888C9.9211 6.26086 10.0477 6.62115 10.3148 6.78292C10.6172 6.97042 11.0461 6.8638 11.1973 6.56601C11.2359 6.49248 11.2746 6.43365 11.2852 6.43365C11.3133 6.43365 11.7422 7.91527 11.7422 8.01822C11.7422 8.06601 11.7633 8.14322 11.7914 8.18365C11.8828 8.31968 12.5191 10.5329 12.4699 10.5476C12.4488 10.555 12.3785 10.6175 12.3188 10.6837C12.0059 11.0256 12.2344 11.5807 12.6844 11.5807H12.8215L12.927 11.9373C14.066 15.7719 14.0766 15.805 14.0273 15.9557C13.9746 16.1175 14.0027 16.2719 14.1012 16.3822L14.1715 16.4594L13.5105 16.952L12.8496 17.4447L12.8039 17.7204C12.7477 18.0623 12.7125 19.6359 12.7512 19.9741L12.7793 20.2241L13.4297 19.7462C13.7883 19.4851 14.1223 19.2351 14.1785 19.191C14.2629 19.1212 14.2875 19.1175 14.393 19.1542C14.4598 19.1763 14.5512 19.1837 14.6004 19.1726C14.6496 19.1579 14.7199 19.1653 14.7551 19.1837C14.8465 19.2351 14.9414 19.1726 14.9414 19.0623C14.9414 19.0145 14.9273 18.9631 14.9063 18.952C14.8887 18.941 14.8711 18.8748 14.8711 18.805C14.8711 18.6873 14.8957 18.6616 15.423 18.2756L15.975 17.8675L16.0172 17.9704C16.0383 18.0256 16.084 18.1028 16.1191 18.1395C16.1648 18.1837 16.1719 18.2131 16.1438 18.2314C15.8168 18.441 15.0504 19.0403 15.0469 19.0844C15.0469 19.1138 15.0855 19.2572 15.1313 19.4006C15.184 19.566 15.2051 19.6763 15.184 19.7094C15.1664 19.7388 15.1523 19.8234 15.1523 19.9006C15.1523 20.0145 15.177 20.0697 15.2754 20.1726C15.3879 20.2903 15.4371 20.43 16.0102 22.3859C16.4039 23.7167 16.6184 24.4998 16.6043 24.5513C16.5902 24.6064 16.6078 24.6616 16.657 24.7167C16.7027 24.7682 16.8715 25.2866 17.1246 26.1432L17.5184 27.4888L17.8031 27.6395C17.9613 27.7204 18.1582 27.816 18.2461 27.8528L18.4008 27.9189L18.2953 27.952C18.2391 27.9704 18.1406 28.0292 18.0738 28.0807L17.9543 28.1726L17.5184 27.941C16.8117 27.5697 16.0348 27.0035 15.3914 26.3969L15.1207 26.1395H14.3297H13.5352V26.0145C13.5352 25.9447 13.5211 25.8748 13.5 25.8638C13.4262 25.816 13.4719 25.7903 13.6512 25.7792C13.7496 25.7756 14.4563 25.7719 15.2156 25.7756C16.1543 25.7792 16.5938 25.7682 16.5938 25.7425C16.5938 25.6726 15.9574 23.5587 15.9223 23.5145C15.9047 23.4925 15.8555 23.4189 15.8098 23.3491C15.6762 23.1322 15.5602 23.0697 15.3141 23.0697C15.1277 23.0697 15.075 23.0844 14.9625 23.1726C14.8922 23.2314 14.8043 23.3344 14.7762 23.4042C14.7094 23.5476 14.7129 23.5476 13.9641 23.5035L13.5352 23.4814V23.3748C13.5352 23.2498 13.398 23.0881 13.2926 23.0881C13.1273 23.0881 13.0676 22.9998 12.9234 22.5513C12.8672 22.3712 12.8672 22.3601 12.9375 22.202C13.0254 21.9962 13.0289 21.6873 12.941 21.4888C12.8813 21.3528 12.6492 21.0954 12.5543 21.0623C12.4629 21.0292 12.3398 19.9226 12.3398 19.0954C12.3398 18.5697 12.3469 18.5182 12.4137 18.4189C12.4875 18.316 12.4875 18.3087 12.4313 18.2167C12.375 18.1285 12.375 18.0954 12.4277 17.7094C12.5191 17.0623 12.6176 16.6285 12.818 15.9814L12.9445 15.5881H13.0641C13.3277 15.5881 13.5352 15.4189 13.6055 15.1506C13.6582 14.9484 13.5914 14.7535 13.4121 14.577C13.2645 14.43 13.2609 14.4189 12.9023 13.1984C12.7055 12.5219 12.5297 11.9447 12.5156 11.9153C12.4945 11.8785 12.4699 11.8932 12.4102 11.9778L12.3293 12.0917L12.2238 12.0145C12.0867 11.9116 11.8301 11.8859 11.6578 11.9631C11.584 11.9962 11.4926 12.0219 11.4574 12.0219C11.4188 12.0219 11.3906 12.0439 11.3906 12.0734C11.3906 12.1028 11.359 12.1947 11.3203 12.2829C11.2816 12.3712 11.25 12.4998 11.25 12.5697C11.25 12.7535 11.3801 13.0072 11.5277 13.1064L11.6543 13.1947L11.373 13.7976C10.6418 15.3491 10.2656 16.9557 10.2094 18.7314C10.1813 19.5513 10.2656 20.7645 10.3887 21.316C10.4063 21.3969 10.4063 21.3969 10.3043 21.3417C10.2445 21.3123 10.1602 21.2866 10.1109 21.2866C10.0617 21.2866 10.016 21.2719 10.002 21.2535C9.99141 21.2351 9.95977 21.0513 9.93164 20.8454L9.88242 20.4704L9.97031 20.3307C10.1953 19.9778 9.97383 19.5219 9.58008 19.5219C9.30235 19.5219 9.09141 19.7425 9.09141 20.0329C9.09141 20.1984 9.08438 20.2131 8.92617 20.327L8.76094 20.4447L8.64492 20.3712C8.56758 20.3234 8.46563 20.2939 8.36016 20.2939C8.26524 20.2939 8.19141 20.2792 8.19141 20.2645C8.19141 20.1947 8.02617 20.1506 7.9418 20.1984C7.87149 20.2351 7.85742 20.2719 7.85391 20.4042C7.85391 20.4962 7.83281 20.6064 7.80821 20.6542C7.7625 20.7425 7.74844 20.9704 7.78008 21.0881C7.79766 21.1469 7.49883 21.3822 5.97305 22.4998C4.71094 23.4263 4.12031 23.8381 4.06758 23.8307C3.22031 23.7278 3.14297 23.7351 2.93906 23.9704C2.75977 24.18 2.73867 24.4042 2.86524 24.7131C2.88281 24.7645 2.87227 24.7792 2.81953 24.7792C2.73867 24.7792 2.56641 24.9116 2.56641 24.9741C2.56641 25.0513 2.34492 25.1763 2.26758 25.1432C2.04258 25.0513 1.74727 25.1726 1.62071 25.4042C1.42383 25.7719 1.66992 26.2204 2.07071 26.2204C2.36953 26.2204 2.56641 26.0366 2.59453 25.7278L2.61211 25.5476L2.8793 25.566C3.02696 25.577 4.64063 25.6064 6.46875 25.6285C8.29688 25.6542 9.79805 25.6763 9.80508 25.6873C9.81563 25.6947 9.80156 25.7204 9.78047 25.7425C9.65742 25.8712 9.82266 26.1542 10.016 26.1469C10.2129 26.1432 10.35 25.9337 10.2656 25.7719C10.227 25.6984 10.241 25.6984 11.0496 25.6984C11.5031 25.6984 12.1324 25.7094 12.4523 25.7241L13.0359 25.7462L12.9691 25.8197C12.9305 25.8638 12.9023 25.9484 12.9023 26.0182C12.9023 26.1285 12.8918 26.1395 12.8004 26.1395C12.702 26.1395 12.6984 26.1322 12.716 26.0145C12.7301 25.9079 12.7195 25.8785 12.6457 25.827C12.5754 25.7792 12.5402 25.7756 12.484 25.805C12.3961 25.8564 12.3574 25.9814 12.4102 26.0476C12.4453 26.0917 12.4418 26.1028 12.3961 26.1028C12.3152 26.1028 12.3223 26.1212 12.5051 26.3712C13.4754 27.702 14.6883 28.827 16.0348 29.6395L16.4813 29.9079L16.3617 29.9925C16.207 30.0991 16.1367 30.2498 16.1367 30.4594C16.1367 30.7204 16.2703 30.93 16.5059 31.0366C16.5902 31.0734 16.6113 31.1064 16.6113 31.1947C16.6113 31.2866 16.6254 31.305 16.6992 31.305C16.7695 31.305 16.7906 31.2829 16.7977 31.202C16.8047 31.1395 16.7941 31.1028 16.7625 31.0991C16.7379 31.0991 16.7871 31.0697 16.8715 31.0366C16.9629 30.9998 17.0719 30.9153 17.1352 30.8344C17.2301 30.7131 17.2441 30.6616 17.2441 30.4814V30.2682L17.4727 30.3675C18.1336 30.6616 19.2129 30.9704 20.0215 31.0991C20.5453 31.1837 21.5051 31.2609 21.8109 31.2425L22.0184 31.2314L22.3594 30.1837C22.5492 29.6064 22.7109 29.1028 22.725 29.0587C22.7461 28.9814 22.7461 28.9814 22.0816 28.9998C21.1148 29.0256 20.2465 28.9263 19.3992 28.6873L19.0617 28.5954L19.023 28.441C19.002 28.3528 18.9527 28.2425 18.9141 28.1873L18.8402 28.0917L19.0441 28.1653C19.2762 28.2462 19.902 28.4189 19.9793 28.4189C20.0145 28.4189 19.9688 28.2131 19.7859 27.6064C19.6559 27.1616 19.5469 26.7866 19.5469 26.7719C19.5469 26.7572 19.5926 26.7204 19.6453 26.6873C19.7402 26.6322 19.7508 26.6322 19.8598 26.7131C20.0918 26.8785 20.4188 26.8601 20.6367 26.6689C20.7563 26.5623 20.8477 26.4006 20.8477 26.2939C20.8477 26.2535 20.8723 26.202 20.9004 26.1763C20.9777 26.1101 20.9637 25.9667 20.8758 25.9006C20.802 25.8454 20.8969 25.8417 22.1133 25.8638C22.8375 25.8785 23.4844 25.9042 23.5477 25.9263C23.625 25.952 23.6988 25.9484 23.7832 25.9189C23.8922 25.8822 23.9203 25.8895 24.068 25.9778C24.2824 26.1101 24.5566 26.1175 24.7887 25.9998C24.9293 25.9263 24.9996 25.9189 25.4391 25.9226C25.9172 25.9263 25.9242 25.9263 25.7801 25.9814C25.6887 26.0109 25.5797 26.0954 25.5094 26.1837L25.3863 26.3307L24.7078 26.3197L24.0293 26.305L23.8887 26.7204C23.7516 27.1212 23.741 27.1395 23.5723 27.2572C23.2031 27.5219 23.0801 27.9594 23.2629 28.3712C23.3121 28.4851 23.3086 28.5109 23.1855 28.8859C22.9113 29.7167 22.0605 32.327 21.8426 33.0109C21.6984 33.452 21.6 33.702 21.5859 33.6726C21.5578 33.6175 21.1289 32.1653 21.1289 32.1212C21.1289 32.1064 21.1852 32.0954 21.252 32.0954C21.5402 32.0954 21.6633 31.7241 21.4418 31.5292C21.3047 31.4079 21.1641 31.4079 21.0305 31.5256C20.9531 31.5917 20.9004 31.6101 20.809 31.5991C20.7422 31.5917 20.5313 31.566 20.3379 31.5403C19.9512 31.4962 19.2199 31.3564 18.9035 31.2682C18.6328 31.1947 18.6223 31.1947 18.6469 31.3087C18.6645 31.3712 18.6469 31.4594 18.5977 31.566C18.5449 31.6726 18.5273 31.7609 18.5449 31.8307C18.5695 31.9484 18.7137 32.1101 18.8297 32.1469C18.8895 32.1653 18.9949 32.4851 19.5223 34.2756C20.8828 38.8969 21.4875 40.9373 21.498 40.9484C21.5051 40.9557 21.6105 40.6395 21.7371 40.2498C21.9023 39.7351 21.9762 39.5439 22.0113 39.555C22.1449 39.5991 22.391 39.566 22.5105 39.4888C22.6898 39.3748 22.8305 39.0623 22.8094 38.8417C22.7918 38.6837 22.7918 38.68 22.8621 38.7314C23.0484 38.8675 23.3086 38.7167 23.3086 38.4741C23.3086 38.305 23.182 38.1616 23.0309 38.1616C22.8973 38.1616 22.7426 38.3013 22.7355 38.4263L22.7285 38.5219L22.602 38.4006C22.5316 38.3344 22.4543 38.2756 22.4297 38.2645C22.3945 38.2535 22.4191 38.1322 22.5387 37.7756C22.6617 37.3969 22.718 37.2792 22.8129 37.1873C22.9641 37.0439 23.0273 36.9116 23.0273 36.7388C23.0273 36.6064 23.0379 36.5954 23.2102 36.5072C23.4703 36.3748 23.6004 36.1726 23.618 35.8675C23.632 35.6248 23.5863 35.4704 23.4422 35.305C23.3789 35.2351 23.3754 35.2094 23.4141 35.0844C23.4387 35.0072 23.509 34.8859 23.5723 34.816C23.7656 34.5991 23.8148 34.4631 23.8184 34.1359C23.8219 33.8528 23.8465 33.7609 24.4336 31.9667C24.7676 30.9337 25.0734 30.055 25.1121 30.0109C25.1508 29.9667 25.1719 29.9042 25.1613 29.8748C25.1367 29.8087 25.3758 29.0439 25.5059 28.7756C25.5551 28.6726 25.5938 28.5476 25.5973 28.4962C25.5973 28.441 25.6816 28.1469 25.7836 27.8344L25.9664 27.2682L26.1352 27.2241C26.2266 27.1984 26.3426 27.1359 26.3988 27.0807C26.4516 27.0292 26.5254 26.9851 26.5641 26.9851C26.8488 26.9851 27.1477 26.4631 27.0422 26.1469C26.9859 25.9741 27.0316 25.9557 27.5414 25.9557H27.9984L27.8543 26.0844C27.6293 26.2866 27.5484 26.5807 27.6504 26.8417C27.675 26.9116 27.109 27.3381 26.5359 27.6873C26.3391 27.805 26.1668 27.9226 26.1527 27.9484C26.1422 27.9741 25.977 28.4704 25.7871 29.0476C25.4531 30.0844 25.4461 30.1028 25.3371 30.1359C25.1859 30.18 25.0559 30.3859 25.0805 30.5329C25.1051 30.6726 25.2844 30.8454 25.4039 30.8454C25.541 30.8454 25.6992 30.7425 25.7484 30.6175C25.8012 30.4925 26.0508 30.3638 26.0508 30.4631C26.0508 30.5439 26.1949 30.6248 26.2688 30.5844C26.3391 30.5439 26.3531 30.4042 26.2969 30.3454C26.2688 30.316 26.3109 30.2866 26.427 30.2388C26.5184 30.202 26.7398 30.0991 26.9121 30.0072C29.6824 28.566 31.7953 26.0587 32.7867 23.0366C32.8535 22.8344 32.9063 22.6653 32.9063 22.6579C32.9063 22.6395 31.0711 21.2057 31.0641 21.2204C31.057 21.2278 31.0184 21.3895 30.9727 21.5807C30.818 22.2682 30.4418 23.2609 30.1113 23.8675C29.8688 24.3087 29.5875 24.7792 29.5629 24.7792C29.5523 24.7792 29.5488 24.7388 29.5559 24.6873C29.5664 24.6395 29.5453 24.5182 29.5137 24.4226L29.4539 24.2425L29.598 24.0072L29.7422 23.7682L29.0461 23.7462C28.6664 23.7314 28.0582 23.7204 27.6996 23.7167C27.1512 23.7131 27.0352 23.702 26.9965 23.6542C26.9156 23.5513 26.6906 23.4557 26.5359 23.4557C26.3777 23.4557 26.1316 23.555 26.0613 23.6432C26.0332 23.68 25.9523 23.691 25.7555 23.6837C25.527 23.6726 25.4883 23.6616 25.4883 23.6028C25.4883 23.43 25.2316 23.4006 25.2141 23.5734C25.2035 23.6616 25.1859 23.6763 25.0945 23.6763C24.9926 23.6763 24.9891 23.6726 25.0418 23.6101C25.0734 23.5734 25.1227 23.4888 25.1473 23.4226L25.2 23.2976L26.2301 23.305L27.2637 23.3123L27.4465 22.7498C27.6398 22.1469 28.5715 19.2756 28.5996 19.202C28.6102 19.1689 28.6523 19.18 28.7438 19.2462C28.8914 19.3491 29.0672 19.3932 29.2184 19.3601C29.3133 19.3417 29.5418 19.5109 31.9148 21.3748C33.3422 22.4925 34.5375 23.452 34.5691 23.5072C34.6043 23.5587 34.6992 23.6542 34.7801 23.7167L34.9277 23.8307L33.9293 23.816L32.9309 23.8013L32.7938 24.1138C32.7199 24.2866 32.6145 24.5219 32.5652 24.6395C32.4844 24.8234 32.4598 24.8491 32.3473 24.8712C32.0871 24.9226 31.9219 25.1395 31.9219 25.4226C31.9219 25.4962 31.9395 25.5881 31.9606 25.6285C31.9922 25.691 31.9816 25.7314 31.9078 25.8491C31.8586 25.9263 31.8164 25.9998 31.8164 26.0109C31.8164 26.0219 32.168 26.0292 32.6004 26.0292C33.0293 26.0292 33.5848 26.0403 33.8309 26.055C34.2246 26.0734 34.2773 26.0844 34.2563 26.1359C34.2422 26.1689 34.2211 26.2866 34.2141 26.3969C34.2 26.6322 34.2809 26.7939 34.4883 26.941C34.5902 27.0145 34.643 27.0256 34.8152 27.0145C35.0402 26.9962 35.1598 26.9226 35.2898 26.7241C35.3566 26.6212 35.3707 26.5623 35.3602 26.3969C35.3531 26.2866 35.332 26.1653 35.318 26.1322C35.2898 26.0697 35.3566 26.0697 36.443 26.0844C37.0793 26.0954 37.9512 26.1138 38.3766 26.1248L39.157 26.1469L39.0727 26.2756C38.7879 26.7167 39.2414 27.2572 39.7055 27.0256C39.9938 26.8785 40.0816 26.5145 39.8953 26.2425L39.8285 26.1395H40.2152C40.5563 26.1395 40.6125 26.1469 40.6758 26.2131C40.9852 26.5366 41.2172 27.8234 41.2664 29.4925C41.3016 30.566 41.2664 31.2792 41.1539 31.827C41.0414 32.3748 41.0379 32.5329 41.1363 32.6616C41.1961 32.7425 41.2348 32.7572 41.393 32.7572C41.6074 32.7572 41.6953 32.6873 41.6953 32.5109C41.6953 32.452 41.6566 32.1616 41.6074 31.8675C41.4422 30.8344 41.4176 28.7792 41.5547 26.8564C41.5723 26.5917 41.5898 26.327 41.5898 26.2682C41.5898 26.1653 41.4844 26.0734 39.941 24.8712L38.2887 23.5844L38.3098 23.3601C38.3273 23.1689 38.3168 23.1101 38.2465 22.9814C38.134 22.7719 37.9652 22.6689 37.7332 22.6689C37.5996 22.6689 37.5223 22.691 37.4449 22.7498L37.3359 22.8307L36.5098 22.1837C36.0563 21.827 35.6906 21.5182 35.6941 21.4962C35.6977 21.4704 35.6801 21.4557 35.652 21.4631C35.6273 21.4667 35.3848 21.3013 35.1141 21.0881C34.7344 20.7903 34.6043 20.6689 34.5516 20.5513C34.4672 20.3712 34.2738 20.2278 34.0805 20.1947C33.975 20.1763 33.7254 19.9998 32.9695 19.4042C32.4316 18.9851 31.9957 18.6248 31.9957 18.6101C32.0098 18.5145 31.9781 18.4373 31.8902 18.3417C31.8059 18.2572 31.7566 18.2351 31.6301 18.2351C31.4859 18.2351 31.4297 18.1984 30.6246 17.5697C30.157 17.202 29.7668 16.9079 29.7563 16.9189C29.7492 16.93 29.6648 17.1763 29.5699 17.4667L29.4012 17.9962L29.2113 17.9814C29.1059 17.9778 29.018 17.9667 29.0145 17.9631C29.0109 17.9594 29.1129 17.6359 29.243 17.2388L29.4785 16.5219L29.5523 16.6138C29.6473 16.7314 29.7984 16.6984 29.8336 16.555C29.8688 16.4116 29.809 16.3417 29.6578 16.3454C29.5523 16.3491 29.5313 16.3381 29.5488 16.2903C29.5629 16.2572 29.6648 15.9447 29.7773 15.5954L29.9883 14.9594L29.8617 14.6984C29.5945 14.1432 29.0813 13.3564 28.6629 12.8601L28.4836 12.6506L28.241 13.3932C28.009 14.0917 27.9879 14.1359 27.9035 14.1469C27.8297 14.1579 27.798 14.1359 27.7664 14.066C27.7453 14.0145 27.7137 13.9704 27.6996 13.9704C27.682 13.9704 27.6785 13.9226 27.6891 13.8675C27.7242 13.691 27.5133 13.5587 27.3938 13.6837C27.3445 13.7351 27.3375 13.9189 27.3867 13.952C27.4078 13.9631 27.4043 14.0072 27.3797 14.0623C27.3516 14.1285 27.3516 14.18 27.3797 14.2425C27.4113 14.316 27.4043 14.3417 27.3445 14.4006C27.3059 14.4373 27.2461 14.5256 27.2074 14.5991C27.1723 14.6726 27.123 14.7425 27.0984 14.7498C27.0738 14.7609 26.8348 14.5991 26.5711 14.3895C26.107 14.0292 26.093 14.0109 26.1563 13.952C26.2652 13.8491 26.3426 13.5881 26.325 13.4006C26.2723 12.941 25.7906 12.6579 25.4039 12.8675C25.2703 12.9373 25.2668 12.9373 25.1227 12.8601C25.0172 12.8013 24.9188 12.7829 24.7535 12.7866C24.6094 12.7866 24.5004 12.7682 24.4477 12.7351L24.3703 12.68L24.4969 12.555L24.627 12.43L24.6164 12.0807C24.6129 11.8859 24.5953 11.691 24.5777 11.6432C24.5461 11.5587 24.5953 11.5182 25.4602 10.8785C25.9664 10.5072 26.3918 10.1947 26.4094 10.191C26.4234 10.1837 26.4375 10.2131 26.4375 10.2535C26.4375 10.3675 26.5957 10.4631 26.7012 10.4116C26.8207 10.3528 26.8102 10.3822 26.6801 10.4704L26.5711 10.5403L26.7926 10.6837C28.5996 11.8234 30.0938 13.7976 30.7828 15.9447C30.9164 16.3675 30.927 16.4337 30.8531 16.4337C30.7723 16.4337 30.6914 16.5403 30.6914 16.6506C30.6914 16.7829 30.7898 16.8748 30.9305 16.8748C31.0465 16.8748 31.0324 16.8381 31.1344 17.3969C31.1484 17.4741 31.3805 17.6726 32.2594 18.3601C32.8641 18.8381 33.3703 19.2278 33.3809 19.2278C33.3949 19.2278 33.3984 18.9962 33.3914 18.7131C33.3809 18.2645 33.3879 18.1984 33.4371 18.1984C33.5813 18.1984 33.8449 18.066 33.982 17.9189C34.2422 17.6469 34.302 17.2535 34.1367 16.9153C34.0594 16.7498 33.8203 16.5182 33.7043 16.4851C33.6551 16.4741 33.6023 16.43 33.5813 16.3822C33.5109 16.2204 33.3422 16.0513 33.1699 15.9741C32.9977 15.8932 32.9941 15.8859 32.9309 15.6395C32.8289 15.2498 32.5336 14.4373 32.3051 13.941C32.1047 13.4998 32.1012 13.4814 32.1223 13.2535C32.1398 13.055 32.1328 13.0035 32.0625 12.8895C31.9816 12.7498 31.834 12.6469 31.7145 12.6469C31.6652 12.6469 31.5949 12.5697 31.493 12.4153C30.9375 11.555 30.2449 10.7131 29.6332 10.1469L29.3625 9.89689L29.468 9.87483C29.5383 9.86012 29.584 9.81968 29.6156 9.7388L29.6613 9.62483L30.0938 10.0623C30.3328 10.3013 30.6738 10.6726 30.8531 10.8895C31.0324 11.1064 31.1871 11.2719 31.1941 11.2572C31.2012 11.2425 31.2363 11.1432 31.2715 11.0329L31.3348 10.8344L31.377 10.9704C31.4402 11.1542 31.5563 11.2792 31.7145 11.327C32.0625 11.4373 32.3789 11.1837 32.3789 10.7976C32.3789 10.3785 31.8902 10.1028 31.5809 10.3528C31.5176 10.4042 31.4648 10.4373 31.4648 10.43C31.4648 10.4042 31.9922 8.81601 32.0133 8.78292C32.0238 8.76454 32.0625 8.74983 32.0977 8.74983C32.1363 8.74983 32.2172 8.70204 32.2805 8.64322C32.3789 8.5513 32.3965 8.51086 32.3965 8.37115C32.3965 8.26086 32.3719 8.16895 32.3262 8.10277L32.2523 8.00351L32.4598 7.37483C32.8465 6.18733 32.8113 6.27189 32.9555 6.24615C33.1031 6.22042 33.177 6.28292 33.1594 6.41895C33.1523 6.46674 33.1734 6.56601 33.2086 6.63954C33.4336 7.13586 34.1719 6.90057 34.084 6.35645C34.0699 6.27924 34.0453 6.20572 34.0313 6.19468C34.0137 6.18365 34.0242 6.11748 34.0523 6.04763C34.0805 5.97777 34.1016 5.88586 34.1016 5.84542C34.1016 5.77189 34.1051 5.77189 34.2176 5.83072C34.3582 5.91159 34.6184 5.90792 34.766 5.83072C34.875 5.76822 34.8785 5.76822 34.9699 5.88586C35.0719 6.01086 35.3004 6.13586 35.427 6.13954C35.4832 6.13954 35.5148 6.16895 35.5324 6.2388C35.5465 6.29763 35.5606 6.89689 35.5606 7.57336C35.5606 8.57336 35.55 8.87851 35.5008 9.20204C35.3918 9.89321 35.427 10.1101 35.6449 10.055C35.8102 10.0109 35.8242 9.9116 35.7293 9.39321C35.6414 8.93365 35.6449 7.40792 35.7328 6.65792L35.7926 6.12851L35.9824 5.94101C36.2391 5.68365 36.2988 5.45939 36.1934 5.14322C36.0246 4.64322 35.3918 4.46674 35.0297 4.81968C34.9629 4.88586 34.9523 4.88586 34.9102 4.83439C34.766 4.65057 34.3723 4.61013 34.1719 4.74983C34.0102 4.86748 33.9223 4.99983 33.9012 5.17263L33.8836 5.31968L33.7711 5.26086C33.7043 5.22409 33.5848 5.20204 33.4582 5.20572C33.2824 5.20939 33.2543 5.20204 33.2367 5.13218C33.2227 5.06968 33.6129 3.81968 34.2563 1.88218C34.3055 1.72777 34.3266 1.62483 34.302 1.63954C34.2773 1.65424 34.0699 1.80865 33.8379 1.98145C33.6059 2.15057 33.3387 2.32336 33.2438 2.35645C33.0504 2.43365 33.0645 2.42263 32.9625 2.56968C32.9238 2.63218 32.516 2.95572 32.0625 3.28659C31.4473 3.7388 31.2258 3.88218 31.1941 3.85277C31.1273 3.79395 31.043 3.84542 31.043 3.94836C31.043 4.01454 30.9938 4.07336 30.8672 4.16895C30.7688 4.24248 30.6633 4.3013 30.6281 4.3013C30.5965 4.3013 30.5297 4.34909 30.4805 4.41159C30.4313 4.47042 29.8863 4.89322 29.2676 5.34542C28.459 5.94101 28.1039 6.17998 28.009 6.19468C27.8789 6.22042 27.668 6.39689 27.668 6.48145C27.668 6.5513 26.1246 7.66527 26.0473 7.65424C25.9277 7.63218 25.7379 7.75718 25.6781 7.90057C25.6289 8.01086 25.3969 8.19836 24.1453 9.11748C23.3332 9.71307 22.5738 10.2719 22.4613 10.3601L22.2539 10.5145L22.8902 11.0145C23.3965 11.4116 23.5195 11.5256 23.4984 11.5734C23.4844 11.6064 23.4668 11.6984 23.4563 11.7719C23.4492 11.8491 23.4316 11.9116 23.4211 11.9116C23.4105 11.9116 22.7742 11.4189 22.0043 10.816C20.9707 10.0109 20.6086 9.70939 20.6262 9.66895C20.6402 9.63954 20.6543 9.5366 20.6648 9.44101L20.6789 9.26821L20.8758 9.2388C21.1887 9.19468 22.4789 9.20571 22.8727 9.25718L23.2313 9.30498L24.3316 8.49248C24.9398 8.04395 25.4602 7.66159 25.4883 7.64689C25.5586 7.60645 25.5516 7.59909 25.1895 7.4888C23.291 6.89689 21.2063 6.80865 19.3359 7.2388L19.0371 7.30865L18.9246 7.16895C18.777 6.99248 18.6434 6.93365 18.4184 6.95572C18.123 6.98513 17.8945 7.23145 17.8945 7.51822V7.67263L17.5887 7.79027C17.216 7.93733 16.2422 8.42998 15.9223 8.63586C15.7676 8.73513 15.6656 8.77557 15.6164 8.76086C15.3949 8.70204 15.0293 8.86748 14.8816 9.09174C14.7164 9.34542 14.7129 9.73145 14.8746 9.97042C14.9168 10.0292 14.9449 10.0807 14.9379 10.0844C14.9309 10.0881 14.8746 10.1285 14.8113 10.1763C14.748 10.2204 14.6918 10.2572 14.6813 10.2572C14.6707 10.2572 14.6285 10.1395 14.5898 9.99248C14.5266 9.78292 14.5195 9.71674 14.5547 9.65057C14.618 9.52924 14.5863 9.40057 14.4773 9.34542C14.4 9.30865 14.3648 9.24248 14.2945 8.99615C14.2453 8.83072 14.1188 8.39689 14.0098 8.03292C13.7953 7.29395 13.8059 7.35277 13.848 7.28292C13.8691 7.24615 14.066 7.38218 14.6566 7.84542C15.082 8.17998 15.4406 8.45572 15.4512 8.45572C15.4617 8.45572 15.6551 8.34542 15.8836 8.20939C16.3301 7.94468 16.9172 7.64689 17.325 7.48145C17.4621 7.4263 17.5781 7.36748 17.5746 7.35645C17.5711 7.33807 10.0617 1.44468 9.84375 1.29027C9.80508 1.26454 9.77344 1.24615 9.77344 1.25351ZM30.1676 7.50351C30.1465 7.5513 30.0199 7.93733 29.8828 8.3638C29.5242 9.47777 29.5348 9.44836 29.4398 9.44836C29.3238 9.44836 29.2043 9.58071 29.2219 9.68733C29.2359 9.75718 29.1691 9.71307 28.8563 9.46307L28.4695 9.15424L28.3078 9.27189C28.2164 9.33807 27.9 9.56968 27.6047 9.7866C27.3094 10.0035 27.0316 10.1837 26.9859 10.1837C26.9438 10.1837 26.891 10.202 26.8664 10.2278C26.8348 10.2609 26.8242 10.2609 26.8242 10.2278C26.8242 10.202 26.7855 10.1395 26.7398 10.0917L26.652 10.0035L28.4168 8.70204C29.3871 7.98513 30.1852 7.40424 30.1922 7.40792C30.1957 7.41159 30.1852 7.45572 30.1676 7.50351ZM19.4801 9.62115C19.5012 9.67998 19.5434 9.75351 19.5715 9.79027C19.6031 9.82336 19.6207 9.86012 19.6137 9.8638C19.6066 9.87115 19.473 9.9116 19.3184 9.95939C19.0336 10.0403 18.3973 10.2792 18.1406 10.4006L17.9965 10.4667L18.5027 10.8638C18.9773 11.2314 19.0125 11.2719 19.0336 11.4042C19.0688 11.6212 19.0301 11.7167 18.893 11.7645C18.7313 11.8234 18.6328 11.9631 18.6328 12.1395C18.6328 12.3417 18.8121 12.5366 19.002 12.5366C19.1039 12.5366 19.1602 12.5072 19.2516 12.4116C19.3184 12.3417 19.3711 12.2609 19.3711 12.2278C19.3711 12.1873 19.4027 12.1689 19.4625 12.1689C19.5785 12.1689 19.6875 12.1101 19.7754 12.0035L19.8457 11.9153L20.3098 12.2792C20.6965 12.5844 20.7738 12.6616 20.7949 12.7645C20.8582 13.0697 21.1254 13.2903 21.4066 13.2682C21.5191 13.2572 21.5789 13.2792 21.7125 13.3822C21.8039 13.452 21.8953 13.5219 21.9129 13.5329C21.934 13.5476 21.9234 13.5917 21.8918 13.6395C21.8637 13.6837 21.8496 13.7498 21.8566 13.7903C21.8953 13.9447 22.1203 13.9704 22.166 13.8234C22.1836 13.7609 22.2469 13.7976 22.6406 14.1101L23.0977 14.4631L22.9465 14.5109C22.8621 14.5366 22.7461 14.6138 22.6758 14.6873C22.5598 14.8123 22.5527 14.8344 22.5527 15.066C22.5527 15.3564 22.616 15.4741 22.8375 15.5881C23.2172 15.7866 23.632 15.5145 23.632 15.0697C23.632 14.941 23.6461 14.8969 23.6742 14.9189C23.6953 14.9373 23.8957 15.0917 24.1172 15.2645C24.3387 15.4373 24.5531 15.6138 24.5918 15.6616C24.6305 15.7057 24.7184 15.7719 24.7852 15.8087C24.852 15.8454 25.2879 16.1726 25.752 16.5366L26.5957 17.1984L26.8348 16.4704L27.0773 15.7425L27.1723 15.7719C27.2285 15.7866 27.3129 15.7939 27.3656 15.7829C27.4148 15.7719 27.457 15.7682 27.457 15.7792C27.457 15.7866 27.2742 16.3528 27.0492 17.0403C26.8242 17.7278 26.5816 18.4704 26.5113 18.691C26.434 18.9263 26.3672 19.077 26.3531 19.0513C26.3109 18.9814 26.1633 18.9998 26.1211 19.0807C26.0719 19.1763 26.1316 19.3013 26.2266 19.3013C26.2652 19.3013 26.2969 19.316 26.2969 19.3307C26.2969 19.3454 26.1949 19.6653 26.0754 20.0403C25.9523 20.4116 25.7379 21.066 25.5973 21.4925C25.3582 22.2241 25.3371 22.2719 25.2316 22.3234C25.1684 22.3564 25.0945 22.4263 25.0664 22.4851C25.0383 22.5439 25.0137 22.5991 25.0066 22.6064C25.0031 22.6138 24.9504 22.5807 24.8871 22.5329C24.7852 22.4594 24.7254 22.4484 24.3703 22.441C23.9168 22.43 23.8043 22.4667 23.7129 22.6469C23.6848 22.7057 23.6602 22.805 23.6602 22.8675C23.6602 22.9962 23.748 23.1984 23.8043 23.1984C23.8219 23.1984 23.8641 23.2609 23.8957 23.3344C23.9238 23.4116 23.9801 23.5219 24.0188 23.577L24.0926 23.6837L23.7094 23.6616C23.4984 23.6506 22.4719 23.6322 21.4277 23.6175L19.5293 23.5954L19.4203 23.4704C19.2234 23.2498 18.9668 23.2094 18.7102 23.3638C18.6047 23.4263 18.5555 23.441 18.5449 23.4079C18.5379 23.3822 18.4816 23.191 18.4184 22.9778C18.3586 22.7645 18.2988 22.5697 18.2918 22.5439C18.2813 22.5182 18.3059 22.4998 18.3551 22.4998C18.5133 22.4998 18.7418 22.3491 18.8508 22.1726C18.9422 22.0219 18.9527 21.9778 18.9422 21.7792C18.9246 21.5072 18.8262 21.3307 18.6152 21.2057C18.4465 21.1064 18.1758 21.0954 18.0176 21.1837L17.9086 21.2425L17.4305 19.6285C16.9875 18.1285 16.9559 18.0072 16.991 17.8712C17.0227 17.7572 17.0156 17.6947 16.9734 17.577L16.9172 17.4263L17.0156 17.4814C17.4059 17.691 17.9262 17.4998 18.1266 17.077C18.2074 16.9042 18.218 16.8417 18.2039 16.6285C18.1934 16.4888 18.1758 16.3528 18.1652 16.3234C18.1477 16.2829 18.3375 16.1248 18.8824 15.7241C19.4977 15.2719 19.6313 15.1873 19.6875 15.2204C19.7824 15.2756 20.0813 15.2645 20.1621 15.2057C20.4223 15.0145 20.5523 14.8197 20.4609 14.7609C20.4434 14.7498 20.4258 14.702 20.4258 14.6579C20.4293 14.5954 20.5594 14.4814 20.9883 14.1726C21.2977 13.9484 21.5473 13.7609 21.5473 13.7498C21.5473 13.7388 21.143 13.4189 20.6543 13.0403L19.7613 12.3454L18.1898 13.5035C16.6746 14.6175 16.6148 14.6616 16.5375 14.6064C16.4918 14.577 16.425 14.5623 16.3863 14.577C16.309 14.6028 16.2563 14.7425 16.2914 14.8344C16.3055 14.8712 16.2035 14.9667 15.9609 15.1469C15.7711 15.2866 15.5988 15.4042 15.5813 15.4042C15.5145 15.4042 15.2191 15.2094 15.2473 15.1837C15.2613 15.1726 15.4301 15.0476 15.6199 14.9079C15.8063 14.7719 15.9609 14.6542 15.9609 14.6469C15.9609 14.6432 15.7395 13.8895 15.4688 12.9704C15.198 12.055 14.966 11.2719 14.9555 11.2351C14.9379 11.18 14.9484 11.1689 15.0082 11.1873C15.0469 11.1984 15.1348 11.191 15.2051 11.1763L15.3281 11.1469L15.3809 11.3307C15.416 11.4594 15.423 11.5366 15.3984 11.5807C15.3457 11.6873 15.3563 11.9042 15.423 12.0109C15.5707 12.2425 15.9328 12.2425 16.0664 12.0109C16.1051 11.9447 16.1367 11.8307 16.1367 11.7498C16.1367 11.6359 16.1121 11.5844 16.0137 11.4851L15.8906 11.3638L16.0945 11.1984C16.6746 10.7351 17.5711 10.202 18.2813 9.90424C18.6117 9.76821 19.3113 9.52924 19.3992 9.52557C19.4238 9.52189 19.459 9.56601 19.4801 9.62115ZM10.684 22.5734C10.7473 22.816 10.8141 23.0219 10.8246 23.0329C10.8387 23.0403 11.0496 23.0587 11.2957 23.0734C11.6262 23.0917 11.7422 23.1101 11.7422 23.1469C11.7422 23.1726 11.7598 23.2057 11.7809 23.2167C11.8371 23.2572 11.9883 23.202 11.9883 23.1432C11.9883 23.0991 12.0586 23.0881 12.3926 23.0881C12.7969 23.0881 12.8004 23.0881 12.7582 23.1653C12.7371 23.2094 12.7266 23.3013 12.7336 23.3675L12.7477 23.4925L11.1656 23.4704C10.2938 23.4557 9.33047 23.4373 9.0211 23.4226L8.46563 23.4006L8.87696 23.0954L9.28828 22.7903L9.41836 22.9153C9.49219 22.9851 9.6082 23.0513 9.67852 23.066C10.0125 23.1322 10.3359 22.8638 10.3359 22.5182C10.3359 22.4226 10.3641 22.3454 10.4344 22.2609C10.4871 22.191 10.5363 22.1359 10.5469 22.1359C10.5574 22.1322 10.6172 22.3307 10.684 22.5734ZM19.4027 24.9631C19.4836 25.2351 19.5574 25.4925 19.5715 25.5329C19.5926 25.6064 19.5891 25.6064 19.5152 25.5366C19.473 25.4962 19.3746 25.4557 19.2938 25.4447L19.1461 25.4226L18.9949 24.9263C18.9141 24.6542 18.8438 24.4263 18.8438 24.4226C18.8402 24.3932 19.2164 24.4006 19.234 24.43C19.248 24.4484 19.3254 24.691 19.4027 24.9631ZM29.1586 25.3381C29.0707 25.4962 28.8105 25.7719 28.7508 25.7719C28.6488 25.7719 28.5469 25.8381 28.5469 25.9079C28.5469 25.9484 28.5258 25.9594 28.4695 25.941C28.4238 25.93 28.3359 25.9189 28.2691 25.9189H28.1496L28.4098 25.6322C28.6559 25.3638 28.677 25.3491 28.8105 25.3601C28.8879 25.3638 29.0004 25.3528 29.0566 25.3344C29.1164 25.316 29.1656 25.2976 29.1727 25.2976C29.1797 25.2939 29.1727 25.316 29.1586 25.3381Z" fill="#FF0000"/>
<path d="M21.4453 13.5112C21.4453 13.5479 21.4699 13.5663 21.5086 13.5589C21.5824 13.5442 21.5754 13.4781 21.5016 13.4634C21.4664 13.456 21.4453 13.4744 21.4453 13.5112Z" fill="#FF0000"/>
<path d="M16.8573 13.919C16.7941 13.9852 16.8011 14.0404 16.8819 14.0918C17.005 14.1727 17.114 14.0146 17.0085 13.9043C16.9523 13.8455 16.9276 13.8492 16.8573 13.919Z" fill="#FF0000"/>
<path d="M21.4206 14.1029C21.1112 14.2647 21.0831 14.7794 21.3679 14.9669C21.4312 15.0073 21.4312 15.022 21.389 15.1323C21.3187 15.3051 21.3292 15.4632 21.4136 15.625C21.4909 15.7684 21.7019 15.9191 21.8249 15.9191C21.8776 15.9191 21.8987 15.9522 21.9163 16.0882C21.9515 16.3786 21.9409 16.7426 21.8847 16.9338C21.7933 17.2463 21.8214 17.386 21.969 17.3345C22.0288 17.3161 22.0323 17.2647 22.0288 16.6103C22.0253 16.0147 22.0323 15.9044 22.078 15.8897C22.1061 15.8786 22.1905 15.8125 22.2608 15.7353C22.5034 15.4853 22.4753 15.1286 22.1976 14.9044C22.0921 14.8235 22.0604 14.7757 22.0815 14.7389C22.0991 14.7095 22.1132 14.625 22.1132 14.5441C22.1132 14.1764 21.7405 13.9375 21.4206 14.1029Z" fill="#FF0000"/>
<path d="M25.7344 17.0219C25.7344 17.0697 25.759 17.0955 25.8047 17.0955C25.8504 17.0955 25.875 17.0697 25.875 17.0219C25.875 16.9741 25.8504 16.9484 25.8047 16.9484C25.759 16.9484 25.7344 16.9741 25.7344 17.0219Z" fill="#FF0000"/>
<path d="M19.698 18.717C19.3324 18.9045 19.2234 19.4523 19.4836 19.7979C19.6418 20.0075 20.0109 20.103 20.2676 20.0001C20.5699 19.8788 20.7527 19.5074 20.6684 19.1766C20.5559 18.7317 20.0953 18.5111 19.698 18.717Z" fill="#FF0000"/>
<path d="M24.7148 19.7207C24.6199 19.842 24.7781 19.9854 24.8836 19.8751C24.9293 19.8273 24.9328 19.8016 24.9047 19.7501C24.8519 19.6655 24.7711 19.6545 24.7148 19.7207Z" fill="#FF0000"/>
<path d="M18.2531 19.9705C18.1968 20.0294 18.2004 20.1654 18.2636 20.2205C18.3304 20.2794 18.4218 20.2573 18.4781 20.1654C18.5695 20.022 18.3691 19.8492 18.2531 19.9705Z" fill="#FF0000"/>
<path d="M25.221 20.4705C25.1155 20.4852 25.0206 20.6102 24.9257 20.8492C24.8448 21.0551 24.8448 21.0587 24.9116 21.1984C25.003 21.3933 25.1929 21.4705 25.3651 21.3859C25.5374 21.3014 25.5901 21.1911 25.6007 20.9117C25.6112 20.6984 25.6007 20.6543 25.5304 20.5771C25.446 20.4815 25.3511 20.4484 25.221 20.4705Z" fill="#FF0000"/>
<path d="M19.3077 20.7941C19.1777 20.8897 19.2269 21.0662 19.3886 21.0662C19.5362 21.0662 19.596 20.9044 19.4905 20.7941C19.4237 20.7206 19.4062 20.7206 19.3077 20.7941Z" fill="#FF0000"/>
<path d="M20.8301 22.5071C20.7352 22.5623 20.707 22.6101 20.707 22.724C20.707 22.8343 20.8055 22.9409 20.9039 22.9409C21.0199 22.9409 21.1289 22.8343 21.1289 22.7277C21.1289 22.6064 21.1008 22.5623 20.9988 22.5035C20.9074 22.4557 20.918 22.4557 20.8301 22.5071Z" fill="#FF0000"/>
<path d="M19.6699 22.794C19.5469 22.9337 19.6875 23.1617 19.8703 23.1139C19.9864 23.0808 20.0461 22.9448 19.9899 22.8271C19.9336 22.7058 19.7613 22.6874 19.6699 22.794Z" fill="#FF0000"/>
<path d="M10.719 1.34178C10.5291 1.4484 10.5081 1.73517 10.6768 1.87487C10.9967 2.13958 11.3834 1.65428 11.0706 1.38223C10.951 1.27561 10.8561 1.26458 10.719 1.34178Z" fill="#FF0000"/>
<path d="M12.6422 1.81988C12.5543 1.91546 12.5719 2.08458 12.6774 2.15811C12.7582 2.21326 12.7793 2.21326 12.8602 2.16546C12.9727 2.09929 13.0149 1.98164 12.9586 1.87135C12.9094 1.76105 12.7266 1.73164 12.6422 1.81988Z" fill="#FF0000"/>
<path d="M14.1468 2.70206C14.1328 2.73514 14.1398 2.77926 14.1609 2.80132C14.2136 2.85647 14.3156 2.805 14.3015 2.73147C14.2875 2.64691 14.175 2.62485 14.1468 2.70206Z" fill="#FF0000"/>
<path d="M8.40224 3.23521C8.31786 3.32344 8.31434 3.3933 8.38817 3.4705C8.45146 3.54036 8.58154 3.54771 8.64131 3.48521C8.7081 3.41536 8.69053 3.283 8.60615 3.2205C8.50419 3.14697 8.48661 3.14697 8.40224 3.23521Z" fill="#FF0000"/>
<path d="M36.3234 3.40815C36.1406 3.56991 36.239 3.86035 36.471 3.86035C36.6995 3.86035 36.7944 3.58462 36.6257 3.41917C36.5308 3.32726 36.4183 3.32359 36.3234 3.40815Z" fill="#FF0000"/>
<path d="M8.88043 3.79037C8.81011 3.90066 8.85933 4.02198 8.97887 4.03669C9.09489 4.05139 9.17575 3.98889 9.17575 3.88228C9.17575 3.70949 8.97535 3.65067 8.88043 3.79037Z" fill="#FF0000"/>
<path d="M7.80469 4.31985C7.80469 4.34926 7.8293 4.375 7.85742 4.375C7.88555 4.375 7.91016 4.34926 7.91016 4.31985C7.91016 4.29044 7.88555 4.26471 7.85742 4.26471C7.8293 4.26471 7.80469 4.29044 7.80469 4.31985Z" fill="#FF0000"/>
<path d="M14.0343 4.47425C14.0519 4.56984 14.1679 4.58087 14.1679 4.48896C14.1679 4.43381 14.1468 4.41175 14.0941 4.41175C14.0449 4.41175 14.0273 4.43013 14.0343 4.47425Z" fill="#FF0000"/>
<path d="M33.9046 4.74646C33.8694 4.80896 33.9503 4.87881 33.9995 4.82734C34.0417 4.78322 34.0136 4.70601 33.9608 4.70601C33.9433 4.70601 33.9187 4.7244 33.9046 4.74646Z" fill="#FF0000"/>
<path d="M27.0668 4.90064C26.898 5.01829 26.8277 5.2352 26.898 5.42638C27.0422 5.82712 27.5871 5.8308 27.7312 5.43373C27.7734 5.31976 27.7734 5.27564 27.7347 5.13961C27.6433 4.84181 27.3164 4.72416 27.0668 4.90064Z" fill="#FF0000"/>
<path d="M17.0579 5.26844C16.8399 5.51109 17.1036 5.90814 17.3883 5.76476C17.6872 5.6177 17.5958 5.18388 17.2688 5.18388C17.1739 5.18388 17.1106 5.20962 17.0579 5.26844Z" fill="#FF0000"/>
<path d="M7.68169 5.37123C7.66763 5.38961 7.66763 5.44844 7.67817 5.49991C7.69575 5.57344 7.72036 5.59182 7.79419 5.58079C7.91373 5.56608 7.9735 5.46682 7.91373 5.38961C7.86099 5.32344 7.71685 5.31241 7.68169 5.37123Z" fill="#FF0000"/>
<path d="M27.1969 6.14341C27.014 6.29415 27.116 6.61768 27.348 6.61768C27.5977 6.61768 27.7032 6.32356 27.5133 6.15076C27.3973 6.04782 27.3164 6.04415 27.1969 6.14341Z" fill="#FF0000"/>
<path d="M10.3676 8.21688C10.1461 8.34188 10.0864 8.68747 10.2481 8.89335C10.5153 9.22423 11.0039 9.04041 11.0039 8.60659C11.0039 8.511 10.9793 8.4007 10.9477 8.35291C10.8282 8.17644 10.5539 8.11026 10.3676 8.21688Z" fill="#FF0000"/>
<path d="M22.0359 9.28303C21.9832 9.31612 21.9234 9.37127 21.9023 9.41171C21.8426 9.52568 21.8602 9.72421 21.941 9.83083C21.9797 9.8823 21.9973 9.92642 21.9762 9.92642C21.9551 9.92642 21.9129 9.96686 21.8848 10.0147C21.8144 10.1286 21.8637 10.2794 21.9973 10.3419C22.0535 10.3639 22.1168 10.4044 22.1414 10.4301C22.2047 10.4926 22.2364 10.4889 22.3032 10.4191C22.3664 10.3529 22.3735 10.3088 22.3243 10.2757C22.3067 10.2647 22.2891 10.2058 22.2891 10.147C22.2891 10.0882 22.275 10.0294 22.2539 10.0183C22.1942 9.98156 22.2153 9.92642 22.2856 9.92642C22.3805 9.92642 22.5352 9.72054 22.5352 9.59186C22.5352 9.45583 22.377 9.27201 22.2364 9.24627C22.1766 9.23524 22.0887 9.24995 22.0359 9.28303Z" fill="#FF0000"/>
<path d="M11.7175 9.44101C11.6015 9.51821 11.605 9.74248 11.721 9.82336C11.8511 9.91527 12.0585 9.79395 12.0585 9.62483C12.0585 9.47777 11.8405 9.36013 11.7175 9.44101Z" fill="#FF0000"/>
<path d="M10.3183 10.5331C10.2023 10.6507 10.2023 10.8198 10.3183 10.9632C10.4062 11.0735 10.4238 11.136 10.4097 11.3456C10.4062 11.4118 10.4168 11.4743 10.4379 11.489C10.4625 11.5037 10.4765 11.4375 10.4765 11.2904C10.4765 11.0698 10.4801 11.0662 10.5961 11.0147C10.8457 10.9044 10.8633 10.614 10.6277 10.4853C10.5082 10.4191 10.4097 10.4338 10.3183 10.5331Z" fill="#FF0000"/>
<path d="M33.1874 11.0661C33.1101 11.2132 33.2472 11.3933 33.3984 11.3418C33.4827 11.3161 33.5284 11.1543 33.4792 11.0698C33.423 10.9742 33.2367 10.9742 33.1874 11.0661Z" fill="#FF0000"/>
<path d="M25.2139 12.1397C25.235 12.2059 25.3124 12.2169 25.3124 12.1544C25.3124 12.1213 25.2878 12.0956 25.2561 12.0956C25.2245 12.0956 25.2069 12.114 25.2139 12.1397Z" fill="#FF0000"/>
<path d="M27.9563 12.3234C27.9633 12.3785 27.9914 12.408 28.0371 12.408C28.1426 12.408 28.132 12.2646 28.0266 12.2499C27.9563 12.2388 27.9457 12.2499 27.9563 12.3234Z" fill="#FF0000"/>
<path d="M26.5148 12.5478C26.3601 12.7169 26.462 12.989 26.68 12.989C26.9121 12.989 27.0351 12.6802 26.8628 12.5294C26.7503 12.4375 26.6062 12.4449 26.5148 12.5478Z" fill="#FF0000"/>
<path d="M35.4551 19.5C35.3883 19.6029 35.4234 19.7132 35.5465 19.7794C35.7047 19.8713 35.877 19.5919 35.7469 19.4559C35.6731 19.3787 35.5149 19.4044 35.4551 19.5Z" fill="#FF0000"/>
<path d="M7.29138 19.8675C7.25623 19.9631 7.30545 20.044 7.38982 20.0293C7.44958 20.0219 7.47068 19.9925 7.47068 19.9263C7.47068 19.8602 7.44958 19.8307 7.38982 19.8234C7.34412 19.816 7.30193 19.8344 7.29138 19.8675Z" fill="#FF0000"/>
<path d="M13.7461 19.9522C13.602 20.0073 13.5668 20.1801 13.6758 20.2941C13.7672 20.3897 13.8375 20.386 13.9395 20.2757C14.0484 20.1654 14.0484 20.1286 13.9395 20.0183C13.8516 19.9227 13.8375 19.9191 13.7461 19.9522Z" fill="#FF0000"/>
<path d="M6.30005 20.8052C6.31412 20.853 6.36335 20.864 6.36686 20.8199C6.36686 20.8052 6.34928 20.7868 6.32818 20.7758C6.30357 20.7684 6.2895 20.7831 6.30005 20.8052Z" fill="#FF0000"/>
<path d="M30.9971 20.8346C30.9514 20.8787 30.9725 20.9853 31.0323 21.0074C31.1026 21.0368 31.187 20.9376 31.1589 20.8603C31.1413 20.8089 31.0358 20.7905 30.9971 20.8346Z" fill="#FF0000"/>
<path d="M38.2148 21.6178C38.0074 21.8347 38.3097 22.1766 38.5418 21.9855C38.6578 21.8899 38.6718 21.6987 38.5734 21.6068C38.4855 21.5222 38.2992 21.5296 38.2148 21.6178Z" fill="#FF0000"/>
<path d="M30.5296 21.6358C30.498 21.7204 30.5402 21.8013 30.6175 21.8013C30.6527 21.8013 30.6914 21.7755 30.7054 21.7461C30.7336 21.6616 30.6914 21.5807 30.6175 21.5807C30.5789 21.5807 30.5402 21.6064 30.5296 21.6358Z" fill="#FF0000"/>
<path d="M15.0152 21.7426C14.9589 21.8124 14.9765 21.9117 15.0574 21.9631C15.1452 22.022 15.2402 21.9484 15.2402 21.8161C15.2402 21.7278 15.2226 21.7058 15.1488 21.6984C15.0995 21.6911 15.0398 21.7131 15.0152 21.7426Z" fill="#FF0000"/>
<path d="M30.1851 21.7499C30.0727 21.8638 30.1676 22.0955 30.3293 22.0955C30.4031 22.0955 30.4804 21.9815 30.4804 21.8749C30.4804 21.7094 30.2976 21.6322 30.1851 21.7499Z" fill="#FF0000"/>
<path d="M36.9492 22.1139C36.9105 22.1617 36.9105 22.1838 36.9597 22.2316C37.0336 22.3088 37.132 22.2647 37.1179 22.1617C37.1039 22.0588 37.0125 22.0331 36.9492 22.1139Z" fill="#FF0000"/>
<path d="M1.51168 22.8529C1.44489 22.8823 1.36403 22.9337 1.32887 22.9632C1.29723 22.9962 1.21637 23.0477 1.15309 23.0808C1.02301 23.1507 0.977308 23.3088 1.0652 23.4117C1.09332 23.4485 1.13551 23.5367 1.16012 23.6139C1.24801 23.9007 1.46949 24.0808 1.73668 24.0808C2.11637 24.0808 2.35895 23.8382 2.36246 23.4521C2.36598 22.9852 1.91949 22.669 1.51168 22.8529Z" fill="#FF0000"/>
<path d="M27.6819 23.4962C27.6468 23.5587 27.7276 23.6286 27.7768 23.5771C27.819 23.533 27.7909 23.4558 27.7382 23.4558C27.7206 23.4558 27.696 23.4742 27.6819 23.4962Z" fill="#FF0000"/>
<path d="M31.7706 25.5366C31.7214 25.5918 31.7495 25.6616 31.8198 25.6616C31.869 25.6616 31.8866 25.6432 31.8796 25.5991C31.869 25.5329 31.8093 25.4999 31.7706 25.5366Z" fill="#FF0000"/>
<path d="M41.3436 25.5698C41.2523 25.6838 41.3893 25.8713 41.4983 25.7757C41.5651 25.7169 41.5721 25.6213 41.5124 25.5588C41.4561 25.5 41.3964 25.5037 41.3436 25.5698Z" fill="#FF0000"/>
<path d="M6.2578 25.7134C6.16288 25.8347 6.32108 25.9781 6.42655 25.8678C6.47225 25.82 6.47577 25.7942 6.44764 25.7428C6.39491 25.6582 6.31405 25.6472 6.2578 25.7134Z" fill="#FF0000"/>
<path d="M42.1206 25.805C42.0608 25.8454 42.0854 25.9741 42.1522 25.9741C42.212 25.9741 42.2436 25.8528 42.1979 25.805C42.1839 25.7903 42.1487 25.7903 42.1206 25.805Z" fill="#FF0000"/>
<path d="M42.3069 25.827C42.2753 25.9115 42.3175 25.9924 42.3984 25.9924C42.4863 25.9924 42.5285 25.9005 42.4687 25.827C42.4124 25.7571 42.3316 25.7571 42.3069 25.827Z" fill="#FF0000"/>
<path d="M44.5991 25.9226C44.4233 26.0697 44.5253 26.3601 44.7538 26.3601C44.8768 26.3601 44.9999 26.2351 44.9999 26.1138C44.9999 26.0072 44.8522 25.8454 44.7608 25.8454C44.7221 25.8454 44.6518 25.8785 44.5991 25.9226Z" fill="#FF0000"/>
<path d="M0.541349 25.9742C0.509708 26.0588 0.551895 26.1396 0.629239 26.1396C0.710098 26.1396 0.752285 26.0367 0.699551 25.9705C0.646817 25.9044 0.565958 25.9044 0.541349 25.9742Z" fill="#FF0000"/>
<path d="M37.5538 26.1984C37.4273 26.2903 37.4589 26.5256 37.6066 26.5844C37.8245 26.669 37.9933 26.3859 37.828 26.2131C37.7437 26.1249 37.6593 26.1212 37.5538 26.1984Z" fill="#FF0000"/>
<path d="M2.25352 26.2646C2.16211 26.3161 2.07773 26.4521 2.07422 26.5514C2.07422 26.5845 2.11641 26.6617 2.16562 26.7242C2.23594 26.8124 2.28516 26.8381 2.37656 26.8381C2.6543 26.8381 2.77734 26.4962 2.56289 26.3087C2.44336 26.2021 2.37656 26.1911 2.25352 26.2646Z" fill="#FF0000"/>
<path d="M43.0488 26.2904C42.7922 26.3639 42.6551 26.6764 42.7676 26.9227C42.8484 27.1029 42.9785 27.1838 43.1824 27.1801C43.3441 27.1764 43.3476 27.1801 43.4144 27.3345C43.4496 27.4191 43.541 27.5367 43.6148 27.5955C43.7308 27.6874 43.7765 27.7021 43.9804 27.7021C44.1738 27.7021 44.2371 27.6874 44.3566 27.6029C44.7152 27.3566 44.7152 26.7646 44.3601 26.5146C44.1703 26.386 43.8715 26.3639 43.6992 26.4632L43.5762 26.5367L43.4883 26.4264C43.3898 26.3051 43.207 26.2499 43.0488 26.2904Z" fill="#FF0000"/>
<path d="M23.2383 26.397C23.1539 26.4852 23.1539 26.5036 23.2242 26.6102C23.284 26.6985 23.4105 26.7169 23.4773 26.647C23.5371 26.5845 23.5301 26.4485 23.4633 26.3823C23.3894 26.3051 23.3226 26.3088 23.2383 26.397Z" fill="#FF0000"/>
<path d="M21.4452 26.6542C21.3608 26.7424 21.3573 26.7792 21.4311 26.8527C21.5085 26.9336 21.6104 26.9263 21.6561 26.8343C21.7054 26.7424 21.6843 26.6726 21.5893 26.6174C21.5296 26.588 21.505 26.5917 21.4452 26.6542Z" fill="#FF0000"/>
<path d="M34.9206 27.0734C34.671 27.1984 34.548 27.3932 34.5304 27.7057C34.5199 27.8895 34.5304 27.9704 34.5937 28.1064C34.6851 28.3013 34.8925 28.4778 35.0753 28.5145C35.1702 28.5329 35.1913 28.5513 35.1702 28.5991C35.0683 28.8491 35.0472 28.952 35.0824 29.0366C35.1175 29.1101 35.1421 29.1211 35.2687 29.1101C35.4972 29.0917 35.5148 28.9888 35.3531 28.5991C35.3355 28.5513 35.3531 28.5329 35.4374 28.5145C35.8558 28.43 36.1194 27.8601 35.9331 27.4447C35.7503 27.0366 35.3249 26.8785 34.9206 27.0734Z" fill="#FF0000"/>
<path d="M0.523781 27.2206C0.326905 27.2757 0.228468 27.3456 0.119484 27.5147C-0.0598133 27.7868 -0.0246571 28.125 0.207374 28.3934L0.333937 28.5405V29.1949C0.333937 29.6103 0.347999 29.853 0.369093 29.853C0.390187 29.853 0.404249 29.625 0.407765 29.2463C0.407765 28.9044 0.421827 28.625 0.442921 28.603C0.460499 28.5846 0.520265 28.5809 0.580031 28.5956L0.685499 28.625L0.713624 29.0478C0.727687 29.2794 0.745265 29.6802 0.748781 29.9449C0.759327 30.3419 0.769874 30.4265 0.815577 30.4338C0.910499 30.4522 0.917531 30.3824 0.854249 30.0368C0.801515 29.7427 0.797999 29.6434 0.836671 29.1912C0.857765 28.9081 0.889406 28.6507 0.903468 28.625C0.917531 28.5956 0.987843 28.5331 1.05464 28.4853C1.30073 28.3125 1.41323 28.0147 1.33589 27.7243C1.29722 27.5735 1.1355 27.3419 1.01948 27.2794C0.88589 27.2059 0.681984 27.1802 0.523781 27.2206Z" fill="#FF0000"/>
<path d="M31.9217 27.3347C31.8303 27.4523 31.9674 27.6324 32.0905 27.5516C32.21 27.4707 32.1678 27.2796 32.0272 27.2796C31.992 27.2796 31.9463 27.3053 31.9217 27.3347Z" fill="#FF0000"/>
<path d="M12.1113 27.386C11.5206 27.6691 11.707 28.5735 12.3573 28.5735C12.9831 28.5735 13.173 27.6544 12.607 27.386C12.4241 27.3015 12.2906 27.3015 12.1113 27.386Z" fill="#FF0000"/>
<path d="M38.6191 27.5C38.6332 27.522 38.6578 27.5294 38.6753 27.5184C38.7245 27.4853 38.714 27.4632 38.6507 27.4632C38.6226 27.4632 38.6086 27.4816 38.6191 27.5Z" fill="#FF0000"/>
<path d="M43.3617 28.0146C43.1965 28.0845 43.1156 28.3565 43.2175 28.4962C43.3371 28.658 43.5093 28.6764 43.6605 28.544C43.7413 28.4742 43.7695 28.419 43.7695 28.3271C43.7695 28.1029 43.5445 27.9337 43.3617 28.0146Z" fill="#FF0000"/>
<path d="M20.3202 28.3455C20.1655 28.5072 20.2921 28.7425 20.5206 28.7168C20.6718 28.7021 20.7245 28.4264 20.5944 28.3308C20.489 28.2536 20.4046 28.2572 20.3202 28.3455Z" fill="#FF0000"/>
<path d="M42.409 28.4192C42.2438 28.489 42.2086 28.739 42.3457 28.8787C42.4512 28.9927 42.5777 28.9964 42.7008 28.8861C42.7711 28.8236 42.7957 28.7648 42.7957 28.6765C42.7957 28.5883 42.7711 28.5295 42.7008 28.467C42.5988 28.3787 42.5355 28.3677 42.409 28.4192Z" fill="#FF0000"/>
<path d="M39.484 28.7278C39.2203 28.8785 39.259 29.2866 39.5473 29.4116C39.6844 29.4705 39.8813 29.4043 39.9621 29.2793C40.0289 29.169 40.0605 28.8234 40.0043 28.8234C39.9832 28.8234 39.927 28.7903 39.8777 28.7499C39.7758 28.6653 39.607 28.658 39.484 28.7278Z" fill="#FF0000"/>
<path d="M26.3918 31.0551C26.3777 31.0661 26.3672 31.0992 26.3672 31.1286C26.3672 31.1837 26.4586 31.1948 26.4867 31.1433C26.5113 31.1029 26.4234 31.022 26.3918 31.0551Z" fill="#FF0000"/>
<path d="M17.6695 31.8491C17.5359 31.9484 17.6765 32.1983 17.8171 32.1101C17.9015 32.0513 17.9156 31.908 17.8382 31.8491C17.8031 31.8234 17.7644 31.8014 17.7539 31.8014C17.7433 31.8014 17.7046 31.8234 17.6695 31.8491Z" fill="#FF0000"/>
<path d="M18.2883 32.0294C18.2144 32.1066 18.239 32.239 18.334 32.2868C18.4113 32.3235 18.4359 32.3198 18.4992 32.25C18.566 32.1838 18.5695 32.1581 18.5343 32.0772C18.4886 31.9779 18.3621 31.9522 18.2883 32.0294Z" fill="#FF0000"/>
<path d="M24.5848 32.4632C24.4266 32.5624 24.3528 32.6985 24.3528 32.886C24.3528 33.0735 24.4266 33.2095 24.5848 33.3088C24.8907 33.5036 25.2774 33.2757 25.2774 32.897C25.2774 32.5036 24.8977 32.261 24.5848 32.4632Z" fill="#FF0000"/>
<path d="M17.585 32.9814C17.2229 33.1725 17.1245 33.6762 17.3882 34.0071C17.5182 34.1652 17.6624 34.235 17.8733 34.235C18.1475 34.2387 18.3374 34.11 18.471 33.8343C18.5694 33.6247 18.5202 33.3012 18.3585 33.1137C18.1792 32.9041 17.8417 32.849 17.585 32.9814Z" fill="#FF0000"/>
<path d="M23.4141 36.43C23.3649 36.5255 23.4035 36.6138 23.5055 36.6395C23.6531 36.68 23.7586 36.5145 23.6531 36.4042C23.5898 36.3381 23.4563 36.3528 23.4141 36.43Z" fill="#FF0000"/>
<path d="M23.1223 39.3675C23.045 39.4557 23.0485 39.533 23.1258 39.6065C23.2067 39.6837 23.2876 39.6874 23.3579 39.6102C23.4633 39.4999 23.3895 39.3013 23.2419 39.3013C23.2067 39.3013 23.154 39.3307 23.1223 39.3675Z" fill="#FF0000"/>
<path d="M20.0249 39.9118C19.944 39.9964 19.9546 40.0993 20.053 40.1655C20.2147 40.2795 20.394 40.0736 20.2639 39.9228C20.1901 39.8383 20.0987 39.8346 20.0249 39.9118Z" fill="#FF0000"/>
<path d="M22.6301 40.1397C22.5528 40.228 22.5563 40.3052 22.6336 40.3787C22.7145 40.4559 22.7954 40.4596 22.8657 40.3824C22.9712 40.2721 22.8973 40.0736 22.7497 40.0736C22.7145 40.0736 22.6618 40.103 22.6301 40.1397Z" fill="#FF0000"/>
<path d="M18.1969 40.3272C18.1828 40.3529 18.1793 40.3823 18.1898 40.3934C18.2215 40.4265 18.2566 40.3787 18.2391 40.3272C18.225 40.2867 18.218 40.2867 18.1969 40.3272Z" fill="#FF0000"/>
<path d="M19.3605 41.3859C19.3148 41.43 19.3359 41.5072 19.3957 41.5072C19.4414 41.5072 19.4378 41.5256 19.3605 41.6065C19.0265 41.9741 19.139 42.5403 19.589 42.7388C19.8351 42.8418 20.0988 42.783 20.2886 42.5734C20.7597 42.0587 20.264 41.2131 19.6277 41.4447C19.5468 41.4741 19.48 41.4888 19.4835 41.4741C19.4941 41.3712 19.4238 41.3197 19.3605 41.3859Z" fill="#FF0000"/>
<path d="M21.4453 42.4632C20.8969 42.5735 20.6191 43.1874 20.8758 43.7169C20.9883 43.9522 21.2238 44.136 21.4629 44.1764C21.6105 44.1985 21.6211 44.2095 21.6422 44.3308C21.6562 44.4044 21.6492 44.5551 21.6281 44.6617C21.5859 44.8749 21.5965 44.9448 21.6808 44.9816C21.7758 45.0183 21.8074 44.9448 21.7793 44.7536C21.7512 44.5698 21.7512 44.3676 21.7828 44.2536C21.7933 44.2205 21.8777 44.1507 21.9726 44.0992C22.275 43.9374 22.4297 43.6617 22.4297 43.2867C22.4262 42.7647 21.941 42.3602 21.4453 42.4632Z" fill="#FF0000"/>
</svg>
