<svg width="316" height="65" viewBox="0 0 316 65" fill="none" xmlns="http://www.w3.org/2000/svg">
<path d="M0.708984 4.49316L1.25586 7.22754C1.0166 9.6543 0.879883 12.1836 0.845703 14.7812C0.811523 14.7471 0.811523 15.2939 0.811523 16.3535C0.811523 17.4473 0.811523 18.3359 0.845703 19.0195C0.948242 21.3096 0.982422 22.4375 0.982422 22.4375C1.29004 28.3506 1.73438 33.6143 2.38379 38.1943C3.10156 41.9541 3.92188 44.6201 4.84473 46.1924C5.83594 47.7305 7.20312 48.4824 8.94629 48.4824L13.5947 48.585C14.3809 48.585 15.167 48.585 15.9189 48.5508L15.7822 56.3096C15.7822 60.377 16.5 62.9404 17.9697 64H18.1064C18.9951 63.1797 19.918 60.958 20.8408 57.3008L20.7041 56.1045V50.6016C20.7041 40.8262 20.8408 32.418 21.1143 25.377L21.1484 25.4111V23.5654L21.2852 19.7031C21.4902 14.2002 22.0713 10.4062 23.0967 8.28711L24.2588 5.86035L24.293 5.4502C24.3613 4.80078 22.96 3.91211 20.2598 2.85254C18.9268 3.16016 18.0381 3.70703 17.6279 4.4248L18.0723 7.15918C17.6963 10.0645 17.4229 13.1406 17.3203 16.3193L17.1494 20.9336C17.0811 23.1211 16.9785 23.9756 17.0127 23.4629L16.124 45.8164C13.1846 45.2012 11.3047 44.8936 10.4502 44.8936H9.35645C8.36523 43.1504 7.54492 40.6211 6.89551 37.374C5.93848 31.0508 5.28906 24.5566 4.94727 17.9258C5.0498 13.3457 5.49414 10.0986 6.31445 8.15039L7.4082 5.68945V5.2793C7.4082 4.62988 6.04102 3.80957 3.30664 2.85254C1.97363 3.22852 1.08496 3.77539 0.708984 4.49316ZM32.1543 64H32.5645C33.9316 62.7012 34.6152 61.71 34.6152 61.0605V60.958L33.7949 57.0957L34.752 44.5859V44.4834C36.2217 44.1416 37.5889 43.9365 38.8535 43.8682C41.793 43.8682 45.8604 44.5176 51.0215 45.8164C51.4658 50.0205 51.7051 54.4297 51.7051 59.0098V59.7275L51.8418 60.5479C52.7646 62.8379 53.5166 64 54.166 64H54.3027C55.6699 64 56.4561 62.7695 56.627 60.3428V59.4199C56.627 55.8994 56.1826 50.1572 55.2598 42.2617C52.6963 23.3945 51.2949 12.2861 51.0215 8.90234V7.19336L51.2949 4.83496C51.2949 3.63867 49.8936 3.02344 47.0566 3.02344L45.8262 3.12598L38.7168 2.71582C38.2725 2.13477 37.8281 1.72461 37.3496 1.48535H37.2129C36.4268 1.48535 35.7432 2.88672 35.1621 5.65527C35.1621 11.3633 33.3506 26.71 29.6934 51.6953C29.6934 52.6182 29.0439 55.4893 27.7793 60.3428V60.4453C27.7793 62.0518 29.249 63.2139 32.1543 64ZM35.2988 40.8262C38.4775 21.1729 40.084 9.68848 40.084 6.37305L39.9473 5.86035L44.7324 6.47559C45.416 6.47559 45.8262 6.81738 45.9629 7.4668C47.6719 15.6699 49.3809 27.1543 50.748 41.9541C46.373 41.2021 41.2803 40.8262 35.4355 40.8262H35.2988ZM60.0449 3.94629C60.0449 4.25391 60.4209 4.73242 61.1387 5.4502C62.6768 16.6953 63.4629 31.7002 63.4629 50.4648C63.4629 53.6436 63.3262 56.3096 63.0527 58.4287L63.3262 58.6338C62.6768 59.3857 62.1982 60.5137 61.8223 61.9834C61.8223 62.5645 62.54 63.1797 64.0098 63.7949L64.8301 63.5898C64.8643 63.8633 65.001 64 65.2402 64H65.377C65.9238 63.7607 66.334 63.3848 66.6074 62.8721C71.9736 61.8125 76.3486 61.2656 79.7324 61.2656L85.3379 61.4707C85.8848 61.4707 86.1582 61.4023 86.1582 61.2656C87.4229 61.2656 88.0723 58.1211 88.0723 51.8662L88.209 50.8408C87.6279 49.3027 86.7393 48.5166 85.4746 48.5166C83.9365 48.5166 83.1504 49.3027 83.1504 50.8408V57.9502H81.6465C79.9717 57.9502 75.46 58.3262 68.1113 59.0439H67.8379C68.0088 59.0439 68.1455 57.0957 68.248 53.1992V50.9434L66.1973 8.59473V7.97949L67.0176 7.39844C73.6143 5.86035 78.1943 5.04004 80.8262 4.97168H80.9629C80.9629 6.54395 80.4502 10.9873 79.459 18.3018C80.416 21.002 81.2021 22.335 81.7832 22.335H82.1934C82.7744 22.335 83.458 21.4121 84.2441 19.5322C84.9619 12.7305 85.3379 7.4668 85.3379 3.74121C85.1328 2.47656 84.3467 1.82715 83.0137 1.82715H81.6465L79.3223 1.92969C71.9053 2.85254 67.667 3.33105 66.6074 3.33105C66.1631 3.12598 65.582 3.02344 64.8301 3.02344H64.6934C63.4287 3.02344 62.7793 3.12598 62.7793 3.33105C61.2412 3.50195 60.3184 3.70703 60.0449 3.94629ZM106.256 62.3594C106.256 63.3164 107.384 63.8633 109.605 64C110.528 63.8975 111.451 63.7949 112.306 63.6924H112.545C115.04 63.6924 116.578 63.4531 117.193 63.0088C121.329 62.3936 123.79 62.0518 124.61 61.9834L127.276 61.7783C129.088 61.6758 130.831 61.6416 132.438 61.6758C132.779 62.2568 133.36 63.0088 134.146 64H134.557C135.206 64 136.471 63.3506 138.385 62.0859C139.205 62.1885 139.991 62.291 140.709 62.4619C141.666 62.4277 142.418 62.1543 142.931 61.6416C143.819 60.2402 144.298 59.1123 144.332 58.292V57.5059C144.264 56.6855 142.931 56.6855 142.35 56.6855L141.222 56.7197C140.606 56.7539 139.649 56.8564 138.351 56.9932C137.359 52.4814 136.881 48.6191 136.881 45.3721L133.873 8.52637C134.522 8.11621 134.83 7.67188 134.83 7.22754C134.728 6.81738 134.044 6.06543 132.779 5.00586C132.506 4.56152 132.13 4.21973 131.686 4.01465H131.549C131.241 4.01465 130.934 4.49316 130.592 5.41602C128.302 5.2793 126.524 5.04004 125.26 4.73242V4.52734C124.918 3.33105 124.61 2.71582 124.303 2.71582H124.166L122.936 3.70703C122.354 3.70703 121.91 4.25391 121.568 5.31348V5.51855L121.705 5.92871C120.509 7.77441 119.928 9.62012 119.928 11.4316C116.681 33.0674 114.049 49.0635 111.998 59.4883L111.075 59.5566C110.768 59.6934 110.392 59.8643 109.947 60.0352L108.956 60.4453C108.307 60.7188 107.794 60.9238 107.452 61.0947C106.666 61.5049 106.256 61.915 106.256 62.3594ZM116.92 58.4971C116.92 54.6689 119.791 37.8184 125.533 7.91113L129.498 8.52637L129.088 10.2354C131.651 33.5801 132.916 46.1924 132.916 48.0723L133.053 57.3008L132.984 57.5742C132.335 57.6426 131.72 57.7451 131.104 57.7793C128.473 57.916 124.713 58.3262 119.825 58.7705L116.92 59.0439V58.4971ZM145.016 4.86914L145.631 7.05664C146.007 7.05664 146.144 12.7988 146.007 24.3174L145.973 24.8643L145.768 33.6826C145.597 38.707 145.836 47.1836 146.554 59.1123C146.896 60.001 147.203 60.7529 147.511 61.4023C147.203 61.5732 147.032 61.6758 147.032 61.7783C147.032 61.9492 147.34 62.1201 147.989 62.2568C148.639 63.3848 149.22 63.9658 149.801 64C150.416 64.0342 150.895 63.5898 151.202 62.667C152.706 62.7695 154.142 62.8379 155.475 62.8379L160.123 62.7354C161.866 62.7354 163.233 61.9834 164.225 60.4453C165.147 58.873 165.968 56.207 166.686 52.4473C167.882 43.6631 168.463 32.4521 168.463 18.8145C167.916 17.8916 167.198 17.4131 166.275 17.4131C162.14 17.4131 156.944 17.1738 150.689 16.7295H150.279C150.519 12.4912 151.1 8.90234 151.954 5.92871C151.988 4.97168 151.783 4.21973 151.339 3.63867C149.562 2.30566 148.297 1.58789 147.579 1.48535H147.169C145.973 2.75 145.255 3.87793 145.016 4.86914ZM150.108 34.127L150.04 25.001L150.108 21.583C155.543 20.9678 160.294 20.6602 164.361 20.626V21.2412C164.361 31.7344 163.644 41.8516 162.174 51.627C161.524 54.874 160.704 57.4033 159.713 59.1465H158.619C158.243 59.1465 157.354 59.249 155.919 59.4883C154.415 59.7275 152.945 60.001 151.51 60.3086C150.45 47.0469 149.972 38.3311 150.108 34.127ZM171.881 41.9883C171.881 43.7998 172.735 44.9277 174.479 45.3721L175.299 45.8848L177.896 45.6797C179.845 45.6797 182.784 45.8848 186.783 46.2949V46.5684H185.963C183.502 47.0469 181.896 47.2861 181.178 47.2861L175.436 46.9785C173.966 47.2861 173.248 47.7988 173.248 48.585V48.7559L173.795 52.5498C173.795 53.3701 173.248 55.8994 172.154 60.1035L172.018 61.5049V61.915C172.086 62.8379 172.325 63.3164 172.701 63.3164C176.256 61.0947 178.033 58.7021 178.033 56.1387C178.17 56.1387 178.272 55.4209 178.307 53.9512V52.4473C178.307 51.6953 178.17 50.875 177.896 49.9521L184.322 50.7725C185.348 51.2168 186.168 51.4561 186.783 51.4561V56.0361C186.783 61.334 187.638 64 189.381 64C190.133 64 190.953 62.4277 191.842 59.3174L191.432 47.5596L191.295 46.6709H191.432L193.619 47.3887C194.269 46.6709 194.576 46.124 194.576 45.6797C193.551 43.5605 192.867 42.501 192.525 42.501H192.252L191.295 43.082L191.158 35.6309V28.0771C191.568 15.0889 192.457 8.15039 193.756 7.15918C194.2 6.81738 194.439 6.47559 194.439 6.16797V6.06543C193.893 4.80078 193.038 4.18555 191.842 4.18555C191.227 3.33105 190.816 2.9209 190.611 2.88672H190.475C189.894 3.50195 189.415 3.84375 189.107 3.87793L184.322 2.88672L182.682 2.78418H181.998C179.332 2.78418 177.11 3.19434 175.299 3.98047C173.111 4.21973 172.018 4.4248 172.018 4.56152V4.7666C172.838 5.62109 173.248 6.85156 173.248 8.45801V9.85938L171.881 41.9883ZM176.803 38.8096C176.803 20.8311 177.179 10.1328 177.896 6.68066L178.443 6.74902C179.811 6.37305 181.417 6.09961 183.229 5.96289C186.134 6.27051 187.604 6.54395 187.604 6.85156C187.774 7.56934 187.877 8.56055 187.877 9.75684C187.159 24.0781 186.783 35.1182 186.783 42.8086V43.2871H186.646C181.622 42.6377 178.341 42.2959 176.803 42.2959V38.8096ZM198.883 8.42383L197.789 57.7451L198.199 58.3604C199.19 62.1201 200.011 64 200.66 64H200.934C201.822 63.7266 202.369 62.3594 202.574 59.8984L202.848 59.6934C203.873 59.2832 205.479 58.9756 207.633 58.7705C215.118 57.7451 218.844 55.7969 218.844 52.8916L218.707 44.4834C218.707 39.5615 218.263 37.1006 217.34 37.1006V36.998C218.81 36.7246 219.903 36.2119 220.621 35.46C221.134 35.46 221.646 25.7529 222.125 6.37305V5.96289C221.988 5.21094 221.749 4.83496 221.441 4.83496C221.441 4.39062 219.767 4.11719 216.383 4.01465L215.562 4.11719L205.035 3.91211H204.898L204.762 3.80957L205.172 2.78418C205.172 2.10059 203.634 1.45117 200.523 0.835938C199.054 1.14355 198.336 1.58789 198.336 2.16895V2.27148L198.883 3.91211C198.028 5.24512 197.584 6.30469 197.516 7.09082C197.516 7.6377 197.96 8.08203 198.883 8.42383ZM202.574 32.8965C202.574 21.583 202.848 13.4824 203.395 8.52637C203.395 7.91113 208.282 7.4668 218.023 7.19336H218.16C218.16 10.3721 217.579 19.0879 216.383 33.3066V33.4092L215.152 33.5117L209.82 33.2041H208.043C205.309 33.2041 203.531 33.4092 202.711 33.8193H202.574V32.8965ZM202.574 34.8447L203.121 35.3574C204.625 36.041 206.573 36.5195 209 36.793C210.812 38.1602 212.418 39.083 213.785 39.5615L214.742 53.4043L214.605 53.541C212.555 54.7031 210.128 55.2842 207.359 55.2842H205.855C204.659 55.2842 203.634 55.1816 202.711 54.9766L202.574 51.3535V34.8447ZM225.543 6.06543L226.09 8.45801C226.603 8.45801 227.013 14.7812 227.32 27.3936V37.1348L227.047 57.1641L227.73 60.0693V62.4961C227.73 63.1113 227.901 63.624 228.277 64L229.234 63.1797C229.303 63.5215 229.439 63.6924 229.645 63.6924H229.781L230.191 63.4873C230.191 62.7695 235.763 62.3936 246.871 62.3936L249.605 62.4961L250.426 63.6924L250.836 63.5898C252.374 62.8037 253.16 59.9668 253.16 55.1475C251.349 39.459 250.426 26.7441 250.426 16.9346V16.5244C250.426 13.79 250.836 10.4062 251.656 6.37305V5.4502L251.383 4.66406C250.221 3.46777 248.819 2.61328 247.145 2.13477H246.871C246.632 2.16895 246.153 2.78418 245.504 3.94629L232.105 5.34766V5.24512C231.661 4.39062 230.226 3.53613 227.867 2.75H227.594C226.329 4.15137 225.646 5.2793 225.543 6.06543ZM231.285 20.5576V15.3965C231.285 13.3115 231.559 11.0557 232.105 8.66309C232.105 8.35547 236.446 7.94531 245.094 7.4668C245.265 7.4668 245.47 7.97949 245.777 8.9707C246.427 20.3184 246.734 27.667 246.734 31.0166C247.657 49.5078 248.238 58.7705 248.512 58.7705L232.379 59.6592L231.695 59.7617L231.969 55.9678V55.8652L231.285 20.5576ZM256.92 63.6924C260.201 63.6924 261.842 63.2822 261.842 62.4961C261.466 61.5049 261.295 60.6504 261.295 59.8984V58.4971C261.295 54.6689 264.166 37.8184 269.908 7.91113L273.873 8.52637L273.463 10.2354C276.026 33.5801 277.291 46.1924 277.291 48.0723L277.428 57.3008L276.471 60.7871C276.471 61.2656 277.154 62.3252 278.521 64H278.932C279.581 64 280.846 63.3506 282.76 62.0859C283.204 61.5391 283.443 60.8896 283.443 60.1035C281.974 54.2588 281.256 49.3369 281.256 45.3721L278.248 8.52637C278.897 8.11621 279.205 7.67188 279.205 7.22754C279.103 6.81738 278.419 6.06543 277.154 5.00586C276.881 4.56152 276.505 4.21973 276.061 4.01465H275.924C275.616 4.01465 275.309 4.49316 274.967 5.41602C272.677 5.2793 270.899 5.04004 269.635 4.73242V4.52734C269.293 3.33105 268.985 2.71582 268.678 2.71582H268.541L267.311 3.70703C266.729 3.70703 266.285 4.25391 265.943 5.31348V5.51855L266.08 5.92871C264.884 7.77441 264.303 9.62012 264.303 11.4316C260.919 33.9561 258.185 50.4307 256.1 60.7871C255.279 61.7441 254.869 62.3594 254.869 62.5986C255.519 63.3164 256.202 63.6924 256.92 63.6924ZM291.1 64H291.51C292.877 62.7012 293.561 61.71 293.561 61.0605V60.958L292.74 57.0957L293.697 44.5859V44.4834C295.167 44.1416 296.534 43.9365 297.799 43.8682C300.738 43.8682 304.806 44.5176 309.967 45.8164C310.411 50.0205 310.65 54.4297 310.65 59.0098V59.7275L310.787 60.5479C311.71 62.8379 312.462 64 313.111 64H313.248C314.615 64 315.401 62.7695 315.572 60.3428V59.4199C315.572 55.8994 315.128 50.1572 314.205 42.2617C311.642 23.3945 310.24 12.2861 309.967 8.90234V7.19336L310.24 4.83496C310.24 3.63867 308.839 3.02344 306.002 3.02344L304.771 3.12598L297.662 2.71582C297.218 2.13477 296.773 1.72461 296.295 1.48535H296.158C295.372 1.48535 294.688 2.88672 294.107 5.65527C294.107 11.3633 292.296 26.71 288.639 51.6953C288.639 52.6182 287.989 55.4893 286.725 60.3428V60.4453C286.725 62.0518 288.194 63.2139 291.1 64ZM294.244 40.8262C297.423 21.1729 299.029 9.68848 299.029 6.37305L298.893 5.86035L303.678 6.47559C304.361 6.47559 304.771 6.81738 304.908 7.4668C306.617 15.6699 308.326 27.1543 309.693 41.9541C305.318 41.2021 300.226 40.8262 294.381 40.8262H294.244Z" fill="#FF0000"/>
</svg>
