<svg width="45" height="45" viewBox="0 0 45 45" fill="none" xmlns="http://www.w3.org/2000/svg">
<path d="M25.5198 37.9688L15.9376 23.1563V11.25C15.9376 10.7323 15.5179 10.3125 15.0001 10.3125H10.3126C9.79486 10.3125 9.3751 10.7323 9.3751 11.25V23.1825L0.638594 38.0344C0.220674 38.7448 0.000244143 39.5539 0.000244143 40.3781C0.000156253 42.9306 2.06945 44.9999 4.62197 45H21.6938C22.5713 44.9998 23.4299 44.7463 24.1667 44.27C26.2804 42.9036 26.8863 40.0825 25.5198 37.9688ZM21.6938 43.1251H4.62197C4.13058 43.1259 3.64788 42.9948 3.22434 42.7455C1.91688 41.9762 1.48067 40.2925 2.25007 38.9851L11.1208 23.9129C11.2055 23.7688 11.2502 23.6047 11.2502 23.4376V12.1876H14.0627V23.4376C14.0626 23.6182 14.1147 23.7949 14.2127 23.9466L23.9439 38.9869C24.2247 39.4206 24.3741 39.9262 24.3743 40.4429C24.3747 41.9237 23.1747 43.1245 21.6938 43.1251Z" fill="#FF0000"/>
<path d="M13.5047 27.2558L11.8885 26.3062L3.92817 39.8371C3.84327 39.9814 3.79853 40.146 3.79871 40.3134C3.79923 40.8311 4.21944 41.2505 4.7372 41.2499H11.25V39.3749H6.37504L13.5047 27.2558Z" fill="#FF0000"/>
<path d="M42.737 21.5625H28.1252C26.0541 21.5625 24.3751 23.2415 24.3751 25.3125V40.3126C24.3782 42.9001 26.4751 44.997 29.0626 45H37.5001C40.0877 44.997 42.1845 42.9001 42.1876 40.3126V27.5756L44.3382 25.4259C44.7615 25.0017 44.9994 24.427 44.9997 23.8278C45.0005 22.5775 43.9874 21.5632 42.737 21.5625ZM43.0117 24.1003L40.5873 26.5247C40.4116 26.7005 40.3127 26.9389 40.3127 27.1875V40.3125C40.3127 41.8658 39.0535 43.125 37.5002 43.125H29.0627C27.5094 43.125 26.2502 41.8658 26.2502 40.3125V25.3125C26.2502 24.277 27.0896 23.4376 28.1252 23.4376H42.7371C42.8402 23.4375 42.9393 23.4784 43.0122 23.5515C43.1636 23.7032 43.1634 23.9489 43.0117 24.1003Z" fill="#FF0000"/>
<path d="M36.5627 27.1875V39.375H33.7502V41.25H37.5003C38.018 41.25 38.4378 40.8302 38.4378 40.3125V27.1875H36.5627Z" fill="#FF0000"/>
<path d="M26.2501 13.5788V0.937529C26.2501 0.419766 25.8304 0 25.3127 0H18.7501C18.2324 0 17.8126 0.419766 17.8126 0.937529V13.8451C16.6684 14.1973 15.5678 14.6776 14.5314 15.2766L15.4689 16.8994C16.5703 16.2635 17.753 15.78 18.9845 15.4622C19.3987 15.3553 19.688 14.9816 19.6877 14.5538V1.87497H24.3751V14.3353C24.3753 14.7853 24.6952 15.1718 25.1373 15.256C28.4246 15.8844 31.3805 17.6636 33.4745 20.2744L34.9361 19.1007C32.7299 16.3513 29.6757 14.4098 26.2501 13.5788Z" fill="#FF0000"/>
<path d="M39.844 13.125C38.0317 13.125 36.5627 14.5941 36.5627 16.4062C36.5627 18.2184 38.0318 19.6874 39.844 19.6874C41.6562 19.6874 43.1252 18.2183 43.1252 16.4062C43.1252 14.5941 41.6562 13.125 39.844 13.125ZM39.844 17.8126C39.0673 17.8126 38.4377 17.183 38.4377 16.4063C38.4377 15.6296 39.0673 15.0001 39.844 15.0001C40.6207 15.0001 41.2502 15.6296 41.2502 16.4063C41.2502 17.183 40.6207 17.8126 39.844 17.8126Z" fill="#FF0000"/>
<path d="M36.5627 6.5625C35.0095 6.5625 33.7502 7.82171 33.7502 9.375C33.7502 10.9283 35.0095 12.1875 36.5627 12.1875C38.116 12.1875 39.3752 10.9283 39.3752 9.375C39.3752 7.82171 38.116 6.5625 36.5627 6.5625ZM36.5627 10.3124C36.045 10.3124 35.6252 9.89268 35.6252 9.37492C35.6252 8.85715 36.045 8.43747 36.5627 8.43747C37.0805 8.43747 37.5003 8.85724 37.5003 9.375C37.5003 9.89277 37.0805 10.3124 36.5627 10.3124Z" fill="#FF0000"/>
<path d="M3.28146 7.5C1.46925 7.5 0.000244141 8.96909 0.000244141 10.7812C0.000244141 12.5934 1.46925 14.0625 3.28146 14.0625C5.09368 14.0625 6.56269 12.5934 6.56269 10.7813C6.56269 8.96909 5.09368 7.5 3.28146 7.5ZM3.28146 12.1876C2.50478 12.1876 1.87521 11.558 1.87521 10.7813C1.87521 10.0046 2.50478 9.37506 3.28146 9.37506C4.05815 9.37506 4.68772 10.0046 4.68772 10.7813C4.68772 11.558 4.05815 12.1876 3.28146 12.1876Z" fill="#FF0000"/>
<path d="M7.50024 0.9375C5.94695 0.9375 4.68774 2.19671 4.68774 3.75C4.68774 5.30329 5.94695 6.5625 7.50024 6.5625C9.05353 6.5625 10.3127 5.30329 10.3127 3.75C10.3127 2.19671 9.05353 0.9375 7.50024 0.9375ZM7.50024 4.68744C6.98248 4.68744 6.56271 4.26768 6.56271 3.74991C6.56271 3.23224 6.98248 2.81247 7.50024 2.81247C8.01801 2.81247 8.43777 3.23224 8.43777 3.75C8.43777 4.26776 8.01801 4.68744 7.50024 4.68744Z" fill="#FF0000"/>
<path d="M30.9377 27.1875H28.1252V29.0625H30.9377V27.1875Z" fill="#FF0000"/>
<path d="M30.0002 30.9375H28.1252V32.8125H30.0002V30.9375Z" fill="#FF0000"/>
<path d="M30.9377 34.6875H28.1252V36.5625H30.9377V34.6875Z" fill="#FF0000"/>
<path d="M30.0002 38.4375H28.1252V40.3125H30.0002V38.4375Z" fill="#FF0000"/>
<path d="M3.75021 16.875H1.87524V18.75H3.75021V16.875Z" fill="#FF0000"/>
<path d="M6.56272 21.5625H4.68774V23.4375H6.56272V21.5625Z" fill="#FF0000"/>
<path d="M22.5001 25.3125H20.6251V27.1875H22.5001V25.3125Z" fill="#FF0000"/>
<path d="M20.6252 21.5625H18.7502V23.4375H20.6252V21.5625Z" fill="#FF0000"/>
<path d="M19.6876 17.8125H17.8126V19.6875H19.6876V17.8125Z" fill="#FF0000"/>
<path d="M20.6252 38.4375H18.7502V40.3125H20.6252V38.4375Z" fill="#FF0000"/>
<path d="M17.8126 34.6875H15.9376V36.5625H17.8126V34.6875Z" fill="#FF0000"/>
</svg>
