<svg width="20" height="20" viewBox="0 0 20 20" fill="none" xmlns="http://www.w3.org/2000/svg">
<g clip-path="url(#clip0)">
<path d="M9.41402 1.56451C7.39058 1.7149 5.54488 2.54693 4.09566 3.96294C2.18941 5.82232 1.27535 8.45513 1.61324 11.0997C2.03511 14.4063 4.36714 17.1602 7.57027 18.1348C10.0468 18.8887 12.8027 18.4415 14.9023 16.9473C17.4824 15.1094 18.8242 12.0606 18.4257 8.93951C18.0039 5.63287 15.6718 2.87896 12.4687 1.90435C11.5156 1.61334 10.4043 1.49029 9.41402 1.56451ZM13.9257 5.42584C14.5234 5.61138 14.9628 6.09771 15.0566 6.67974C15.0703 6.75591 15.0781 7.1817 15.0781 7.73834V8.67193H13.791H12.5039L12.3535 8.48638C11.6406 7.60748 10.5957 7.23834 9.40425 7.44146C8.83199 7.53912 8.34175 7.79107 7.93746 8.19341C7.83003 8.30084 7.69527 8.45318 7.63863 8.52935L7.53316 8.67193H6.24605H4.95894L4.9648 7.65045L4.97066 6.63091L5.02535 6.47466C5.17574 6.0313 5.52535 5.65435 5.94332 5.48443C6.22652 5.36919 6.04878 5.3731 10.0781 5.37701L13.7793 5.38091L13.9257 5.42584ZM10.3945 8.58209C11.08 8.71685 11.6718 9.26959 11.8437 9.9317C12.0566 10.7618 11.7226 11.5801 10.9746 12.0567C10.541 12.3321 9.92964 12.4004 9.41988 12.2266C8.82417 12.0235 8.34957 11.5098 8.17964 10.8809C8.1191 10.6622 8.1191 10.2129 8.17964 9.97466C8.35152 9.28521 8.9316 8.72662 9.62886 8.58404C9.80074 8.54888 10.2168 8.54888 10.3945 8.58209ZM6.998 9.98443C6.99019 10.0626 6.98238 10.2891 6.98433 10.4883C6.98628 11.0176 7.05855 11.3321 7.28511 11.7872C7.64839 12.5196 8.36714 13.129 9.13667 13.3575C9.46089 13.4532 9.71871 13.4825 10.1269 13.4708C10.5117 13.459 10.6543 13.4356 10.9765 13.3282C11.3867 13.1915 11.7558 12.9629 12.1054 12.627C12.6054 12.1485 12.9062 11.6075 13.0214 10.9766C13.0664 10.7325 13.0664 10.1661 13.0234 9.97466L12.9921 9.84381H14.0351H15.0781V11.9512C15.0781 14.2579 15.08 14.2071 14.9628 14.502C14.7695 14.9825 14.2949 15.379 13.7988 15.4727C13.5957 15.5098 6.39253 15.5098 6.22066 15.4727C5.9023 15.4004 5.63472 15.2442 5.39644 14.9922C5.23238 14.8184 5.14058 14.6797 5.06441 14.4922C4.96089 14.2325 4.96089 14.2481 4.96089 11.961V9.84381H5.98824H7.01363L6.998 9.98443Z" fill="white"/>
<path d="M12.9746 6.24219C12.8613 6.29883 12.8516 6.3457 12.8516 6.89453C12.8516 7.43555 12.8555 7.45703 12.9746 7.54688L13.041 7.59766H13.5527C14.1152 7.59766 14.1523 7.5918 14.209 7.48047C14.2539 7.39453 14.2519 6.43164 14.207 6.33789C14.1523 6.21875 14.1074 6.21094 13.541 6.21094C13.123 6.21094 13.0273 6.2168 12.9746 6.24219Z" fill="white"/>
</g>
<defs>
<clipPath id="clip0">
<rect width="20" height="20" fill="white"/>
</clipPath>
</defs>
</svg>
