<svg width="45" height="45" viewBox="0 0 45 45" fill="none" xmlns="http://www.w3.org/2000/svg">
<path d="M2.83577 11.0692C2.78444 11.2639 2.81889 11.472 2.93069 11.6401L5.06678 14.8449C5.06678 14.8456 5.06748 14.8456 5.06748 14.8463L11.3682 24.2971L11.3794 24.2893C11.4047 24.328 11.4216 24.3702 11.4561 24.4039L14.2594 27.2073L15.298 28.2458C14.1821 28.5735 13.3594 29.5958 13.3594 30.8164C13.3594 30.8621 13.37 30.905 13.3728 30.95C13.3271 30.9479 13.2842 30.9374 13.2385 30.9374C11.7549 30.9374 10.5469 32.1453 10.5469 33.6289C10.5469 34.3475 10.8268 35.0239 11.3351 35.5323L13.6864 37.8835C13.993 38.1901 14.3642 38.4017 14.7657 38.5311V43.5936H16.1719V38.6042C17.3764 38.3371 18.2813 37.2634 18.2813 35.9802C18.2813 35.9345 18.2708 35.8916 18.268 35.8466C18.3137 35.8487 18.3565 35.8592 18.4023 35.8592C19.6229 35.8592 20.6452 35.0366 20.9736 33.9207L22.003 34.9501C22.1401 35.0872 22.3201 35.1561 22.5001 35.1561C22.6801 35.1561 22.8601 35.0872 22.9972 34.9501L24.2579 33.6894L25.3126 34.7441V35.8592H26.7188V34.453C26.7188 34.266 26.645 34.0874 26.5128 33.9559L23.2032 30.6463V28.1249C23.2032 27.9378 23.1294 27.7592 22.9972 27.6278L20.0637 24.6943C19.2411 23.8717 19.2411 22.5343 20.0637 21.7117L20.3907 21.3847L24.8155 25.8095C24.9469 25.9417 25.1255 26.0155 25.3126 26.0155H30.9376V43.5936H32.3438V25.6035L39.1782 18.7691L41.9815 15.9657C42.2565 15.6908 42.2565 15.2464 41.9815 14.9715L39.1782 12.1681L34.2387 7.22869L31.4354 4.42533C31.1605 4.15041 30.7161 4.15041 30.4412 4.42533L30.0615 4.80502L24.8583 2.80392H24.8576L21.3476 1.45392C21.2576 1.41947 21.1655 1.40471 21.0748 1.40822C21.0713 1.40822 21.0678 1.41033 21.0643 1.41033C20.9778 1.41455 20.8927 1.43213 20.814 1.46658C20.7858 1.47853 20.7647 1.50244 20.738 1.51861C20.6108 1.59455 20.5011 1.70142 20.442 1.84978L20.0391 2.85666L10.4471 4.22564C10.2601 4.25236 10.0927 4.35291 9.98092 4.50408C9.86912 4.65666 9.82202 4.8465 9.85225 5.03283L10.1876 7.12744L3.20069 10.6206C3.02069 10.7106 2.8878 10.8744 2.83577 11.0692ZM6.87944 10.3548C6.98069 10.6431 7.03131 10.9419 7.03131 11.2499C7.03131 12.1548 6.59045 12.995 5.87327 13.5181L4.54225 11.5227L6.87944 10.3548ZM14.779 22.0752C15.222 22.5814 15.4688 23.2234 15.4688 23.9061C15.4688 24.5888 15.222 25.2308 14.779 25.7371L12.9474 23.9061L14.779 22.0752ZM16.8751 35.9802C16.8751 36.6889 16.2985 37.2655 15.5898 37.2655C15.2515 37.2655 14.9197 37.1284 14.6806 36.8893L12.3294 34.5381C12.0903 34.299 11.9532 33.9678 11.9532 33.6289C11.9532 32.9202 12.5297 32.3436 13.2385 32.3436C13.5767 32.3436 13.9086 32.4807 14.1476 32.7198L16.4989 35.071C16.738 35.3101 16.8751 35.6413 16.8751 35.9802ZM19.6876 33.1677C19.6876 33.8764 19.111 34.453 18.4023 34.453C18.064 34.453 17.7322 34.3159 17.4931 34.0768L15.1419 31.7256C14.9028 31.4865 14.7657 31.1553 14.7657 30.8164C14.7657 30.1077 15.3422 29.5311 16.051 29.5311C16.3892 29.5311 16.7211 29.6682 16.9601 29.9073L19.3114 32.2585C19.5505 32.4976 19.6876 32.8288 19.6876 33.1677ZM23.2637 32.6952L22.5001 33.4588L20.6733 31.632C21.0052 31.341 21.3933 31.1349 21.8145 31.0274C21.8349 31.1799 21.8926 31.3248 22.003 31.4345L23.2637 32.6952ZM25.6037 24.6092L20.8878 19.8934C20.6129 19.6185 20.1685 19.6185 19.8936 19.8934L19.0695 20.7174C17.6991 22.0878 17.6991 24.3181 19.0695 25.6885L21.7969 28.416V29.5965C21.0038 29.7308 20.274 30.0887 19.6777 30.6357L17.9544 28.9124L15.7698 26.7278C16.4764 25.9585 16.8751 24.9678 16.8751 23.9061C16.8751 22.8444 16.4764 21.8537 15.7698 21.0838L28.1145 8.739C28.8851 9.44494 29.8758 9.84361 30.9376 9.84361C31.9993 9.84361 32.99 9.44494 33.7599 8.7383L37.6672 12.6456C36.9612 13.4162 36.5626 14.4069 36.5626 15.4686C36.5626 16.5303 36.9612 17.521 37.6679 18.291L31.3496 24.6092H25.6037ZM38.6586 17.2996C38.2156 16.7933 37.9688 16.1513 37.9688 15.4686C37.9688 14.7859 38.2156 14.1439 38.6586 13.6377L40.4902 15.4686L38.6586 17.2996ZM32.7685 7.7476C31.7567 8.63494 30.1191 8.63494 29.1073 7.7476L30.9376 5.91596L32.7685 7.7476ZM27.6371 7.22799L14.5815 20.2836L20.0722 6.5558C20.5946 6.85603 21.1789 7.03111 21.7969 7.03111C23.4162 7.03111 24.769 5.9251 25.1762 4.43236L28.9723 5.89275L27.6371 7.22799ZM22.8903 3.55346L23.8655 3.92892C23.6729 4.89431 22.8186 5.62486 21.7969 5.62486C21.3617 5.62486 20.9476 5.49267 20.5967 5.24517L21.489 3.01416L22.8903 3.55346ZM13.531 19.1228L11.923 9.07299C13.5401 8.75728 14.7657 7.33275 14.7657 5.62486C14.7657 5.42728 14.7439 5.23111 14.7101 5.03705L19.4358 4.36205L13.531 19.1228ZM13.3208 5.23533C13.3461 5.36471 13.3594 5.49408 13.3594 5.62486C13.3594 6.63666 12.643 7.48533 11.7022 7.68783L11.3548 5.51658L13.3208 5.23533ZM12.5143 21.6653L12.0608 22.7994L6.64741 14.6804C7.75131 13.8992 8.43756 12.6287 8.43756 11.2499C8.43756 10.7295 8.32928 10.2149 8.13592 9.72619L10.4211 8.58361L12.5143 21.6653Z" fill="#FF0000"/>
<path d="M31.6406 18.9844C31.6406 16.6577 29.7485 14.7656 27.4219 14.7656C25.0952 14.7656 23.2031 16.6577 23.2031 18.9844C23.2031 21.311 25.0952 23.2031 27.4219 23.2031C29.7485 23.2031 31.6406 21.311 31.6406 18.9844ZM27.4219 21.7969C25.8708 21.7969 24.6094 20.5355 24.6094 18.9844C24.6094 17.4333 25.8708 16.1719 27.4219 16.1719C28.973 16.1719 30.2344 17.4333 30.2344 18.9844C30.2344 20.5355 28.973 21.7969 27.4219 21.7969Z" fill="#FF0000"/>
<path d="M42.8906 24.6094C41.3395 24.6094 40.0781 23.348 40.0781 21.7969C40.0781 21.408 39.7638 21.0938 39.375 21.0938C38.9862 21.0938 38.6719 21.408 38.6719 21.7969C38.6719 23.348 37.4105 24.6094 35.8594 24.6094C35.4705 24.6094 35.1562 24.9237 35.1562 25.3125C35.1562 25.7013 35.4705 26.0156 35.8594 26.0156C37.4105 26.0156 38.6719 27.277 38.6719 28.8281C38.6719 29.217 38.9862 29.5312 39.375 29.5312C39.7638 29.5312 40.0781 29.217 40.0781 28.8281C40.0781 27.277 41.3395 26.0156 42.8906 26.0156C43.2795 26.0156 43.5938 25.7013 43.5938 25.3125C43.5938 24.9237 43.2795 24.6094 42.8906 24.6094ZM39.375 26.4987C39.0628 26.029 38.6585 25.6254 38.1888 25.3125C38.6585 25.0003 39.0621 24.596 39.375 24.1263C39.6872 24.596 40.0915 24.9996 40.5612 25.3125C40.0915 25.6247 39.6872 26.029 39.375 26.4987Z" fill="#FF0000"/>
<path d="M1.40625 27.4219C1.40625 27.8107 1.72055 28.125 2.10938 28.125C4.04789 28.125 5.625 29.7021 5.625 31.6406C5.625 32.0295 5.9393 32.3438 6.32812 32.3438C6.71695 32.3438 7.03125 32.0295 7.03125 31.6406C7.03125 29.7021 8.60836 28.125 10.5469 28.125C10.9357 28.125 11.25 27.8107 11.25 27.4219C11.25 27.033 10.9357 26.7188 10.5469 26.7188C8.60836 26.7188 7.03125 25.1416 7.03125 23.2031C7.03125 22.8143 6.71695 22.5 6.32812 22.5C5.9393 22.5 5.625 22.8143 5.625 23.2031C5.625 25.1416 4.04789 26.7188 2.10938 26.7188C1.72055 26.7188 1.40625 27.033 1.40625 27.4219ZM6.32812 25.7365C6.74367 26.4255 7.32445 27.007 8.01352 27.4219C7.32445 27.8374 6.74297 28.4182 6.32812 29.1073C5.91258 28.4182 5.3318 27.8374 4.64273 27.4219C5.3318 27.0063 5.91258 26.4255 6.32812 25.7365Z" fill="#FF0000"/>
</svg>
