<?xml version="1.0" standalone="no"?>
<!DOCTYPE svg PUBLIC "-//W3C//DTD SVG 1.1//EN" "http://www.w3.org/Graphics/SVG/1.1/DTD/svg11.dtd">
<svg xmlns="http://www.w3.org/2000/svg">
<defs >
<font id="YanoneKaffeesatz" horiz-adv-x="404" ><font-face
    font-family="Yanone Kaffeesatz ExtraLight Medium"
    units-per-em="1000"
    panose-1="0 0 0 0 0 0 0 0 0 0"
    ascent="735"
    descent="-200"
    alphabetic="0" />
<glyph unicode=" " horiz-adv-x="152" />
<glyph unicode="!" horiz-adv-x="197" d="M55 223L39 679Q39 692 47 697T83 704T165 706L146 265Q145 245 137 236T109 225T55 223ZM98 -7Q64 -7 51 9T38 55Q38 80 53 98T98 117Q133 117 146 100T160 55Q160 29 144 11T98 -7Z" />
<glyph unicode="&quot;" horiz-adv-x="272" d="M45 583Q45 585 43 605T37 653T32 711T29 760T32 782Q38 786 54 786T89 786T118 783Q117 762 115 730T110 666T102 611T95 586Q95 586 83 585T58 584T45 583ZM171 583Q171 585 169 605T163 653T158 711T155 760T158
782Q164 786 180 786T215 786T244 783Q243 762 241 730T236 666T228 611T221 586Q221 586 209 585T184 584T171 583Z" />
<glyph unicode="#" horiz-adv-x="412" d="M239 107L259 487Q260 500 279 502T339 505L319 125Q318 112 300 110T239 107ZM71 107L91 487Q92 500 111 502T171 505L151 125Q150 112 132 110T71 107ZM23 187Q23 229 25 243T41 258H389Q389 217 387 202T371 187H23ZM23
357Q23 399 25 413T41 428H389Q389 387 387 372T371 357H23Z" />
<glyph unicode="$" horiz-adv-x="412" d="M179 -8Q133 -8 104 0T61 18T47 38Q47 43 50 57T58 87T70 112Q86 100 112 92T175 83Q216 83 238 102T260 159Q260 186 249 206T209 258L97 375Q70 404 59 431T47 485Q47 548 90 582T214 617Q268 617 299 611T343 595T357
580Q357 571 353 552T334 517Q325 523 299 529T240 536Q198 536 173 526T148 486Q148 466 157 449T188 409L308 286Q336 258 348 228T361 159Q361 115 346 77T291 16T179 -8ZM155 -123V20H238V-88Q238 -110 217 -116T155 -123ZM173 564V701Q173 724 194 731T256
738V559L173 564Z" />
<glyph unicode="%" horiz-adv-x="683" d="M173 339Q128 339 98 353T53 407T38 525Q38 620 75 664T180 708Q225 708 254 693T298 638T313 527Q313 429 277 384T173 339ZM176 409Q191 409 203 419T221 454T228 526Q228 573 223 597T208 629T179 638Q155 638 140
616T125 524Q125 475 131 451T148 418T176 409ZM169 -8Q169 -8 160 -6T141 2T122 13T113 27L509 709Q509 709 522 704T547 690T560 670Q560 667 543 637T499 558T436 449T364 326T292 203T230 96T186 20T169 -8ZM506 -9Q461 -9 431 5T386 59T371 177Q371 272 408
316T513 360Q558 360 587 345T631 290T646 179Q646 81 610 36T506 -9ZM509 61Q524 61 536 71T554 106T561 178Q561 225 556 249T541 281T512 290Q488 290 473 268T458 176Q458 127 464 103T481 70T509 61Z" />
<glyph unicode="&amp;" horiz-adv-x="498" d="M427 -10Q418 -10 393 12T335 74T263 163T189 268T123 378T75 482T57 568Q57 612 76 642T132 689T224 706Q291 706 333 692T375 657Q375 642 369 623T352 590Q323 611 295 618T235 625Q212 625 194 621T165 602T154
556Q154 529 172 486T220 390T287 284T361 185T432 106T486 63Q484 44 474 27T450 0T427 -10ZM209 -10Q154 -10 118 4T61 44T32 101T23 170Q23 221 44 261T100 332T169 378L208 314Q181 300 161 281T129 234T117 168Q117 150 121 133T136 104T163 84T204 76Q241
76 266 92T305 133T327 189T336 247T338 296Q338 348 331 385T313 448T288 496Q305 500 328 501T373 503T405 504Q427 504 444 504T479 501Q479 500 480 491T482 469Q482 451 475 439T439 427H400Q406 414 412 398T422 356T427 284Q427 256 423 218T406 140T368
66T305 11T209 -10Z" />
<glyph unicode="&apos;" horiz-adv-x="146" d="M45 583Q45 585 43 605T37 653T32 711T29 760T32 782Q38 786 54 786T89 786T118 783Q117 762 115 730T110 666T102 611T95 586Q95 586 83 585T58 584T45 583Z" />
<glyph unicode="(" horiz-adv-x="291" d="M221 -195Q216 -195 198 -177T158 -119T113 -20T77 125T63 319Q63 420 77 498T113 635T158 729T198 784T220 803Q242 803 253 791T271 745Q248 713 228 672T191 578T166 462T156 323Q156 240 166 168T193 39T230 -61T271
-126Q265 -157 255 -176T221 -195Z" />
<glyph unicode=")" horiz-adv-x="291" d="M70 -195Q47 -195 37 -176T20 -126Q42 -97 62 -56T99 41T125 167T135 323Q135 393 127 455T103 572T67 670T20 745Q27 778 38 790T71 803Q76 803 93 786T133 732T178 639T214 502T229 319Q229 218 215 136T179 -8T134
-112T94 -174T70 -195Z" />
<glyph unicode="*" horiz-adv-x="470" d="M140 257Q130 242 115 248T85 271T63 303L184 422Q194 431 204 430T225 413L140 257ZM172 458L15 498Q14 526 24 544T48 569T72 571L199 488Q200 468 192 461T172 458ZM324 242L249 400Q244 412 248 419T274 434L390 302Q401
289 391 277T361 255T324 242ZM220 505L195 666Q194 683 209 687T246 689T283 677L261 522Q259 510 252 505T220 505ZM283 453Q269 472 270 481T284 497L430 580Q444 568 451 548T456 510T439 488L283 453Z" />
<glyph unicode="+" horiz-adv-x="412" d="M31 242Q31 284 33 303T49 322H381Q381 280 379 261T363 242H31ZM167 107V439Q167 453 186 455T246 457V125Q246 112 228 110T167 107Z" />
<glyph unicode="," horiz-adv-x="185" d="M71 -100Q58 -100 49 -95T35 -75Q52 -47 56 -31T63 6Q50 15 44 28T38 59Q38 83 53 99T93 115Q123 115 138 99T154 52Q154 23 144 -4T120 -53T92 -87T71 -100Z" />
<glyph unicode="-" horiz-adv-x="273" d="M35 242Q35 284 37 303T52 322H239Q239 280 237 261T221 242H35Z" />
<glyph unicode="." horiz-adv-x="185" d="M93 -6Q59 -6 46 10T32 55Q32 80 48 99T93 118Q127 118 140 101T154 55Q154 30 138 12T93 -6Z" />
<glyph unicode="/" horiz-adv-x="346" d="M10 -20L235 740Q238 752 244 757T270 763T336 765L111 2Q109 -8 103 -12T76 -18T10 -20Z" />
<glyph unicode="0" horiz-adv-x="412" d="M203 -9Q133 -9 95 26T41 130T26 296Q26 445 68 522T207 600Q303 600 344 531T386 324Q386 214 370 140T313 29T203 -9ZM206 73Q236 73 254 98T281 179T290 325Q290 420 274 469T212 519Q161 519 143 458T125 291Q125
211 132 164T156 95T206 73Z" />
<glyph unicode="1" horiz-adv-x="412" d="M27 0Q27 15 26 31T25 62Q25 68 32 72T53 78T84 82T122 85T163 86L174 506Q162 506 148 505T119 501T93 496T74 492T66 490Q59 502 56 517T53 549Q53 554 68 560T109 574T161 587T211 596T247 600Q253 600 260 599T271
595L259 86H327Q350 86 368 88T386 90Q386 41 384 21T367 0H27Z" />
<glyph unicode="2" horiz-adv-x="412" d="M30 0Q27 7 27 15T26 27Q26 50 31 64T51 104Q77 148 106 186T164 259T217 326T255 388T269 449Q269 469 262 483T239 504T198 512Q174 512 148 508T97 496T57 479Q49 497 48 516T46 546Q46 560 70 572T135 592T224 600Q281
600 314 584T360 538T373 463Q373 423 359 387T321 316T268 246T207 171T147 86H261Q285 86 307 87T347 90T375 93T386 94Q386 41 383 21T366 0H30Z" />
<glyph unicode="3" horiz-adv-x="412" d="M148 -100Q93 -100 68 -86T43 -50Q43 -25 47 -10T54 18Q70 3 95 -4T149 -12Q191 -12 219 8T261 64T276 148Q276 178 263 198T228 229T178 244T119 248L117 304Q181 333 214 372T247 452Q247 467 243 481T225 503T182 512Q144
512 110 503T51 478Q43 496 41 515T39 545Q39 566 86 583T213 600Q265 600 295 584T339 541T352 481Q352 440 337 406T298 346T247 300Q283 297 311 280T357 232T375 152Q375 67 345 11T264 -73T148 -100Z" />
<glyph unicode="4" horiz-adv-x="412" d="M226 0V121H54Q36 138 30 161T24 205Q24 216 34 244T61 312T100 393T145 476T189 546T227 591Q237 598 246 602T268 606Q285 606 298 602T320 594L317 206Q345 206 366 208T387 210Q387 210 389 203T391 178Q390 156 383
139T361 121H317V28Q317 14 313 9T291 2T226 0ZM103 206H226L238 480Q222 461 202 428T162 354T126 276T103 206Z" />
<glyph unicode="5" horiz-adv-x="412" d="M145 -100Q85 -100 59 -85T32 -59Q32 -33 34 -17T42 16Q59 0 82 -7T135 -15Q187 -15 218 13T264 84T279 174Q279 215 270 241T243 283T198 304T133 311Q105 311 80 307T39 298L69 600H375Q375 567 372 549T359 525T328
519Q319 519 302 519T265 519T224 521T186 522T158 522T147 523L132 382Q139 383 152 385T185 387Q214 387 247 381T310 356T358 298T377 194Q377 105 352 39T275 -64T145 -100Z" />
<glyph unicode="6" horiz-adv-x="412" d="M199 -8Q141 -8 107 14T55 78T33 179T28 313Q28 424 45 499T92 619T164 683T255 702Q282 702 307 699T347 689T363 666Q363 654 361 637T354 601Q336 608 313 612T264 616Q214 616 179 584T128 478T116 282Q114 222 120
182T137 118T166 84T204 73Q234 73 255 94T287 150T298 227Q298 288 278 321T219 355Q183 355 152 331T92 252V333Q117 387 152 413T246 440Q308 440 348 395T388 246Q388 116 340 54T199 -8Z" />
<glyph unicode="7" horiz-adv-x="412" d="M172 -89Q136 -89 116 -88T87 -81T79 -65Q84 -7 99 58T135 189T181 318T231 433T279 522Q257 521 225 520T154 519T67 518Q57 518 52 530T44 561T42 600H402Q340 473 292 355T213 127T172 -89Z" />
<glyph unicode="8" horiz-adv-x="412" d="M214 -7Q147 -7 106 19T47 88T28 184Q28 230 44 268T88 335T149 383L208 410Q233 427 254 446T287 489T300 541Q300 560 294 574T276 599T250 615T218 620Q193 620 173 612T140 585T127 538Q127 513 136 496T160 464Q178
446 208 423T273 375T332 322Q360 292 374 259T388 182Q388 131 369 88T312 19T214 -7ZM208 80Q249 80 274 107T299 184Q299 223 287 243T259 279Q233 308 198 332T128 381T72 432Q54 451 45 477T35 533Q35 591 58 629T120 686T206 706Q242 706 274 698T332 672T371
623T385 544Q385 497 368 463T324 403T268 359L216 331Q188 315 165 295T128 249T114 190Q114 139 139 110T208 80Z" />
<glyph unicode="9" horiz-adv-x="412" d="M136 -104Q98 -104 71 -96T44 -68Q44 -55 46 -37T52 -7Q69 -11 87 -14T124 -17Q181 -17 216 9T268 80T292 185T299 310Q299 367 296 407T283 475T258 515T215 528Q170 528 142 489T114 369Q114 307 135 274T195 240Q230
240 262 264T320 341V261Q295 209 261 183T167 156Q126 156 94 179T43 248T24 358Q24 488 72 548T213 609Q267 609 300 594T352 542T377 445T386 294Q384 92 326 -6T136 -104Z" />
<glyph unicode=":" horiz-adv-x="185" d="M94 324Q59 324 46 340T33 385Q33 410 49 429T94 448Q128 448 141 431T155 385Q155 360 139 342T94 324ZM94 -6Q59 -6 46 10T33 55Q33 80 49 99T94 118Q128 118 141 101T155 55Q155 30 139 12T94 -6Z" />
<glyph unicode=";" horiz-adv-x="185" d="M66 -100Q53 -100 44 -95T31 -75Q48 -47 52 -31T59 6Q45 15 40 28T34 59Q34 83 49 99T89 115Q118 115 133 99T149 52Q149 23 139 -4T115 -53T87 -87T66 -100ZM91 324Q56 324 43 340T30 385Q30 410 46 429T91 448Q125 448
138 431T152 385Q152 360 136 342T91 324Z" />
<glyph unicode="&lt;" horiz-adv-x="400" d="M322 90Q313 90 293 97L52 204Q37 229 37 257Q37 273 44 286T66 307L328 434Q343 420 351 404T360 373Q360 353 344 346L156 254L363 160Q362 132 349 111T322 90Z" />
<glyph unicode="=" horiz-adv-x="412" d="M31 338Q31 380 33 398T49 417H381Q381 376 379 357T363 338H31ZM31 147Q31 189 33 207T49 226H381Q381 185 379 166T363 147H31Z" />
<glyph unicode="&gt;" horiz-adv-x="400" d="M76 78Q62 92 54 108T44 138Q44 159 59 166L249 258L42 352Q43 380 56 401T83 422Q91 422 111 415L352 308Q367 283 367 255Q367 239 360 226T337 205L76 78Z" />
<glyph unicode="?" horiz-adv-x="294" d="M89 213Q89 213 84 225T76 258T73 303T89 354Q105 385 122 410T153 456T176 500T185 549Q185 568 180 581T164 603T140 614T109 618Q76 618 57 608T31 594Q24 612 21 630T17 667Q17 680 36 689T86 704T144 710Q177 710
203 701T247 674T274 630T284 571Q284 526 273 492T244 431T208 381T175 331Q163 309 165 287T172 247T171 223Q167 217 152 214T119 211T89 213ZM130 -6Q96 -6 83 10T70 55Q70 80 85 99T130 118Q165 118 178 101T191 55Q191 30 175 12T130 -6Z" />
<glyph unicode="@" horiz-adv-x="732" d="M370 -190Q315 -190 266 -182T177 -148T107 -72T61 60T45 263Q45 374 69 453T139 583T247 658T389 682Q486 682 552 652T654 551T689 360Q689 263 678 199T650 94T611 35T568 8T528 1Q490 1 468 23T437 67L450 107Q464
96 482 89T518 81Q529 81 540 90T561 118T578 168T590 239T594 335Q594 435 576 493T513 575T388 600Q305 600 249 569T166 463T138 252Q138 167 147 106T173 5T217 -58T280 -91T363 -101Q414 -101 454 -96T529 -83T595 -62Q606 -77 613 -94T620 -125Q620 -142
590 -157T504 -181T370 -190ZM365 69Q377 69 386 74T400 91T406 126L410 254Q406 254 399 255T381 257Q363 257 350 248T329 217T322 153Q322 120 326 102T340 77T365 69ZM360 1Q324 1 296 11T251 54T235 156Q235 221 252 256T296 306T353 320Q367 320 382 318T410
308Q410 308 411 328T412 368Q413 388 407 398T389 413T359 418Q330 418 308 413T263 394Q256 407 255 424T253 446Q253 460 262 467Q274 476 305 485T389 494Q443 494 471 470T498 379L494 184Q493 148 492 120T488 72Q487 55 481 44T472 30Q465 19 436 10T360
1Z" />
<glyph unicode="A" horiz-adv-x="437" d="M61 -2Q53 -2 37 -1T4 2L179 686Q182 703 214 703Q226 703 237 702T257 699L432 16Q434 7 427 3T392 -2Q383 -2 370 -2T338 0L251 380Q245 412 238 446T227 513T219 572Q217 546 212 513T200 446T187 380L104 16Q102 7
96 3T61 -2ZM110 171V254H345V171H110Z" />
<glyph unicode="B" horiz-adv-x="370" d="M39 0V681Q39 690 44 695T66 700H165Q196 700 225 694T279 671T318 624T333 545Q333 491 318 457T282 405T239 384Q256 382 276 376T314 355T344 311T356 238Q356 191 347 154T322 88T282 40T230 10T167 0H39ZM132 80H169Q185
80 199 89T224 116T241 163T247 230Q247 267 242 289T226 322T202 336T170 340H132V80ZM132 417H171Q189 417 203 429T224 466T232 526Q232 565 224 585T202 613T172 620H132V417Z" />
<glyph unicode="C" horiz-adv-x="335" d="M193 -10Q163 -10 137 -3T91 24T56 81T35 177T27 323Q27 424 38 493T70 605T116 671T170 702T224 710Q264 710 284 702T311 680T319 654Q319 638 315 623T305 598Q300 603 291 607T270 616T244 620Q226 620 209 614T175
589T148 539T130 455T123 329Q123 256 129 210T147 138T176 102T216 92Q243 92 266 99T303 117Q308 106 312 92T316 63Q316 42 301 26T258 0T193 -10Z" />
<glyph unicode="D" horiz-adv-x="378" d="M39 0V681Q39 690 45 695T66 700H164Q213 700 250 686T311 636T347 540T359 386Q359 279 347 205T310 86T250 21T166 0H39ZM131 87H168Q185 87 200 97T228 139T247 232T255 395Q255 464 249 507T233 574T206 607T168 616H131V87Z" />
<glyph unicode="E" horiz-adv-x="313" d="M40 0V682Q40 682 42 691T57 700H297Q297 663 297 646T293 624T280 618H131V82H292Q292 44 291 27T287 5T275 0H40ZM50 338V422H272Q272 370 270 354T255 338H50Z" />
<glyph unicode="F" horiz-adv-x="307" d="M40 0V682Q40 682 42 691T57 700H297Q297 663 297 647T293 626T280 622H131V18Q131 18 130 9T115 0H40ZM50 339V422H272Q272 371 270 355T255 339H50Z" />
<glyph unicode="G" horiz-adv-x="380" d="M215 -10Q163 -10 127 5T69 57T37 161T27 331Q27 450 42 524T84 639T152 695T243 710Q294 710 322 694T351 656Q351 641 347 626T339 598Q326 608 306 614T262 620Q224 620 198 606T155 559T132 473T125 338Q125 254 130
203T147 125T177 89T217 80Q233 80 243 83T259 91T267 99V339H203V398Q203 415 223 415H353L352 30Q340 21 320 12T275 -4T215 -10Z" />
<glyph unicode="H" horiz-adv-x="400" d="M269 0V682Q269 691 273 694T295 699T360 700V18Q360 9 357 6T335 1T269 0ZM40 0V682Q40 691 43 694T66 699T131 700V18Q131 9 128 6T105 1T40 0ZM84 332V418H310L311 332H84Z" />
<glyph unicode="I" horiz-adv-x="171" d="M39 0V659Q39 680 43 688T66 698T132 700V18Q132 9 128 6T105 1T39 0Z" />
<glyph unicode="J" horiz-adv-x="300" d="M120 -9Q77 -9 54 0T22 23T13 53Q13 71 17 83T26 104Q40 92 62 82T107 72Q135 72 147 84T164 120T168 183V659Q168 680 172 688T195 698T261 700V164Q261 125 255 93T232 39T188 4T120 -9Z" />
<glyph unicode="K" horiz-adv-x="389" d="M329 -2Q313 -2 297 -1T264 1Q257 55 249 102T230 188T204 259T167 314Q155 327 140 335T110 345V361L272 694Q289 698 304 699T331 701Q381 701 369 676L224 399Q282 352 317 256T366 19Q367 8 360 3T329 -2ZM37 0V682Q37
691 41 694T65 699T130 700V18Q130 9 127 6T104 1T37 0Z" />
<glyph unicode="L" horiz-adv-x="309" d="M39 0V675Q39 688 43 693T66 699T131 700V86H292V18Q292 7 288 4T275 0H39Z" />
<glyph unicode="M" horiz-adv-x="485" d="M216 158L165 312Q162 321 156 345T141 401T123 466T106 529T94 575T89 593L124 700L214 416Q220 399 225 380T235 344T241 318T244 308Q244 308 246 318T252 344T261 378T272 414L353 682L394 590Q394 590 390 573T378
527T361 466T343 401T328 346T317 312L265 166Q263 158 254 158H216ZM39 0V682Q39 695 44 697T57 700H124L129 551L105 522Q105 522 106 510T110 475T115 423T120 361T125 294T127 229L129 18Q129 9 125 6T101 1T39 0ZM352 0L356 226Q357 257 359 291T363 358T368
422T373 476T376 512T378 526L353 547V682Q356 691 359 695T371 700Q408 700 423 700T442 700T446 700V18Q446 9 442 6T419 1T352 0Z" />
<glyph unicode="N" horiz-adv-x="439" d="M313 0L202 273Q195 291 185 321T164 387T142 459T123 525T109 573T104 591L51 646L57 700H127L237 432Q245 412 255 381T277 315T298 245T316 181T330 135T335 117L391 54L383 0H313ZM39 0V682Q39 700 57 700L130 682L117
548Q120 532 121 508T124 456T127 399T128 343T129 294T130 259V18Q130 9 126 6T104 1T39 0ZM383 0L309 18L321 171Q318 188 317 211T314 261T312 315T311 367T310 413T309 448V682Q309 691 313 694T336 699T400 700V18Q400 0 383 0Z" />
<glyph unicode="O" horiz-adv-x="422" d="M207 -10Q158 -10 124 6T69 63T37 174T27 354Q27 488 48 565T111 676T218 710Q267 710 301 693T356 636T386 528T396 357Q396 218 376 138T315 24T207 -10ZM211 84Q244 84 262 111T288 198T296 355Q296 451 290 508T266
590T216 616Q185 616 166 589T139 499T130 332Q130 244 137 190T162 110T211 84Z" />
<glyph unicode="P" horiz-adv-x="357" d="M68 279Q52 279 51 284T49 303V681Q49 683 50 691T63 700H154Q217 700 259 681T321 617T342 500Q342 436 327 394T285 326T226 290T156 279H68ZM39 0V682Q39 692 42 696T57 700H113Q126 700 128 691T130 682V18Q130 9
126 6T104 1T39 0ZM129 364H166Q190 364 206 377T231 423T240 510Q240 545 234 569T213 607T172 620H129V364Z" />
<glyph unicode="Q" horiz-adv-x="422" d="M320 -139Q264 -139 231 -105T180 4L284 27Q290 -22 301 -42T338 -63Q352 -63 368 -60T400 -46Q407 -56 410 -71T413 -95Q413 -113 397 -122T359 -135T320 -139ZM207 -10Q158 -10 124 6T69 63T37 174T27 354Q27 488 48
565T111 676T218 710Q267 710 301 693T356 636T386 528T396 357Q396 218 376 138T315 24T207 -10ZM211 84Q244 84 262 111T288 198T296 355Q296 451 290 508T266 590T216 616Q185 616 166 589T139 499T130 332Q130 244 137 190T162 110T211 84Z" />
<glyph unicode="R" horiz-adv-x="370" d="M68 279Q52 279 51 284T49 303V681Q49 683 50 691T63 700H154Q217 700 259 681T321 617T342 500Q342 436 327 394T285 326T226 290T156 279H68ZM39 0V682Q39 682 41 691T57 700H113Q126 700 128 691T130 682V18Q130 9
126 6T103 1T39 0ZM305 -2Q294 -2 281 -2T251 0Q247 87 233 145T201 236T171 284T158 299Q158 299 156 305T164 318L214 347Q228 347 233 337Q233 337 249 320T288 264T328 166T351 20Q352 7 345 3T305 -2ZM129 364H166Q190 364 206 377T231 421T240 504Q240 542
234 568T213 607T172 620H129V364Z" />
<glyph unicode="S" horiz-adv-x="353" d="M153 -10Q86 -10 54 10T22 52Q22 66 27 84T44 118Q60 104 85 94T144 84Q193 84 213 109T234 177Q234 209 223 236T180 300L83 418Q49 461 36 495T22 563Q22 628 66 669T197 710Q269 710 299 696T329 658Q329 647 324 633T307
606Q298 613 272 621T213 629Q171 629 146 613T121 566Q121 540 132 519T164 470L268 347Q306 301 319 264T333 181Q333 130 317 87T262 17T153 -10Z" />
<glyph unicode="T" horiz-adv-x="375" d="M140 0V688Q140 688 142 689T158 691H214Q227 691 229 690T231 688V17Q231 9 227 6T204 1T140 0ZM9 614V682Q9 700 26 700H366V632Q366 622 363 618T349 614H9Z" />
<glyph unicode="U" horiz-adv-x="428" d="M219 -10Q159 -10 123 6T69 52T45 119T39 200V682Q39 691 43 694T66 699T133 700V197Q133 169 136 147T148 108T174 83T219 74Q242 74 263 79T296 90V682Q296 691 300 694T324 699T389 700V27Q371 15 325 3T219 -10Z" />
<glyph unicode="V" horiz-adv-x="420" d="M191 -7Q169 -7 157 9T138 52Q128 93 115 154T88 285T59 424T33 549T14 640T7 675Q4 689 6 694T27 700H103L175 333Q184 288 190 241T203 151T214 77Q217 109 222 151T234 240T249 333L313 674Q315 687 319 693T336 700H415L269
-2Q250 -4 234 -5T191 -7Z" />
<glyph unicode="W" horiz-adv-x="659" d="M449 -7Q429 -7 418 8T400 52L359 238Q353 267 348 307T337 391T328 471T322 532T320 555L291 642Q289 657 294 662T312 668H371L436 333Q445 287 450 245T458 167T465 97H472Q475 147 481 210T497 333L553 674Q555 687
559 693T576 700H654L527 -2Q510 -4 499 -5T478 -6T449 -7ZM167 -6Q149 -6 138 11T121 55Q113 97 102 158T77 289T51 427T29 551T13 641T7 675Q4 688 7 694T27 700H103L167 333Q175 287 180 245T189 166T196 97H203Q205 159 212 218T228 333L284 641Q286 655 289
661T307 668H346Q364 668 366 661T366 643L335 554Q335 554 333 531T327 471T318 391T307 308T297 238L252 -2Q230 -4 213 -5T167 -6Z" />
<glyph unicode="X" horiz-adv-x="423" d="M8 0L165 384L214 417Q214 417 220 443T239 509T265 589L299 685Q301 693 305 695T330 699T397 700L255 319L217 309Q217 309 209 281T187 212T156 129L107 12Q100 0 88 0H8ZM301 0L252 128Q237 170 224 211T202 281T193
309L162 341L35 684Q33 693 37 695T66 699T144 700L181 589Q194 548 205 509T223 443T230 417L263 399L411 14Q414 8 412 4T401 0H301Z" />
<glyph unicode="Y" horiz-adv-x="365" d="M212 229H158L6 686Q3 693 7 696T34 699T110 700L146 565Q152 543 159 514T173 454T183 400T188 361Q190 375 194 399T205 454T218 514T232 566L263 684Q265 692 270 695T295 699T361 700L212 229ZM140 0V350H231V18Q231
9 228 6T205 1T140 0Z" />
<glyph unicode="Z" horiz-adv-x="382" d="M30 0Q25 6 21 14T17 35Q17 45 19 54T25 75L254 619H77Q66 619 54 618T33 615V682Q33 700 51 700H350Q355 694 357 688T359 671Q359 651 350 630L117 81H298Q316 81 331 83T360 90V18Q360 10 357 5T342 0H30Z" />
<glyph unicode="[" horiz-adv-x="373" d="M110 -199V793Q110 806 113 811T131 819T180 821H365Q365 784 364 766T356 742T336 736H202V-114H364Q364 -156 363 -174T355 -195T335 -199H110Z" />
<glyph unicode="\" horiz-adv-x="340" d="M237 -30L12 740Q8 752 12 757T36 763T102 765L328 -8Q331 -18 327 -22T303 -28T237 -30Z" />
<glyph unicode="]" horiz-adv-x="373" d="M9 -200Q9 -163 10 -145T17 -121T37 -115H171V736H9Q9 779 11 797T19 818T38 822H264V-172Q264 -184 261 -190T243 -198T193 -200H9Z" />
<glyph unicode="^" horiz-adv-x="430" d="M86 206Q67 206 56 221T44 253L221 403L368 276Q377 269 380 262T384 247Q384 231 372 219T340 203L211 285L113 216Q102 210 97 208T86 206Z" />
<glyph unicode="_" horiz-adv-x="375" d="M12 -115Q12 -73 14 -55T30 -36H362Q362 -77 360 -96T345 -115H12Z" />
<glyph unicode="`" horiz-adv-x="273" d="M189 548Q179 553 159 566T116 595T75 625T49 648Q53 670 64 693T91 717Q95 717 109 706T145 677T187 638T224 599Q224 599 220 587T208 561T189 548Z" />
<glyph unicode="a" horiz-adv-x="349" d="M169 -10Q141 -10 116 -6T70 14T38 61T26 143Q26 195 36 227T65 277T106 301T153 308Q168 308 188 305T223 294Q223 294 223 307T223 338T223 370Q223 390 217 401T199 417T168 422Q133 422 98 416T40 400Q32 414 30 428T27
452Q27 460 30 469T39 482Q51 490 92 500T191 510Q257 510 286 483T315 388V337Q315 280 315 222T313 112T310 23Q288 10 252 0T169 -10ZM176 66Q190 66 202 70T220 80Q222 95 222 121T223 176T223 231Q215 236 204 238T183 240Q171 240 160 237T140 223T127 194T122
146Q122 122 125 107T136 82T153 70T176 66Z" />
<glyph unicode="b" horiz-adv-x="378" d="M160 -10Q120 -10 91 -2T43 20V693Q43 714 50 723T77 733T135 735V477Q153 493 177 501T234 510Q274 510 300 491T339 429T353 311Q353 225 342 167T310 74T264 21T212 -4T160 -10ZM173 71Q184 71 197 79T223 110T242
177T250 293Q250 344 244 373T225 415T192 428Q177 428 162 423T135 405V82Q140 77 149 74T173 71Z" />
<glyph unicode="c" horiz-adv-x="305" d="M176 -10Q139 -10 111 -1T65 36T37 111T27 239Q27 329 43 383T85 464T143 501T206 510Q242 510 265 497T289 463Q289 454 287 441T280 413Q268 419 250 424T212 429Q196 429 180 423T151 398T130 341T122 239Q122 190
126 157T141 106T166 79T204 71Q226 71 246 77T278 91Q283 76 285 65T287 42Q287 20 256 5T176 -10Z" />
<glyph unicode="d" horiz-adv-x="373" d="M189 -10Q157 -10 128 -3T76 29T40 102T27 230Q27 331 46 392T100 482T175 510Q197 510 214 505T242 491V694Q242 715 249 723T276 733T334 735V20Q309 9 273 0T189 -10ZM192 71Q206 71 219 74T242 85V421Q235 427 226
429T205 431Q191 431 178 425T153 398T136 341T129 241Q129 188 133 155T145 104T165 78T192 71Z" />
<glyph unicode="e" horiz-adv-x="355" d="M185 -10Q150 -10 121 0T71 35T38 106T26 225Q26 318 41 374T81 460T138 499T203 510Q265 510 298 471T331 349Q331 314 328 278T318 215Q285 208 245 205T167 200T105 199T81 199L83 273Q83 273 100 273T143 272T194
274T237 282Q240 295 241 310T242 340Q241 392 231 411T192 430Q176 430 163 420T141 387T126 326T121 229Q121 186 125 157T139 111T165 87T205 79Q234 79 262 87T316 109Q321 96 322 79T324 47Q324 30 305 17T255 -3T185 -10Z" />
<glyph unicode="f" horiz-adv-x="257" d="M78 0V423H12Q12 459 12 475T18 496T35 500H78V559Q78 617 93 653T133 707T188 731T248 738Q294 738 318 727T343 694Q343 683 341 669T333 644Q314 652 297 654T263 656Q244 656 227 653T197 641T177 614T169 568V500H253Q253
465 252 449T247 428T234 423H169V18Q169 16 167 8T151 0H78Z" />
<glyph unicode="g" horiz-adv-x="390" d="M179 -196Q112 -196 77 -180T30 -138T18 -86Q18 -51 38 -22T89 30T156 63L188 36Q170 28 153 13T124 -23T113 -64Q113 -79 119 -90T141 -107T188 -113Q236 -113 256 -89T277 -41Q277 -20 269 -8T236 10T164 20Q124 23
95 31T49 53T33 87Q34 103 43 120T71 156T116 193L171 175Q167 173 157 163T139 141T130 119Q130 106 161 102T238 90Q279 84 308 72T353 35T370 -29Q370 -74 350 -112T289 -173T179 -196ZM191 154Q131 154 97 177T49 239T35 326Q35 394 56 434T114 492T202 510Q215
510 231 507T261 498L278 458Q312 444 332 412T353 325Q353 272 337 234T285 175T191 154ZM196 223Q218 223 232 235T254 276T261 348Q261 400 246 422T199 444Q180 444 165 433T141 397T132 329Q132 294 137 270T155 235T196 223ZM351 423Q336 423 314 429T270
443T234 456T220 462L216 502H372Q375 495 378 484T381 458Q381 440 373 432T351 423Z" />
<glyph unicode="h" horiz-adv-x="374" d="M41 0V694Q41 715 48 723T75 733T132 735V472Q153 491 182 500T239 510Q281 510 302 495T331 451T339 379V18Q339 9 334 6T309 1T244 0V352Q244 382 236 404T195 426Q181 426 165 421T132 403V18Q132 9 129 6T106 1T41 0Z" />
<glyph unicode="i" horiz-adv-x="177" d="M42 0V459Q42 480 49 488T77 498T135 500V18Q135 9 131 6T108 1T42 0ZM342 561Q320 561 308 576T297 630Q297 660 309 678T348 696Q374 696 383 682T393 633Q392 599 380 580T342 561Z" />
<glyph unicode="j" horiz-adv-x="185" d="M7 -196Q-49 -196 -73 -182T-98 -141Q-98 -129 -95 -117T-85 -95Q-68 -103 -49 -108T-5 -113Q18 -113 30 -104T45 -75T49 -23V459Q49 480 56 488T84 498T141 500V-36Q141 -79 131 -115T91 -174T7 -196ZM347 561Q325 561
313 576T302 630Q302 660 314 678T353 696Q379 696 388 682T398 633Q397 599 385 580T347 561Z" />
<glyph unicode="k" horiz-adv-x="371" d="M42 0V694Q42 715 49 723T76 733T134 735V470Q157 488 189 499T252 510Q286 510 304 498T330 466T337 424Q337 394 329 369T309 325T285 293T262 271Q287 257 306 233T337 174T352 95Q353 77 353 57T350 16Q349 8 345
5T319 1T246 0Q250 33 250 62T247 116Q244 145 237 166T221 202T199 222T172 224Q164 223 155 219T140 211T134 207V18Q134 9 131 6T108 1T42 0ZM134 271Q164 284 187 301T222 340T235 392Q235 428 204 428Q186 428 168 418T134 387V271Z" />
<glyph unicode="l" horiz-adv-x="175" d="M42 0V694Q42 715 49 723T76 733T133 735V18Q133 9 129 6T106 1T42 0Z" />
<glyph unicode="m" horiz-adv-x="552" d="M42 0V477Q74 492 112 501T194 510Q253 510 281 483T316 404T324 282V18Q324 9 320 6T297 1T233 0V373Q233 395 231 407T220 425T191 431Q177 431 162 427T133 415V18Q133 9 129 6T105 1T42 0ZM233 0V431Q239 454 266
471T330 499T403 510Q453 510 477 494T508 447T515 371V18Q515 9 511 6T487 1T424 0V370Q424 402 416 415T381 429Q367 429 353 426T324 414V18Q324 9 321 6T299 1T233 0Z" />
<glyph unicode="n" horiz-adv-x="375" d="M41 0V476Q60 485 86 492T142 505T198 510Q251 510 281 498T326 456T340 378V18Q340 9 336 6T312 1T246 0V350Q246 395 237 413T195 431Q181 431 164 427T132 415V18Q132 9 128 6T105 1T41 0Z" />
<glyph unicode="o" horiz-adv-x="371" d="M182 -10Q143 -10 114 -1T64 36T35 114T25 250Q25 387 69 448T191 510Q244 510 278 489T329 411T346 253Q346 112 305 51T182 -10ZM185 67Q203 67 216 81T238 135T247 252Q247 329 241 368T222 420T188 433Q169 433 155
419T132 365T124 249Q124 189 128 152T139 97T158 73T185 67Z" />
<glyph unicode="p" horiz-adv-x="375" d="M86 -197Q62 -197 52 -189T42 -157V471Q72 489 110 499T188 510Q237 510 273 493T330 431T351 304Q351 223 343 168T321 77T288 23T250 -3T208 -10Q182 -10 164 -3T133 15V-190Q122 -193 110 -195T86 -197ZM178 71Q189
71 201 78T224 107T242 175T249 296Q249 351 242 380T221 420T183 431Q155 431 133 414V99Q142 85 153 78T178 71Z" />
<glyph unicode="q" horiz-adv-x="379" d="M285 -198Q275 -198 265 -197T246 -195V31Q234 11 212 1T158 -10Q134 -10 111 -2T69 30T38 99T27 217Q27 302 43 358T88 448T154 496T233 510Q267 510 292 503T339 480V-158Q339 -184 329 -190T285 -198ZM192 70Q209 70
223 81T246 115V418Q240 424 231 427T209 431Q184 431 167 412T140 347T130 220Q130 173 135 144T149 98T169 76T192 70Z" />
<glyph unicode="r" horiz-adv-x="258" d="M41 0V465Q69 485 104 497T178 510Q218 510 232 499T247 465Q247 457 245 442T237 412Q227 417 216 419T193 422Q179 422 164 417T135 402L134 18Q134 9 130 6T107 1T41 0Z" />
<glyph unicode="s" horiz-adv-x="336" d="M147 -10Q95 -10 61 2T26 43Q26 54 29 67T42 96Q63 84 87 78T137 72Q172 72 190 86T209 127Q209 144 202 161T174 198L81 284Q49 312 38 339T26 390Q26 425 43 452T96 494T191 510Q243 510 270 500T306 477T315 452Q315
428 296 406Q274 419 252 425T202 431Q170 431 152 420T134 388Q134 377 140 365T170 331L257 255Q288 223 300 196T313 131Q313 64 269 27T147 -10Z" />
<glyph unicode="t" horiz-adv-x="289" d="M179 -10Q136 -10 115 7T88 58T81 136V422H15Q15 457 16 473T21 495T35 500H81V650Q81 665 88 671T115 678T172 680V500H268Q268 465 267 449T263 427T250 422H172V137Q172 119 173 103T181 78T204 68Q221 68 233 71T261
82Q263 74 265 63T267 38Q267 18 253 8T219 -6T179 -10Z" />
<glyph unicode="u" horiz-adv-x="378" d="M189 -10Q130 -10 98 8T52 61T39 151V482Q39 491 43 494T67 499T134 500V144Q134 117 138 101T155 77T190 69Q202 69 218 72T247 86V482Q247 491 251 494T274 499T338 500V27Q311 12 271 1T189 -10Z" />
<glyph unicode="v" horiz-adv-x="339" d="M151 -6Q134 -6 126 8T112 44L16 472Q13 487 16 492T41 498T114 500L141 345Q148 309 154 266T164 185T171 122T174 97H176Q176 97 178 121T185 184T195 266T207 346L230 481Q232 490 236 494T260 499T326 500L216 -2Q203
-4 183 -5T151 -6Z" />
<glyph unicode="w" horiz-adv-x="536" d="M360 -6Q347 -6 333 6T313 46L300 113Q294 147 289 186T279 265T273 336T269 387T267 406L254 455Q253 464 258 476T273 488H318L356 273Q361 249 365 220T372 164T378 120T380 103H386Q389 135 392 177T401 263T413 345L435
481Q437 490 441 494T464 499T524 500Q524 500 519 473T504 401T485 303T463 196T443 97T427 25T419 -2Q419 -2 405 -4T360 -6ZM144 -6Q129 -6 120 8T106 43Q99 74 90 117T70 210T49 308T30 395T17 458T12 482Q11 491 16 494T43 499T113 500L139 345Q146 305 151
263T161 184T167 126T170 103H176Q178 120 181 149T189 211T198 274L228 468Q230 480 235 484T258 488H282Q294 488 292 482T285 469T279 455L277 408Q277 408 276 389T272 337T265 265T255 187T243 112L222 -2Q222 -2 209 -3T178 -5T144 -6Z" />
<glyph unicode="x" horiz-adv-x="400" d="M12 0L154 276L201 310Q201 310 209 331T230 381T254 437L279 484Q283 493 288 495T314 499T380 500L238 227L203 217Q203 217 197 201T181 161T160 109T138 59L115 17Q112 9 104 6T75 1T12 0ZM281 0L250 60Q239 82 227
108T205 159T189 200T182 216L161 229L30 485Q27 492 30 495T54 499T127 500L159 436Q171 412 183 383T204 332T212 310L245 291L383 20Q389 10 386 6T360 1T281 0Z" />
<glyph unicode="y" horiz-adv-x="351" d="M79 -193Q30 -193 12 -181T-7 -150Q-7 -138 -4 -124T6 -100Q16 -106 34 -110T71 -115Q93 -115 110 -94T136 -16L20 475Q17 488 19 493T42 499T109 500L155 283Q161 252 165 220T173 160T179 115T181 98Q181 98 182 115T187
159T195 219T204 284L240 474Q242 487 247 492T272 498T338 500L219 -26Q204 -89 186 -126T143 -178T79 -193Z" />
<glyph unicode="z" horiz-adv-x="323" d="M33 0Q33 0 25 11T17 45Q17 54 19 62T25 79L203 423H107Q83 423 61 422T25 418Q22 433 22 444T21 461Q21 481 28 490T50 500H297Q297 500 301 494T306 472Q306 466 304 455T295 428L124 84H201Q240 84 263 88T301 96Q302
89 303 77T304 56Q303 28 297 14T267 0H33Z" />
<glyph unicode="{" horiz-adv-x="273" d="M220 -149Q145 -149 115 -114T84 -14Q84 37 91 80T98 178Q98 217 85 233T44 255Q40 265 39 274T37 292Q37 323 55 336Q67 345 76 353T92 379T98 428Q98 481 91 532T84 625Q84 667 104 693T159 731T239 744Q247 731 251
716T256 687Q256 659 241 655Q219 654 205 644T184 618T177 578Q177 542 182 497T187 400Q187 352 173 331T135 300Q160 290 173 270T187 204Q187 154 182 111T177 29Q177 -6 185 -25T209 -53T249 -65Q251 -76 251 -84T252 -100Q252 -123 244 -136T220 -149Z" />
<glyph unicode="|" horiz-adv-x="312" d="M110 -200V790Q110 802 114 807T137 813T202 815V-178Q202 -189 198 -193T175 -199T110 -200Z" />
<glyph unicode="}" horiz-adv-x="273" d="M34 -149Q26 -137 22 -122T17 -93Q17 -65 33 -62Q55 -59 69 -50T90 -24T97 16Q97 53 92 98T87 194Q87 243 100 264T138 295Q114 305 101 325T87 390Q87 440 92 483T97 566Q97 601 89 620T65 647T25 660Q23 671 22 679T21
695Q21 716 29 730T54 744Q128 744 158 708T189 609Q189 558 182 514T175 416Q175 377 188 361T229 339Q233 329 235 320T237 302Q237 286 232 275T218 258Q207 250 197 241T181 215T175 165Q175 113 182 62T189 -31Q189 -73 169 -99T114 -137T34 -149Z" />
<glyph unicode="~" horiz-adv-x="400" d="M261 208Q235 208 218 214T189 228T165 243T134 249Q115 249 100 241T73 223T47 213Q33 212 23 227T10 269Q19 283 38 297T85 321T143 331Q168 331 184 325T211 311T236 297T269 291Q289 291 306 300T336 323Q357 336
373 319T392 272Q383 259 365 244T320 219T261 208Z" />
<glyph unicode="&#xa0;" horiz-adv-x="152" />
<glyph unicode="&#xa1;" horiz-adv-x="197" d="M38 -197L57 241Q59 261 67 270T94 281T149 283L165 -170Q166 -183 157 -188T120 -195T38 -197ZM104 383Q71 383 57 400T43 446Q43 471 59 489T104 507Q139 507 152 491T165 446Q165 421 149 402T104 383Z" />
<glyph unicode="&#xa2;" horiz-adv-x="412" d="M246 -10Q207 -10 176 -5T124 23T91 94T80 229Q80 320 95 375T137 459T195 499T258 510Q288 510 314 499T341 474Q341 473 341 462T338 435T332 409Q319 415 302 420T266 425Q249 425 233 419T202 395T179 338T171
234Q171 178 175 146T190 99T217 79T255 74Q274 74 295 80T330 94Q335 82 336 65T338 37Q338 27 325 16T291 -2T246 -10ZM180 -130V15H263V-96Q263 -118 243 -124T180 -130ZM205 494V583Q205 606 226 613T288 621V494H205Z" />
<glyph unicode="&#xa3;" horiz-adv-x="359" d="M85 0Q81 51 79 106T75 217T73 319Q73 396 84 448T116 533T166 580T235 595Q261 595 283 590T319 572T334 539Q334 524 332 513T323 484Q308 494 292 498T256 503Q236 503 220 496T191 470T172 418T165 333Q165 259
166 203T172 90L318 83Q322 72 323 61T325 42Q325 27 319 18T301 5T275 0H85ZM15 276Q15 318 17 336T33 355H288Q288 314 286 295T270 276H15Z" />
<glyph unicode="&#xa4;" horiz-adv-x="581" d="M292 47Q187 47 139 101T91 273Q91 394 139 449T296 505Q398 505 444 453T490 285Q490 162 443 105T292 47ZM66 -12Q37 18 26 33T23 57L138 173L181 103L66 -12ZM134 369L10 493Q40 523 55 535T79 537L176 440L134
369ZM503 1L404 99L450 166L571 45Q542 15 527 4T503 1ZM294 124Q349 124 375 163T402 286Q402 361 378 395T300 429Q239 429 211 391T182 268Q182 194 209 159T294 124ZM451 373L408 442L515 549Q544 520 556 505T559 481L451 373Z" />
<glyph unicode="&#xa5;" horiz-adv-x="412" d="M180 229L27 686Q25 693 29 696T55 699T131 700L166 565Q173 543 179 517T192 466T202 419T207 384Q209 397 213 418T223 465T236 517T250 566L284 684Q286 692 291 695T316 699T382 700L233 229H180ZM33 175Q33
216 39 233T68 250H180V175H33ZM161 0V350H252V18Q252 9 249 6T226 1T161 0ZM33 342Q33 383 39 400T68 417H163V342H33ZM233 175V250H380Q380 210 374 193T345 175H233ZM241 342V417H380Q380 377 374 360T345 342H241Z" />
<glyph unicode="&#xa6;" horiz-adv-x="228" d="M112 -198Q105 -198 92 -197T68 -193V189Q68 210 78 218T116 226Q126 226 137 225T159 219V-165Q159 -185 151 -191T112 -198ZM112 324Q105 324 92 325T68 329V707Q68 728 78 736T116 744Q126 744 137 742T159 737V357Q159
336 151 330T112 324Z" />
<glyph unicode="&#xa7;" horiz-adv-x="340" d="M206 191L183 273Q200 279 211 295T222 322Q222 339 215 353T195 384Q183 401 162 417T117 453T76 496Q57 521 50 541T42 584Q42 622 62 648T117 689T195 703Q243 703 268 689T300 660Q303 652 303 642Q303 627 299
613T286 585Q272 596 253 601T210 606Q179 606 163 595T146 565Q146 552 153 540T174 511Q185 498 203 480T241 442T274 403Q291 381 299 362T307 314Q307 294 297 270T265 224T206 191ZM144 -4Q95 -4 70 10T39 40Q36 44 36 49T35 58Q35 88 52 114Q68 104 86 99T127
93Q159 93 175 105T192 135Q192 148 186 159T164 188Q152 201 134 219T97 257T64 297Q48 318 40 338T31 385Q31 406 40 430T72 475T130 508L154 425Q136 420 126 405T116 378Q116 361 123 347T143 315Q156 298 177 282T222 247T262 204Q281 179 289 159T297 115Q297
77 277 51T221 10T144 -4Z" />
<glyph unicode="&#xa8;" horiz-adv-x="273" d="M72 564Q53 565 41 578T29 630Q30 658 41 675T78 693Q103 693 112 679T122 633Q121 600 109 582T72 564ZM195 564Q175 565 163 578T152 630Q152 658 164 675T201 693Q226 693 235 679T244 633Q243 600 231 582T195 564Z" />
<glyph unicode="&#xa9;" horiz-adv-x="474" d="M235 319Q185 319 148 332T85 371T47 439T34 541Q34 654 89 706T243 759Q311 759 354 739T418 671T440 544Q440 437 388 378T235 319ZM245 419Q215 419 196 426T168 458T159 532Q159 576 167 603T189 643T219 661T251
666Q266 666 280 661T295 649Q295 645 293 634T289 616Q282 618 274 620T256 622Q245 622 235 617T217 592T210 530Q210 499 214 485T227 467T250 463Q259 463 269 466T287 472Q291 465 292 455T294 440Q294 432 279 426T245 419ZM234 385Q271 385 302 400T352
450T371 544Q371 597 357 631T315 682T242 699Q180 699 141 665T102 542Q102 483 117 449T162 400T234 385Z" />
<glyph unicode="&#xaa;" horiz-adv-x="318" d="M150 288Q120 288 94 296T53 330T37 412Q37 458 50 485T88 524T143 536Q159 536 176 533T205 526V575Q205 599 197 610T175 626T146 630Q121 630 97 624T54 609Q46 620 44 641T50 674Q63 690 93 700T173 710Q206
710 230 699T267 665T281 606V317Q260 307 225 298T150 288ZM162 353Q174 353 186 356T205 363V464Q197 467 186 469T168 471Q151 471 138 467T118 451T110 410Q110 388 117 375T135 358T162 353Z" />
<glyph unicode="&#xab;" horiz-adv-x="415" d="M160 0Q160 0 150 15T123 56T88 111T52 169T25 219T14 252Q14 261 24 282T51 332T86 389T120 444T147 484T158 500Q176 500 188 489T206 466T213 454Q213 443 205 424T183 383T156 337T129 295T108 264T99 252Q99
252 107 241T129 210T157 168T185 123T206 82T215 52Q215 52 208 39T190 13T160 0ZM334 25Q334 25 324 39T297 75T262 124T228 176T201 221T190 251Q190 260 200 279T227 325T261 377T295 426T322 463T332 477Q350 477 361 467T379 445T385 434Q385 422 374 400T347
352T315 303T288 266T276 251Q276 251 287 237T315 201T348 154T376 108T387 75Q387 75 381 63T363 38T334 25Z" />
<glyph unicode="&#xac;" horiz-adv-x="400" d="M41 227Q34 248 34 269Q34 287 41 300T63 313H359V227H41ZM317 104Q299 104 286 111T273 132V313H359V111Q339 104 317 104Z" />
<glyph unicode="&#xad;" horiz-adv-x="273" d="M35 242Q35 284 37 303T52 322H239Q239 280 237 261T221 242H35Z" />
<glyph unicode="&#xae;" horiz-adv-x="474" d="M235 319Q185 319 148 332T85 371T47 439T34 541Q34 654 89 706T243 759Q311 759 354 739T418 671T440 544Q440 437 388 378T235 319ZM178 419V662Q178 662 179 665T186 668H208Q214 668 216 665T218 662V427Q218
421 212 420T178 419ZM270 419Q268 466 258 488T239 516T229 522Q229 522 229 525T232 530L253 541Q256 541 259 541T263 538Q263 538 274 530T298 498T314 428Q314 423 311 421T297 417Q293 417 285 417T270 419ZM234 385Q271 385 302 400T352 450T371 544Q371
597 357 631T315 682T242 699Q180 699 141 665T102 542Q102 483 117 449T162 400T234 385ZM232 552Q247 552 255 562T264 598Q264 614 258 623T233 633Q225 633 221 633T216 633V552Q216 552 219 552T226 552T232 552ZM191 514Q184 514 184 516T183 524V661Q183
662 183 665T188 668H227Q268 668 287 650T307 595Q307 554 284 534T228 514H191Z" />
<glyph unicode="&#xaf;" horiz-adv-x="273" d="M7 580Q2 592 1 602T0 621Q0 641 10 653T37 666H264Q269 656 271 646T273 627Q273 607 264 594T238 580H7Z" />
<glyph unicode="&#xb0;" horiz-adv-x="353" d="M174 549Q127 549 103 569T78 648Q78 700 105 724T181 748Q230 748 253 727T276 649Q276 598 250 574T174 549ZM176 605Q194 605 205 614T217 649Q217 671 208 680T181 690Q161 690 150 681T139 647Q139 625 148
615T176 605Z" />
<glyph unicode="&#xb1;" horiz-adv-x="413" d="M33 292Q33 334 35 353T51 372H383Q383 330 381 311T365 292H33ZM169 157V489Q169 503 188 505T248 507V175Q248 162 230 160T169 157ZM31 15Q31 57 33 76T49 95H381Q381 53 379 34T363 15H31Z" />
<glyph unicode="&#xb2;" horiz-adv-x="377" d="M43 289Q39 298 38 305T36 318Q36 331 39 343T49 364Q78 399 107 427T161 480T201 526T216 571Q216 583 212 593T195 610T158 617Q130 617 107 607T61 582Q52 602 49 613T46 637Q46 658 70 674T130 700T202 710Q251
710 278 697T317 661T328 605Q328 570 313 539T273 479T222 425T174 375H336Q341 351 341 335Q341 289 312 289H43Z" />
<glyph unicode="&#xb3;" horiz-adv-x="372" d="M158 279Q117 279 91 287T52 303Q38 314 38 338Q38 368 59 387Q74 378 97 371T153 363Q192 363 215 377T239 417Q239 437 226 449T187 465Q174 467 156 467T120 468Q118 471 114 486T110 509Q110 521 116 529T137
537Q168 537 196 534T243 525Q285 515 309 488T334 424Q334 374 311 342T247 294T158 279ZM256 505L171 525Q197 542 207 557T218 589Q218 599 213 608T195 623T160 629Q132 629 107 621T62 598Q46 615 45 638T54 673Q71 687 108 698T200 710Q242 710 268 699T307
667T320 621Q320 590 305 560T256 505Z" />
<glyph unicode="&#xb4;" horiz-adv-x="275" d="M85 556Q75 556 67 569T54 594T50 606Q66 626 87 646T129 684T165 713T183 724Q199 724 210 701T225 656Q218 648 200 634T158 603T115 574T85 556Z" />
<glyph unicode="&#xb5;" horiz-adv-x="385" d="M80 -196Q69 -196 59 -194T39 -190V466Q39 486 49 496T86 506Q95 506 108 505T131 500V132Q131 103 147 90T190 76Q211 76 226 79T253 89V465Q253 486 261 496T298 506Q307 506 320 505T344 500V24Q316 11 275 1T188
-10Q148 -10 131 11V-158Q131 -180 115 -188T80 -196Z" />
<glyph unicode="&#xb6;" horiz-adv-x="538" d="M305 -3Q289 -3 277 -1T258 4V204Q244 197 224 194T182 191Q152 191 125 202T76 238T42 307T30 419Q30 525 54 588T124 681T227 710Q265 710 297 702T349 682V30Q349 8 335 3T305 -3ZM206 263Q216 263 231 266T257
276V623Q252 626 242 629T214 632Q171 632 148 582T124 429Q124 360 136 325T167 277T206 263ZM451 -3Q444 -3 431 -3T407 2V654Q407 674 417 682T455 691Q465 691 476 689T499 683V29Q499 9 490 3T451 -3Z" />
<glyph unicode="&#xb7;" horiz-adv-x="225" d="M112 207Q77 207 64 223T51 268Q51 293 67 312T112 331Q146 331 159 314T173 268Q173 243 157 225T112 207Z" />
<glyph unicode="&#xb8;" horiz-adv-x="273" d="M126 -211Q102 -211 86 -205T69 -198Q69 -198 71 -188T76 -167T82 -153Q87 -148 99 -156T127 -165Q144 -165 151 -156T158 -131Q158 -113 151 -106T129 -98Q109 -98 98 -101T87 -104L106 2H154L143 -59Q143 -59 143
-58T159 -57Q179 -57 194 -72T209 -124Q209 -149 199 -169T170 -200T126 -211Z" />
<glyph unicode="&#xb9;" horiz-adv-x="371" d="M43 289Q40 302 39 312T38 328Q38 350 44 362T69 375H154V610L52 590Q47 600 44 611T41 633Q41 650 49 660T70 675Q94 684 124 692T180 705T220 710Q225 710 234 709T247 706V375H329Q331 364 332 354T334 335Q334
310 328 300T306 289H43Z" />
<glyph unicode="&#xba;" horiz-adv-x="334" d="M163 289Q121 289 92 307T48 370T32 499Q32 610 70 660T172 710Q216 710 245 693T288 630T302 501Q302 393 266 341T163 289ZM164 364Q193 364 209 393T225 498Q225 551 219 579T202 618T172 629Q143 629 126 601T109
495Q109 442 115 414T134 375T164 364Z" />
<glyph unicode="&#xbb;" horiz-adv-x="414" d="M254 0Q254 0 246 3T227 12T208 28T200 52Q200 63 208 81T229 122T257 168T285 209T306 240T315 252Q315 252 307 263T286 294T259 337T231 382T210 424T202 454Q202 466 210 474T228 488T247 497T256 500Q256 500
266 485T293 444T328 390T362 332T389 283T400 252Q400 242 390 220T363 169T328 112T293 57T265 16T254 0ZM77 22Q77 22 65 27T41 44T28 74Q28 87 39 108T67 154T99 201T127 236T138 250Q140 250 130 265T104 303T70 351T42 398T30 434Q30 450 42 460T66 475T79
480Q79 480 89 466T116 429T151 379T185 326T212 280T223 250Q223 241 213 221T186 174T151 122T116 73T88 36T77 22Z" />
<glyph unicode="&#xbc;" horiz-adv-x="948" d="M41 289Q37 302 37 312T36 328Q36 350 42 362T66 375H152V610L50 590Q44 600 42 611T39 633Q39 650 47 660T68 675Q91 684 121 692T178 705T217 710Q222 710 231 709T245 706V375H327Q329 364 330 354T331 335Q331
310 326 300T304 289H41ZM344 -10Q330 -10 312 -2T279 22L590 688Q593 697 600 703T622 710Q636 710 652 703T684 679L371 7Q369 1 363 -4T344 -10ZM814 -6Q797 -6 777 -1V68H611Q603 77 600 89T596 115Q596 129 602 148Q611 178 626 211T662 277T703 338T743 385Q763
408 783 414T824 421Q833 421 844 420T862 416V155H917Q921 147 923 137T925 113Q925 92 917 80T896 68H862V21Q862 -6 814 -6ZM679 149H780L784 319Q769 307 753 288T722 245T696 196T679 149Z" />
<glyph unicode="&#xbd;" horiz-adv-x="934" d="M41 289Q37 302 37 312T36 328Q36 350 42 362T66 375H152V610L50 590Q44 600 42 611T39 633Q39 650 47 660T68 675Q91 684 121 692T178 705T217 710Q222 710 231 709T245 706V375H327Q329 364 330 354T331 335Q331
310 326 300T304 289H41ZM344 -10Q330 -10 312 -2T279 22L590 688Q593 697 600 703T622 710Q636 710 652 703T684 679L371 7Q369 1 363 -4T344 -10ZM602 0Q599 9 598 16T596 29Q596 42 599 54T609 75Q638 110 667 138T721 191T761 237T776 282Q776 294 772 304T755
321T718 328Q689 328 666 318T621 293Q611 313 608 324T605 348Q605 369 629 385T690 411T762 421Q811 421 838 408T876 372T888 316Q888 281 872 250T832 190T781 136T734 86H895Q901 62 901 46Q901 0 871 0H602Z" />
<glyph unicode="&#xbe;" horiz-adv-x="948" d="M156 279Q115 279 89 287T50 303Q36 314 36 338Q36 368 57 387Q72 378 95 371T151 363Q190 363 213 377T237 417Q237 437 224 449T184 465Q172 467 154 467T118 468Q115 471 111 486T107 509Q107 521 113 529T135
537Q165 537 193 534T241 525Q283 515 307 488T331 424Q331 374 308 342T245 294T156 279ZM253 505L168 525Q195 542 205 557T216 589Q216 599 211 608T193 623T158 629Q129 629 105 621T60 598Q44 615 42 638T52 673Q68 687 105 698T197 710Q240 710 266 699T305
667T318 621Q318 590 302 560T253 505ZM344 -10Q330 -10 312 -2T279 22L590 688Q593 697 600 703T622 710Q636 710 652 703T684 679L371 7Q369 1 363 -4T344 -10ZM814 -6Q797 -6 777 -1V68H611Q603 77 600 89T596 115Q596 129 602 148Q611 178 626 211T662 277T703
338T743 385Q763 408 783 414T824 421Q833 421 844 420T862 416V155H917Q921 147 923 137T925 113Q925 92 917 80T896 68H862V21Q862 -6 814 -6ZM679 149H780L784 319Q769 307 753 288T722 245T696 196T679 149Z" />
<glyph unicode="&#xbf;" horiz-adv-x="308" d="M153 -196Q121 -196 95 -187T50 -160T23 -116T14 -57Q14 -11 25 23T54 83T90 134T123 183Q135 205 133 227T126 267T126 292Q132 299 146 301T178 303T209 301Q209 301 214 289T222 257T224 211T209 160Q192 129
176 104T145 58T122 14T113 -34Q113 -54 118 -67T134 -89T158 -100T188 -103Q222 -103 241 -94T266 -79Q273 -98 276 -115T280 -152Q280 -165 261 -174T212 -190T153 -196ZM167 382Q134 382 120 399T106 445Q106 470 122 488T167 506Q202 506 215 490T228 445Q228
420 212 401T167 382Z" />
<glyph unicode="&#xc0;" horiz-adv-x="437" d="M61 -2Q53 -2 37 -1T4 2L179 686Q182 703 214 703Q226 703 237 702T257 699L432 16Q434 7 427 3T392 -2Q383 -2 370 -2T338 0L251 380Q245 412 238 446T227 513T219 572Q217 546 212 513T200 446T187 380L104 16Q102
7 96 3T61 -2ZM110 171V254H345V171H110ZM279 748Q269 753 249 766T206 795T165 825T139 848Q143 870 154 893T181 917Q185 917 199 906T235 877T277 838T314 799Q314 799 310 787T298 761T279 748Z" />
<glyph unicode="&#xc1;" horiz-adv-x="437" d="M61 -2Q53 -2 37 -1T4 2L179 686Q182 703 214 703Q226 703 237 702T257 699L432 16Q434 7 427 3T392 -2Q383 -2 370 -2T338 0L251 380Q245 412 238 446T227 513T219 572Q217 546 212 513T200 446T187 380L104 16Q102
7 96 3T61 -2ZM110 171V254H345V171H110ZM174 756Q164 756 156 769T143 794T139 806Q155 826 176 846T218 884T254 913T272 924Q288 924 299 901T314 856Q307 848 289 834T247 803T204 774T174 756Z" />
<glyph unicode="&#xc2;" horiz-adv-x="437" d="M61 -2Q53 -2 37 -1T4 2L179 686Q182 703 214 703Q226 703 237 702T257 699L432 16Q434 7 427 3T392 -2Q383 -2 370 -2T338 0L251 380Q245 412 238 446T227 513T219 572Q217 546 212 513T200 446T187 380L104 16Q102
7 96 3T61 -2ZM110 171V254H345V171H110ZM284 757Q284 757 277 764T259 783T238 808T222 831Q222 831 214 821T194 795T171 769T152 758Q130 758 115 764T89 783L205 910Q213 913 223 913Q230 913 237 910T250 900Q250 900 265 885T299 849T333 808T348 781Q348
769 328 763T284 757Z" />
<glyph unicode="&#xc3;" horiz-adv-x="437" d="M61 -2Q53 -2 37 -1T4 2L179 686Q182 703 214 703Q226 703 237 702T257 699L432 16Q434 7 427 3T392 -2Q383 -2 370 -2T338 0L251 380Q245 412 238 446T227 513T219 572Q217 546 212 513T200 446T187 380L104 16Q102
7 96 3T61 -2ZM110 171V254H345V171H110ZM256 757Q236 757 226 764T208 779T193 795T171 803Q155 803 145 794T128 776T114 766Q102 766 92 777T76 800T70 812Q96 854 128 871T187 889Q203 889 213 882T231 866T248 850T273 843Q296 843 306 852T322 870T336 879Q346
879 352 867T363 841T367 828Q366 826 357 815T333 790T299 767T256 757Z" />
<glyph unicode="&#xc4;" horiz-adv-x="437" d="M61 -2Q53 -2 37 -1T4 2L179 686Q182 703 214 703Q226 703 237 702T257 699L432 16Q434 7 427 3T392 -2Q383 -2 370 -2T338 0L251 380Q245 412 238 446T227 513T219 572Q217 546 212 513T200 446T187 380L104 16Q102
7 96 3T61 -2ZM110 171V254H345V171H110ZM154 764Q135 765 123 778T111 830Q112 858 123 875T160 893Q185 893 194 879T204 833Q203 800 191 782T154 764ZM277 764Q257 765 245 778T234 830Q234 858 246 875T283 893Q308 893 317 879T326 833Q325 800 313 782T277
764Z" />
<glyph unicode="&#xc5;" horiz-adv-x="437" d="M61 -2Q53 -2 37 -1T4 2L179 686Q182 703 214 703Q226 703 237 702T257 699L432 16Q434 7 427 3T392 -2Q383 -2 370 -2T338 0L251 380Q245 412 238 446T227 513T219 572Q217 546 212 513T200 446T187 380L104 16Q102
7 96 3T61 -2ZM110 171V254H345V171H110ZM216 738Q169 738 145 759T120 837Q120 889 147 913T222 937Q271 937 294 916T318 839Q318 788 292 763T216 738ZM218 799Q235 799 245 807T255 838Q255 858 247 867T223 876Q204 876 194 867T184 836Q184 818 192 809T218
799Z" />
<glyph unicode="&#xc6;" horiz-adv-x="604" d="M74 -2Q66 -2 50 -1T17 2L296 684Q299 693 307 696T326 700H351Q349 680 340 642T317 557T289 463T259 377L117 16Q113 7 106 3T74 -2ZM124 171L159 254H357V171H124ZM330 0V682Q330 682 332 691T348 700H588Q588
663 587 646T583 624T571 618H421V82H583Q583 44 582 27T578 5T565 0H330ZM340 338V422H562Q562 370 560 354T546 338H340Z" />
<glyph unicode="&#xc7;" horiz-adv-x="335" d="M193 -10Q163 -10 137 -3T91 24T56 81T35 177T27 323Q27 424 38 493T70 605T116 671T170 702T224 710Q264 710 284 702T311 680T319 654Q319 638 315 623T305 598Q300 603 291 607T270 616T244 620Q226 620 209 614T175
589T148 539T130 455T123 329Q123 256 129 210T147 138T176 102T216 92Q243 92 266 99T303 117Q308 106 312 92T316 63Q316 42 301 26T258 0T193 -10ZM191 -211Q167 -211 151 -205T134 -198Q134 -198 136 -188T141 -167T147 -153Q152 -148 164 -156T192 -165Q209
-165 216 -156T223 -131Q223 -113 216 -106T194 -98Q174 -98 163 -101T152 -104L171 2H219L208 -59Q208 -59 208 -58T224 -57Q244 -57 259 -72T274 -124Q274 -149 264 -169T235 -200T191 -211Z" />
<glyph unicode="&#xc8;" horiz-adv-x="313" d="M40 0V682Q40 682 42 691T57 700H297Q297 663 297 646T293 624T280 618H131V82H292Q292 44 291 27T287 5T275 0H40ZM50 338V422H272Q272 370 270 354T255 338H50ZM225 748Q215 753 195 766T152 795T111 825T85 848Q89
870 100 893T127 917Q131 917 145 906T181 877T223 838T260 799Q260 799 256 787T244 761T225 748Z" />
<glyph unicode="&#xc9;" horiz-adv-x="313" d="M40 0V682Q40 682 42 691T57 700H297Q297 663 297 646T293 624T280 618H131V82H292Q292 44 291 27T287 5T275 0H40ZM50 338V422H272Q272 370 270 354T255 338H50ZM120 756Q110 756 102 769T89 794T85 806Q101 826
122 846T164 884T200 913T218 924Q234 924 245 901T260 856Q253 848 235 834T193 803T150 774T120 756Z" />
<glyph unicode="&#xca;" horiz-adv-x="313" d="M40 0V682Q40 682 42 691T57 700H297Q297 663 297 646T293 624T280 618H131V82H292Q292 44 291 27T287 5T275 0H40ZM50 338V422H272Q272 370 270 354T255 338H50ZM230 757Q230 757 223 764T205 783T184 808T168 831Q168
831 160 821T140 795T117 769T98 758Q76 758 61 764T35 783L151 910Q159 913 169 913Q176 913 183 910T196 900Q196 900 211 885T245 849T279 808T294 781Q294 769 274 763T230 757Z" />
<glyph unicode="&#xcb;" horiz-adv-x="313" d="M40 0V682Q40 682 42 691T57 700H297Q297 663 297 646T293 624T280 618H131V82H292Q292 44 291 27T287 5T275 0H40ZM50 338V422H272Q272 370 270 354T255 338H50ZM100 764Q81 765 69 778T57 830Q58 858 69 875T106
893Q131 893 140 879T150 833Q149 800 137 782T100 764ZM223 764Q203 765 191 778T180 830Q180 858 192 875T229 893Q254 893 263 879T272 833Q271 800 259 782T223 764Z" />
<glyph unicode="&#xcc;" horiz-adv-x="171" d="M39 0V659Q39 680 43 688T66 698T132 700V18Q132 9 128 6T105 1T39 0ZM146 748Q136 753 116 766T73 795T32 825T6 848Q10 870 21 893T48 917Q52 917 66 906T102 877T144 838T181 799Q181 799 177 787T165 761T146 748Z" />
<glyph unicode="&#xcd;" horiz-adv-x="171" d="M39 0V659Q39 680 43 688T66 698T132 700V18Q132 9 128 6T105 1T39 0ZM41 756Q31 756 23 769T10 794T6 806Q22 826 43 846T85 884T121 913T139 924Q155 924 166 901T181 856Q174 848 156 834T114 803T71 774T41 756Z" />
<glyph unicode="&#xce;" horiz-adv-x="171" d="M39 0V659Q39 680 43 688T66 698T132 700V18Q132 9 128 6T105 1T39 0ZM151 757Q151 757 144 764T126 783T105 808T89 831Q89 831 81 821T61 795T38 769T19 758Q-3 758 -18 764T-44 783L72 910Q80 913 90 913Q97 913
104 910T117 900Q117 900 132 885T166 849T200 808T215 781Q215 769 195 763T151 757Z" />
<glyph unicode="&#xcf;" horiz-adv-x="171" d="M39 0V659Q39 680 43 688T66 698T132 700V18Q132 9 128 6T105 1T39 0ZM21 764Q2 765 -10 778T-22 830Q-21 858 -10 875T27 893Q52 893 61 879T71 833Q70 800 58 782T21 764ZM144 764Q124 765 112 778T101 830Q101
858 113 875T150 893Q175 893 184 879T193 833Q192 800 180 782T144 764Z" />
<glyph unicode="&#xd0;" horiz-adv-x="378" d="M39 0V681Q39 690 45 695T66 700H164Q213 700 250 686T311 638T347 544T359 395Q359 284 347 209T310 88T250 21T166 0H39ZM2 325Q2 368 4 386T19 405H200Q200 363 198 344T183 325H2ZM131 88L168 87Q185 87 200
97T228 139T247 232T255 395Q255 464 249 507T233 574T206 607T168 616H131V88Z" />
<glyph unicode="&#xd1;" horiz-adv-x="439" d="M313 0L202 273Q195 291 185 321T164 387T142 459T123 525T109 573T104 591L51 646L57 700H127L237 432Q245 412 255 381T277 315T298 245T316 181T330 135T335 117L391 54L383 0H313ZM39 0V682Q39 700 57 700L130
682L117 548Q120 532 121 508T124 456T127 399T128 343T129 294T130 259V18Q130 9 126 6T104 1T39 0ZM383 0L309 18L321 171Q318 188 317 211T314 261T312 315T311 367T310 413T309 448V682Q309 691 313 694T336 699T400 700V18Q400 0 383 0ZM257 757Q237 757 227
764T209 779T194 795T172 803Q156 803 146 794T129 776T115 766Q103 766 93 777T77 800T71 812Q97 854 129 871T188 889Q204 889 214 882T232 866T249 850T274 843Q297 843 307 852T323 870T337 879Q347 879 353 867T364 841T368 828Q367 826 358 815T334 790T300
767T257 757Z" />
<glyph unicode="&#xd2;" horiz-adv-x="422" d="M207 -10Q158 -10 124 6T69 63T37 174T27 354Q27 488 48 565T111 676T218 710Q267 710 301 693T356 636T386 528T396 357Q396 218 376 138T315 24T207 -10ZM211 84Q244 84 262 111T288 198T296 355Q296 451 290 508T266
590T216 616Q185 616 166 589T139 499T130 332Q130 244 137 190T162 110T211 84ZM272 748Q262 753 242 766T199 795T158 825T132 848Q136 870 147 893T174 917Q178 917 192 906T228 877T270 838T307 799Q307 799 303 787T291 761T272 748Z" />
<glyph unicode="&#xd3;" horiz-adv-x="422" d="M207 -10Q158 -10 124 6T69 63T37 174T27 354Q27 488 48 565T111 676T218 710Q267 710 301 693T356 636T386 528T396 357Q396 218 376 138T315 24T207 -10ZM211 84Q244 84 262 111T288 198T296 355Q296 451 290 508T266
590T216 616Q185 616 166 589T139 499T130 332Q130 244 137 190T162 110T211 84ZM167 756Q157 756 149 769T136 794T132 806Q148 826 169 846T211 884T247 913T265 924Q281 924 292 901T307 856Q300 848 282 834T240 803T197 774T167 756Z" />
<glyph unicode="&#xd4;" horiz-adv-x="422" d="M207 -10Q158 -10 124 6T69 63T37 174T27 354Q27 488 48 565T111 676T218 710Q267 710 301 693T356 636T386 528T396 357Q396 218 376 138T315 24T207 -10ZM211 84Q244 84 262 111T288 198T296 355Q296 451 290 508T266
590T216 616Q185 616 166 589T139 499T130 332Q130 244 137 190T162 110T211 84ZM277 757Q277 757 270 764T252 783T231 808T215 831Q215 831 207 821T187 795T164 769T145 758Q123 758 108 764T82 783L198 910Q206 913 216 913Q223 913 230 910T243 900Q243 900
258 885T292 849T326 808T341 781Q341 769 321 763T277 757Z" />
<glyph unicode="&#xd5;" horiz-adv-x="422" d="M207 -10Q158 -10 124 6T69 63T37 174T27 354Q27 488 48 565T111 676T218 710Q267 710 301 693T356 636T386 528T396 357Q396 218 376 138T315 24T207 -10ZM211 84Q244 84 262 111T288 198T296 355Q296 451 290 508T266
590T216 616Q185 616 166 589T139 499T130 332Q130 244 137 190T162 110T211 84ZM249 757Q229 757 219 764T201 779T186 795T164 803Q148 803 138 794T121 776T107 766Q95 766 85 777T69 800T63 812Q89 854 121 871T180 889Q196 889 206 882T224 866T241 850T266
843Q289 843 299 852T315 870T329 879Q339 879 345 867T356 841T360 828Q359 826 350 815T326 790T292 767T249 757Z" />
<glyph unicode="&#xd6;" horiz-adv-x="422" d="M207 -10Q158 -10 124 6T69 63T37 174T27 354Q27 488 48 565T111 676T218 710Q267 710 301 693T356 636T386 528T396 357Q396 218 376 138T315 24T207 -10ZM211 84Q244 84 262 111T288 198T296 355Q296 451 290 508T266
590T216 616Q185 616 166 589T139 499T130 332Q130 244 137 190T162 110T211 84ZM147 764Q128 765 116 778T104 830Q105 858 116 875T153 893Q178 893 187 879T197 833Q196 800 184 782T147 764ZM270 764Q250 765 238 778T227 830Q227 858 239 875T276 893Q301
893 310 879T319 833Q318 800 306 782T270 764Z" />
<glyph unicode="&#xd7;" horiz-adv-x="412" d="M278 142L65 378Q94 407 109 419T133 422L346 186Q317 157 303 145T278 142ZM134 142Q124 133 109 145T65 186L278 422Q288 431 302 419T347 378L134 142Z" />
<glyph unicode="&#xd8;" horiz-adv-x="430" d="M219 710Q284 710 324 679T382 570T400 357Q400 218 380 138T319 24T211 -10Q162 -10 128 6T72 63T41 174T30 354Q30 488 50 565T113 676T219 710ZM219 616Q188 616 169 589T142 500T134 332Q134 244 139 190T160
110T208 84Q228 84 245 94T275 131T293 212T300 355Q300 451 294 508T270 590T219 616ZM60 133Q60 133 72 130T97 120T112 102Q112 97 107 80T93 42T78 5T70 -15Q56 -16 37 -9T14 12Q13 15 20 34T36 76T53 116T60 133ZM100 95L287 640Q287 640 298 638T321 629T335
612Q336 609 326 578T300 499T264 393T224 279T188 175T161 99T151 70Q151 70 139 72T115 80T100 95ZM372 540Q372 540 363 542T341 550T319 561T307 574Q307 574 311 587T323 620T338 661T352 698T362 719Q362 719 375 717T402 709T419 691Q420 688 416 671T404
632T390 589T377 554T372 540Z" />
<glyph unicode="&#xd9;" horiz-adv-x="428" d="M219 -10Q159 -10 123 6T69 52T45 119T39 200V682Q39 691 43 694T66 699T133 700V197Q133 169 136 147T148 108T174 83T219 74Q242 74 263 79T296 90V682Q296 691 300 694T324 699T389 700V27Q371 15 325 3T219 -10ZM275
748Q265 753 245 766T202 795T161 825T135 848Q139 870 150 893T177 917Q181 917 195 906T231 877T273 838T310 799Q310 799 306 787T294 761T275 748Z" />
<glyph unicode="&#xda;" horiz-adv-x="428" d="M219 -10Q159 -10 123 6T69 52T45 119T39 200V682Q39 691 43 694T66 699T133 700V197Q133 169 136 147T148 108T174 83T219 74Q242 74 263 79T296 90V682Q296 691 300 694T324 699T389 700V27Q371 15 325 3T219 -10ZM170
756Q160 756 152 769T139 794T135 806Q151 826 172 846T214 884T250 913T268 924Q284 924 295 901T310 856Q303 848 285 834T243 803T200 774T170 756Z" />
<glyph unicode="&#xdb;" horiz-adv-x="428" d="M219 -10Q159 -10 123 6T69 52T45 119T39 200V682Q39 691 43 694T66 699T133 700V197Q133 169 136 147T148 108T174 83T219 74Q242 74 263 79T296 90V682Q296 691 300 694T324 699T389 700V27Q371 15 325 3T219 -10ZM280
757Q280 757 273 764T255 783T234 808T218 831Q218 831 210 821T190 795T167 769T148 758Q126 758 111 764T85 783L201 910Q209 913 219 913Q226 913 233 910T246 900Q246 900 261 885T295 849T329 808T344 781Q344 769 324 763T280 757Z" />
<glyph unicode="&#xdc;" horiz-adv-x="428" d="M219 -10Q159 -10 123 6T69 52T45 119T39 200V682Q39 691 43 694T66 699T133 700V197Q133 169 136 147T148 108T174 83T219 74Q242 74 263 79T296 90V682Q296 691 300 694T324 699T389 700V27Q371 15 325 3T219 -10ZM150
764Q131 765 119 778T107 830Q108 858 119 875T156 893Q181 893 190 879T200 833Q199 800 187 782T150 764ZM273 764Q253 765 241 778T230 830Q230 858 242 875T279 893Q304 893 313 879T322 833Q321 800 309 782T273 764Z" />
<glyph unicode="&#xdd;" horiz-adv-x="365" d="M212 229H158L6 686Q3 693 7 696T34 699T110 700L146 565Q152 543 159 514T173 454T183 400T188 361Q190 375 194 399T205 454T218 514T232 566L263 684Q265 692 270 695T295 699T361 700L212 229ZM140 0V350H231V18Q231
9 228 6T205 1T140 0ZM138 756Q128 756 120 769T107 794T103 806Q119 826 140 846T182 884T218 913T236 924Q252 924 263 901T278 856Q271 848 253 834T211 803T168 774T138 756Z" />
<glyph unicode="&#xde;" horiz-adv-x="357" d="M39 0V677Q39 693 51 696T101 700H130V567H154Q217 567 259 548T321 485T342 367Q342 303 327 261T285 193T226 158T156 147H130V18Q130 9 126 6T102 1T39 0ZM166 231Q190 231 206 244T231 290T240 378Q240 412 234
436T213 474T172 488Q158 488 149 488T130 485V234Q135 234 144 233T166 231Z" />
<glyph unicode="&#xdf;" horiz-adv-x="462" d="M85 -10Q59 -10 47 -4T34 3Q34 3 40 23T47 82L44 550Q44 631 88 668T206 705Q261 705 299 693T362 660T398 614T409 560Q409 533 399 516T374 486T344 462T318 438T308 406Q308 387 323 368T359 328T403 279T440
218T455 139Q455 72 416 32T307 -9Q246 -9 217 6T187 37Q187 61 194 75T209 98Q214 94 233 84T285 73Q317 73 335 89T353 139Q353 168 338 194T302 244T259 292T223 343T208 401Q208 428 218 447T244 479T274 505T300 530T311 560Q311 577 300 590T267 611T212
620Q167 620 152 592T136 499L139 51Q139 19 129 5T85 -10Z" />
<glyph unicode="&#xe0;" horiz-adv-x="349" d="M169 -10Q141 -10 116 -6T70 14T38 61T26 143Q26 195 36 227T65 277T106 301T153 308Q168 308 188 305T223 294Q223 294 223 307T223 338T223 370Q223 390 217 401T199 417T168 422Q133 422 98 416T40 400Q32 414
30 428T27 452Q27 460 30 469T39 482Q51 490 92 500T191 510Q257 510 286 483T315 388V337Q315 280 315 222T313 112T310 23Q288 10 252 0T169 -10ZM176 66Q190 66 202 70T220 80Q222 95 222 121T223 176T223 231Q215 236 204 238T183 240Q171 240 160 237T140
223T127 194T122 146Q122 122 125 107T136 82T153 70T176 66ZM233 548Q223 553 203 566T160 595T119 625T93 648Q97 670 108 693T135 717Q139 717 153 706T189 677T231 638T268 599Q268 599 264 587T252 561T233 548Z" />
<glyph unicode="&#xe1;" horiz-adv-x="349" d="M169 -10Q141 -10 116 -6T70 14T38 61T26 143Q26 195 36 227T65 277T106 301T153 308Q168 308 188 305T223 294Q223 294 223 307T223 338T223 370Q223 390 217 401T199 417T168 422Q133 422 98 416T40 400Q32 414
30 428T27 452Q27 460 30 469T39 482Q51 490 92 500T191 510Q257 510 286 483T315 388V337Q315 280 315 222T313 112T310 23Q288 10 252 0T169 -10ZM176 66Q190 66 202 70T220 80Q222 95 222 121T223 176T223 231Q215 236 204 238T183 240Q171 240 160 237T140
223T127 194T122 146Q122 122 125 107T136 82T153 70T176 66ZM128 556Q118 556 110 569T97 594T93 606Q109 626 130 646T172 684T208 713T226 724Q242 724 253 701T268 656Q261 648 243 634T201 603T158 574T128 556Z" />
<glyph unicode="&#xe2;" horiz-adv-x="349" d="M169 -10Q141 -10 116 -6T70 14T38 61T26 143Q26 195 36 227T65 277T106 301T153 308Q168 308 188 305T223 294Q223 294 223 307T223 338T223 370Q223 390 217 401T199 417T168 422Q133 422 98 416T40 400Q32 414
30 428T27 452Q27 460 30 469T39 482Q51 490 92 500T191 510Q257 510 286 483T315 388V337Q315 280 315 222T313 112T310 23Q288 10 252 0T169 -10ZM176 66Q190 66 202 70T220 80Q222 95 222 121T223 176T223 231Q215 236 204 238T183 240Q171 240 160 237T140
223T127 194T122 146Q122 122 125 107T136 82T153 70T176 66ZM238 557Q238 557 231 564T213 583T192 608T176 631Q176 631 168 621T148 595T125 569T106 558Q84 558 69 564T43 583L159 710Q167 713 177 713Q184 713 191 710T204 700Q204 700 219 685T253 649T287
608T302 581Q302 569 282 563T238 557Z" />
<glyph unicode="&#xe3;" horiz-adv-x="349" d="M169 -10Q141 -10 116 -6T70 14T38 61T26 143Q26 195 36 227T65 277T106 301T153 308Q168 308 188 305T223 294Q223 294 223 307T223 338T223 370Q223 390 217 401T199 417T168 422Q133 422 98 416T40 400Q32 414
30 428T27 452Q27 460 30 469T39 482Q51 490 92 500T191 510Q257 510 286 483T315 388V337Q315 280 315 222T313 112T310 23Q288 10 252 0T169 -10ZM176 66Q190 66 202 70T220 80Q222 95 222 121T223 176T223 231Q215 236 204 238T183 240Q171 240 160 237T140
223T127 194T122 146Q122 122 125 107T136 82T153 70T176 66ZM210 557Q190 557 180 564T162 579T147 595T125 603Q109 603 99 594T82 576T68 566Q56 566 46 577T30 600T24 612Q50 654 82 671T141 689Q157 689 167 682T185 666T202 650T227 643Q250 643 260 652T276
670T290 679Q300 679 306 667T317 641T321 628Q320 626 311 615T287 590T253 567T210 557Z" />
<glyph unicode="&#xe4;" horiz-adv-x="349" d="M169 -10Q141 -10 116 -6T70 14T38 61T26 143Q26 195 36 227T65 277T106 301T153 308Q168 308 188 305T223 294Q223 294 223 307T223 338T223 370Q223 390 217 401T199 417T168 422Q133 422 98 416T40 400Q32 414
30 428T27 452Q27 460 30 469T39 482Q51 490 92 500T191 510Q257 510 286 483T315 388V337Q315 280 315 222T313 112T310 23Q288 10 252 0T169 -10ZM176 66Q190 66 202 70T220 80Q222 95 222 121T223 176T223 231Q215 236 204 238T183 240Q171 240 160 237T140
223T127 194T122 146Q122 122 125 107T136 82T153 70T176 66ZM108 564Q89 565 77 578T65 630Q66 658 77 675T114 693Q139 693 148 679T158 633Q157 600 145 582T108 564ZM231 564Q211 565 199 578T188 630Q188 658 200 675T237 693Q262 693 271 679T280 633Q279
600 267 582T231 564Z" />
<glyph unicode="&#xe5;" horiz-adv-x="349" d="M169 -10Q141 -10 116 -6T70 14T38 61T26 143Q26 195 36 227T65 277T106 301T153 308Q168 308 188 305T223 294Q223 294 223 307T223 338T223 370Q223 390 217 401T199 417T168 422Q133 422 98 416T40 400Q32 414
30 428T27 452Q27 460 30 469T39 482Q51 490 92 500T191 510Q257 510 286 483T315 388V337Q315 280 315 222T313 112T310 23Q288 10 252 0T169 -10ZM176 66Q190 66 202 70T220 80Q222 95 222 121T223 176T223 231Q215 236 204 238T183 240Q171 240 160 237T140
223T127 194T122 146Q122 122 125 107T136 82T153 70T176 66ZM170 538Q123 538 99 559T74 637Q74 689 101 713T176 737Q225 737 248 716T272 639Q272 588 246 563T170 538ZM172 599Q189 599 199 607T209 638Q209 658 201 667T177 676Q158 676 148 667T138 636Q138
618 146 609T172 599Z" />
<glyph unicode="&#xe6;" horiz-adv-x="567" d="M387 -9Q352 -9 326 -1T281 31T254 102T244 225Q244 320 256 377T290 463T342 501T405 510Q467 510 500 471T533 350Q533 315 530 279T520 215Q468 208 425 209T350 214T301 223T283 228L285 301Q285 301 299 297T336
288T386 281T439 282Q442 295 443 311T444 341Q443 393 433 411T394 430Q379 430 366 420T343 387T328 326T323 229Q323 178 327 149T340 104T364 85T398 80Q434 80 463 87T518 110Q523 97 524 73T526 28Q526 21 507 13T457 -2T387 -9ZM175 66Q187 66 202 69T223
80V247Q214 251 203 253T183 255Q171 255 160 251T140 234T127 203T122 152Q122 114 128 96T146 72T175 66ZM169 -10Q141 -10 116 -6T70 14T38 62T26 151Q26 203 36 236T65 289T105 315T150 323Q167 323 188 320T223 309Q223 309 223 320T223 347T223 377Q223 397
215 408T194 424T162 429Q126 429 96 422T41 402Q33 416 31 433T28 457Q28 465 32 472T39 482Q53 492 91 501T195 510Q253 510 276 483T299 388V20Q278 7 247 -1T169 -10Z" />
<glyph unicode="&#xe7;" horiz-adv-x="305" d="M176 -10Q139 -10 111 -1T65 36T37 111T27 239Q27 329 43 383T85 464T143 501T206 510Q242 510 265 497T289 463Q289 454 287 441T280 413Q268 419 250 424T212 429Q196 429 180 423T151 398T130 341T122 239Q122
190 126 157T141 106T166 79T204 71Q226 71 246 77T278 91Q283 76 285 65T287 42Q287 20 256 5T176 -10ZM151 -211Q127 -211 111 -205T94 -198Q94 -198 96 -188T101 -167T107 -153Q112 -148 124 -156T152 -165Q169 -165 176 -156T183 -131Q183 -113 176 -106T154
-98Q134 -98 123 -101T112 -104L131 2H179L168 -59Q168 -59 168 -58T184 -57Q204 -57 219 -72T234 -124Q234 -149 224 -169T195 -200T151 -211Z" />
<glyph unicode="&#xe8;" horiz-adv-x="355" d="M185 -10Q150 -10 121 0T71 35T38 106T26 225Q26 318 41 374T81 460T138 499T203 510Q265 510 298 471T331 349Q331 314 328 278T318 215Q285 208 245 205T167 200T105 199T81 199L83 273Q83 273 100 273T143 272T194
274T237 282Q240 295 241 310T242 340Q241 392 231 411T192 430Q176 430 163 420T141 387T126 326T121 229Q121 186 125 157T139 111T165 87T205 79Q234 79 262 87T316 109Q321 96 322 79T324 47Q324 30 305 17T255 -3T185 -10ZM243 548Q233 553 213 566T170 595T129
625T103 648Q107 670 118 693T145 717Q149 717 163 706T199 677T241 638T278 599Q278 599 274 587T262 561T243 548Z" />
<glyph unicode="&#xe9;" horiz-adv-x="355" d="M185 -10Q150 -10 121 0T71 35T38 106T26 225Q26 318 41 374T81 460T138 499T203 510Q265 510 298 471T331 349Q331 314 328 278T318 215Q285 208 245 205T167 200T105 199T81 199L83 273Q83 273 100 273T143 272T194
274T237 282Q240 295 241 310T242 340Q241 392 231 411T192 430Q176 430 163 420T141 387T126 326T121 229Q121 186 125 157T139 111T165 87T205 79Q234 79 262 87T316 109Q321 96 322 79T324 47Q324 30 305 17T255 -3T185 -10ZM138 556Q128 556 120 569T107 594T103
606Q119 626 140 646T182 684T218 713T236 724Q252 724 263 701T278 656Q271 648 253 634T211 603T168 574T138 556Z" />
<glyph unicode="&#xea;" horiz-adv-x="355" d="M185 -10Q150 -10 121 0T71 35T38 106T26 225Q26 318 41 374T81 460T138 499T203 510Q265 510 298 471T331 349Q331 314 328 278T318 215Q285 208 245 205T167 200T105 199T81 199L83 273Q83 273 100 273T143 272T194
274T237 282Q240 295 241 310T242 340Q241 392 231 411T192 430Q176 430 163 420T141 387T126 326T121 229Q121 186 125 157T139 111T165 87T205 79Q234 79 262 87T316 109Q321 96 322 79T324 47Q324 30 305 17T255 -3T185 -10ZM249 557Q249 557 242 564T224 583T203
608T187 631Q187 631 179 621T159 595T136 569T117 558Q95 558 80 564T54 583L170 710Q178 713 188 713Q195 713 202 710T215 700Q215 700 230 685T264 649T298 608T313 581Q313 569 293 563T249 557Z" />
<glyph unicode="&#xeb;" horiz-adv-x="355" d="M185 -10Q150 -10 121 0T71 35T38 106T26 225Q26 318 41 374T81 460T138 499T203 510Q265 510 298 471T331 349Q331 314 328 278T318 215Q285 208 245 205T167 200T105 199T81 199L83 273Q83 273 100 273T143 272T194
274T237 282Q240 295 241 310T242 340Q241 392 231 411T192 430Q176 430 163 420T141 387T126 326T121 229Q121 186 125 157T139 111T165 87T205 79Q234 79 262 87T316 109Q321 96 322 79T324 47Q324 30 305 17T255 -3T185 -10ZM119 564Q100 565 88 578T76 630Q77
658 88 675T125 693Q150 693 159 679T169 633Q168 600 156 582T119 564ZM242 564Q222 565 210 578T199 630Q199 658 211 675T248 693Q273 693 282 679T291 633Q290 600 278 582T242 564Z" />
<glyph unicode="&#xec;" horiz-adv-x="177" d="M42 0V459Q42 480 49 488T77 498T135 500V18Q135 9 131 6T108 1T42 0ZM405 548Q395 553 375 566T332 595T291 625T265 648Q269 670 280 693T307 717Q311 717 325 706T361 677T403 638T440 599Q440 599 436 587T424
561T405 548Z" />
<glyph unicode="&#xed;" horiz-adv-x="177" d="M42 0V459Q42 480 49 488T77 498T135 500V18Q135 9 131 6T108 1T42 0ZM300 556Q290 556 282 569T269 594T265 606Q281 626 302 646T344 684T380 713T398 724Q414 724 425 701T440 656Q433 648 415 634T373 603T330
574T300 556Z" />
<glyph unicode="&#xee;" horiz-adv-x="177" d="M42 0V459Q42 480 49 488T77 498T135 500V18Q135 9 131 6T108 1T42 0ZM410 557Q410 557 403 564T385 583T364 608T348 631Q348 631 340 621T320 595T297 569T278 558Q256 558 241 564T215 583L331 710Q339 713 349
713Q356 713 363 710T376 700Q376 700 391 685T425 649T459 608T474 581Q474 569 454 563T410 557Z" />
<glyph unicode="&#xef;" horiz-adv-x="177" d="M42 0V459Q42 480 49 488T77 498T135 500V18Q135 9 131 6T108 1T42 0ZM280 564Q261 565 249 578T237 630Q238 658 249 675T286 693Q311 693 320 679T330 633Q329 600 317 582T280 564ZM403 564Q383 565 371 578T360
630Q360 658 372 675T409 693Q434 693 443 679T452 633Q451 600 439 582T403 564Z" />
<glyph unicode="&#xf0;" horiz-adv-x="400" d="M205 -10Q145 -10 105 15T46 99T26 258Q26 380 69 445T182 510Q225 510 251 493T296 439L300 342Q281 389 259 408T208 428Q177 428 158 402T129 334T120 241Q120 150 141 108T203 66Q231 66 246 82T269 129T279
198T282 283Q282 366 273 428T244 539T192 626T117 703Q128 722 146 733T183 745Q192 745 201 742T217 730Q294 665 334 558T375 289Q375 228 368 174T344 79T292 14T205 -10ZM122 556Q107 595 102 613T110 636L321 718Q336 679 341 661T333 638L122 556Z" />
<glyph unicode="&#xf1;" horiz-adv-x="375" d="M41 0V476Q60 485 86 492T142 505T198 510Q251 510 281 498T326 456T340 378V18Q340 9 336 6T312 1T246 0V350Q246 395 237 413T195 431Q181 431 164 427T132 415V18Q132 9 128 6T105 1T41 0ZM226 557Q206 557 196
564T178 579T163 595T141 603Q125 603 115 594T98 576T84 566Q72 566 62 577T46 600T40 612Q66 654 98 671T157 689Q173 689 183 682T201 666T218 650T243 643Q266 643 276 652T292 670T306 679Q316 679 322 667T333 641T337 628Q336 626 327 615T303 590T269 567T226
557Z" />
<glyph unicode="&#xf2;" horiz-adv-x="371" d="M182 -10Q143 -10 114 -1T64 36T35 114T25 250Q25 387 69 448T191 510Q244 510 278 489T329 411T346 253Q346 112 305 51T182 -10ZM185 67Q203 67 216 81T238 135T247 252Q247 329 241 368T222 420T188 433Q169 433
155 419T132 365T124 249Q124 189 128 152T139 97T158 73T185 67ZM247 548Q237 553 217 566T174 595T133 625T107 648Q111 670 122 693T149 717Q153 717 167 706T203 677T245 638T282 599Q282 599 278 587T266 561T247 548Z" />
<glyph unicode="&#xf3;" horiz-adv-x="371" d="M182 -10Q143 -10 114 -1T64 36T35 114T25 250Q25 387 69 448T191 510Q244 510 278 489T329 411T346 253Q346 112 305 51T182 -10ZM185 67Q203 67 216 81T238 135T247 252Q247 329 241 368T222 420T188 433Q169 433
155 419T132 365T124 249Q124 189 128 152T139 97T158 73T185 67ZM142 556Q132 556 124 569T111 594T107 606Q123 626 144 646T186 684T222 713T240 724Q256 724 267 701T282 656Q275 648 257 634T215 603T172 574T142 556Z" />
<glyph unicode="&#xf4;" horiz-adv-x="371" d="M182 -10Q143 -10 114 -1T64 36T35 114T25 250Q25 387 69 448T191 510Q244 510 278 489T329 411T346 253Q346 112 305 51T182 -10ZM185 67Q203 67 216 81T238 135T247 252Q247 329 241 368T222 420T188 433Q169 433
155 419T132 365T124 249Q124 189 128 152T139 97T158 73T185 67ZM252 557Q252 557 245 564T227 583T206 608T190 631Q190 631 182 621T162 595T139 569T120 558Q98 558 83 564T57 583L173 710Q181 713 191 713Q198 713 205 710T218 700Q218 700 233 685T267 649T301
608T316 581Q316 569 296 563T252 557Z" />
<glyph unicode="&#xf5;" horiz-adv-x="371" d="M182 -10Q143 -10 114 -1T64 36T35 114T25 250Q25 387 69 448T191 510Q244 510 278 489T329 411T346 253Q346 112 305 51T182 -10ZM185 67Q203 67 216 81T238 135T247 252Q247 329 241 368T222 420T188 433Q169 433
155 419T132 365T124 249Q124 189 128 152T139 97T158 73T185 67ZM224 557Q204 557 194 564T176 579T161 595T139 603Q123 603 113 594T96 576T82 566Q70 566 60 577T44 600T38 612Q64 654 96 671T155 689Q171 689 181 682T199 666T216 650T241 643Q264 643 274
652T290 670T304 679Q314 679 320 667T331 641T335 628Q334 626 325 615T301 590T267 567T224 557Z" />
<glyph unicode="&#xf6;" horiz-adv-x="371" d="M182 -10Q143 -10 114 -1T64 36T35 114T25 250Q25 387 69 448T191 510Q244 510 278 489T329 411T346 253Q346 112 305 51T182 -10ZM185 67Q203 67 216 81T238 135T247 252Q247 329 241 368T222 420T188 433Q169 433
155 419T132 365T124 249Q124 189 128 152T139 97T158 73T185 67ZM122 564Q103 565 91 578T79 630Q80 658 91 675T128 693Q153 693 162 679T172 633Q171 600 159 582T122 564ZM245 564Q225 565 213 578T202 630Q202 658 214 675T251 693Q276 693 285 679T294 633Q293
600 281 582T245 564Z" />
<glyph unicode="&#xf7;" horiz-adv-x="412" d="M31 242Q31 284 33 303T49 322H381Q381 280 379 261T363 242H31ZM205 73Q175 73 164 88T152 128Q152 151 166 167T205 183Q235 183 247 168T259 128Q259 106 245 90T205 73ZM205 376Q175 376 164 390T152 431Q152
453 166 469T205 486Q235 486 247 471T259 431Q259 409 245 393T205 376Z" />
<glyph unicode="&#xf8;" horiz-adv-x="407" d="M203 -10Q164 -10 134 -1T84 36T54 114T44 250Q44 387 88 448T210 510Q263 510 297 489T349 411T366 253Q366 112 325 51T203 -10ZM62 -27Q47 -25 30 -15T12 10Q12 13 20 29T40 66T61 100T70 115Q70 115 81 110T103
96T115 76Q115 70 108 55T91 22T73 -9T62 -27ZM204 67Q222 67 236 81T258 135T266 252Q266 329 260 367T241 418T207 431Q189 431 175 417T152 364T144 249Q144 189 148 152T159 97T178 73T204 67ZM134 68Q128 70 118 73T99 83T90 99L266 419Q266 419 277 417T298
408T309 391Q309 389 300 371T275 324T241 262T204 195T169 133T144 87T134 68ZM330 342Q330 342 322 346T301 357T281 372T272 387Q272 387 278 399T296 430T318 468T339 502T353 522Q353 522 366 518T391 505T404 485Q404 481 397 465T379 429T357 388T338 355T330
342Z" />
<glyph unicode="&#xf9;" horiz-adv-x="378" d="M189 -10Q130 -10 98 8T52 61T39 151V482Q39 491 43 494T67 499T134 500V144Q134 117 138 101T155 77T190 69Q202 69 218 72T247 86V482Q247 491 251 494T274 499T338 500V27Q311 12 271 1T189 -10ZM250 548Q240
553 220 566T177 595T136 625T110 648Q114 670 125 693T152 717Q156 717 170 706T206 677T248 638T285 599Q285 599 281 587T269 561T250 548Z" />
<glyph unicode="&#xfa;" horiz-adv-x="378" d="M189 -10Q130 -10 98 8T52 61T39 151V482Q39 491 43 494T67 499T134 500V144Q134 117 138 101T155 77T190 69Q202 69 218 72T247 86V482Q247 491 251 494T274 499T338 500V27Q311 12 271 1T189 -10ZM145 556Q135
556 127 569T114 594T110 606Q126 626 147 646T189 684T225 713T243 724Q259 724 270 701T285 656Q278 648 260 634T218 603T175 574T145 556Z" />
<glyph unicode="&#xfb;" horiz-adv-x="378" d="M189 -10Q130 -10 98 8T52 61T39 151V482Q39 491 43 494T67 499T134 500V144Q134 117 138 101T155 77T190 69Q202 69 218 72T247 86V482Q247 491 251 494T274 499T338 500V27Q311 12 271 1T189 -10ZM255 557Q255
557 248 564T230 583T209 608T193 631Q193 631 185 621T165 595T142 569T123 558Q101 558 86 564T60 583L176 710Q184 713 194 713Q201 713 208 710T221 700Q221 700 236 685T270 649T304 608T319 581Q319 569 299 563T255 557Z" />
<glyph unicode="&#xfc;" horiz-adv-x="378" d="M189 -10Q130 -10 98 8T52 61T39 151V482Q39 491 43 494T67 499T134 500V144Q134 117 138 101T155 77T190 69Q202 69 218 72T247 86V482Q247 491 251 494T274 499T338 500V27Q311 12 271 1T189 -10ZM125 564Q106
565 94 578T82 630Q83 658 94 675T131 693Q156 693 165 679T175 633Q174 600 162 582T125 564ZM248 564Q228 565 216 578T205 630Q205 658 217 675T254 693Q279 693 288 679T297 633Q296 600 284 582T248 564Z" />
<glyph unicode="&#xfd;" horiz-adv-x="351" d="M79 -193Q30 -193 12 -181T-7 -150Q-7 -138 -4 -124T6 -100Q16 -106 34 -110T71 -115Q93 -115 110 -94T136 -16L20 475Q17 488 19 493T42 499T109 500L155 283Q161 252 165 220T173 160T179 115T181 98Q181 98 182
115T187 159T195 219T204 284L240 474Q242 487 247 492T272 498T338 500L219 -26Q204 -89 186 -126T143 -178T79 -193ZM131 556Q121 556 113 569T100 594T96 606Q112 626 133 646T175 684T211 713T229 724Q245 724 256 701T271 656Q264 648 246 634T204 603T161
574T131 556Z" />
<glyph unicode="&#xfe;" horiz-adv-x="377" d="M79 -200Q55 -200 49 -192T42 -161V470Q72 489 110 499T188 509Q237 509 273 492T330 430T351 302Q351 223 342 168T317 77T282 23T243 -3T206 -10Q180 -10 163 -4T133 14V-193Q122 -196 109 -198T79 -200ZM176 68Q187
68 199 76T223 107T242 175T249 296Q249 355 242 384T220 421T183 430Q169 430 156 425T133 411V93Q141 78 152 73T176 68ZM42 233V694Q42 715 49 723T76 733T133 735V250L42 233Z" />
<glyph unicode="&#xff;" horiz-adv-x="351" d="M79 -193Q30 -193 12 -181T-7 -150Q-7 -138 -4 -124T6 -100Q16 -106 34 -110T71 -115Q93 -115 110 -94T136 -16L20 475Q17 488 19 493T42 499T109 500L155 283Q161 252 165 220T173 160T179 115T181 98Q181 98 182
115T187 159T195 219T204 284L240 474Q242 487 247 492T272 498T338 500L219 -26Q204 -89 186 -126T143 -178T79 -193ZM111 564Q92 565 80 578T68 630Q69 658 80 675T117 693Q142 693 151 679T161 633Q160 600 148 582T111 564ZM234 564Q214 565 202 578T191 630Q191
658 203 675T240 693Q265 693 274 679T283 633Q282 600 270 582T234 564Z" />
<glyph unicode="&#x2013;" horiz-adv-x="419" d="M35 242Q35 284 37 303T52 322H385Q385 280 383 261T367 242H35Z" />
<glyph unicode="&#x2014;" horiz-adv-x="700" d="M6 242Q6 284 8 303T24 322H694Q694 280 692 261T676 242H6Z" />
<glyph unicode="&#x2018;" horiz-adv-x="181" d="M92 573Q64 573 48 589T32 637Q32 666 41 694T65 745T92 782T113 796Q125 796 135 791T148 771Q138 752 133 737T126 709T122 682Q137 674 142 661T147 630Q147 606 132 590T92 573Z" />
<glyph unicode="&#x2019;" horiz-adv-x="181" d="M68 572Q56 572 47 577T33 597Q44 617 48 631T55 659T58 686Q45 694 39 707T33 739Q33 762 48 778T89 795Q118 795 133 779T149 731Q149 703 140 675T116 623T89 586T68 572Z" />
<glyph unicode="&#x201a;" horiz-adv-x="176" d="M68 -115Q56 -115 47 -110T33 -90Q44 -70 48 -55T55 -27T58 -1Q45 8 39 21T33 52Q33 76 48 92T89 108Q118 108 133 92T149 44Q149 16 140 -12T116 -64T89 -101T68 -115Z" />
<glyph unicode="&#x201c;" horiz-adv-x="336" d="M247 573Q218 573 203 589T187 637Q187 666 196 694T220 745T247 782T268 796Q280 796 290 791T303 771Q293 752 288 737T281 709T277 682Q292 674 297 661T302 630Q302 606 287 590T247 573ZM92 573Q64 573 48
589T32 637Q32 666 41 694T65 745T92 782T113 796Q125 796 135 791T148 771Q138 752 133 737T126 709T122 682Q137 674 142 661T147 630Q147 606 132 590T92 573Z" />
<glyph unicode="&#x201d;" horiz-adv-x="336" d="M223 572Q210 572 201 577T188 597Q199 617 203 631T210 659T213 686Q200 694 194 707T188 739Q188 762 203 778T243 795Q273 795 288 779T304 731Q304 703 294 675T271 623T244 586T223 572ZM68 572Q56 572 47
577T33 597Q44 617 48 631T55 659T58 686Q45 694 39 707T33 739Q33 762 48 778T89 795Q118 795 133 779T149 731Q149 703 140 675T116 623T89 586T68 572Z" />
<glyph unicode="&#x201e;" horiz-adv-x="332" d="M223 -115Q210 -115 201 -110T188 -90Q199 -70 203 -55T210 -27T213 -1Q200 8 194 21T188 52Q188 76 203 92T243 108Q273 108 288 92T304 44Q304 16 294 -12T271 -64T244 -101T223 -115ZM68 -115Q56 -115 47 -110T33
-90Q44 -70 48 -55T55 -27T58 -1Q45 8 39 21T33 52Q33 76 48 92T89 108Q118 108 133 92T149 44Q149 16 140 -12T116 -64T89 -101T68 -115Z" />
<glyph unicode="&#x2022;" horiz-adv-x="227" d="M116 204Q71 204 54 225T37 285Q37 318 58 342T116 367Q160 367 177 344T195 285Q195 251 174 228T116 204Z" />
<glyph unicode="&#x2039;" horiz-adv-x="243" d="M160 0Q160 0 150 15T123 56T88 110T52 168T25 218T14 250Q14 259 24 281T51 331T86 389T120 444T147 484T158 500Q176 500 188 489T206 466T213 454Q213 443 205 424T183 382T156 336T129 294T108 262T99 250Q99
250 107 239T129 209T157 168T185 123T206 82T215 52Q215 52 208 39T190 13T160 0Z" />
<glyph unicode="&#x203a;" horiz-adv-x="243" d="M83 0Q83 0 75 3T56 12T36 28T28 52Q28 63 36 81T58 122T86 167T114 208T135 238T143 250Q143 250 135 262T114 293T87 336T60 382T39 424T30 454Q30 466 38 474T57 488T76 497T84 500Q84 500 95 485T122 444T156
389T191 331T218 281T229 250Q229 241 218 219T191 168T156 111T121 56T94 16T83 0Z" />
</font>
</defs>
</svg>
