<svg width="20" height="20" viewBox="0 0 20 20" fill="none" xmlns="http://www.w3.org/2000/svg">
<path d="M9.41413 1.5646C7.39069 1.71499 5.54499 2.54703 4.09577 3.96303C2.18953 5.82241 1.27547 8.45523 1.61336 11.0997C2.03523 14.4064 4.36727 17.1603 7.57039 18.1349C10.047 18.8888 12.8028 18.4415 14.9024 16.9474C17.4825 15.1095 18.8243 12.0607 18.4259 8.93961C18.004 5.63295 15.672 2.87905 12.4688 1.90444C11.5157 1.61343 10.4044 1.49038 9.41413 1.5646ZM15.2618 4.59781C15.3575 4.65249 15.4161 4.74233 15.4356 4.86343C15.4454 4.91031 15.1505 6.71889 14.5216 10.4865C13.6466 15.7404 13.5938 16.0451 13.5411 16.129C13.4727 16.2404 13.3516 16.3087 13.2247 16.3087C13.1524 16.3087 12.7852 16.1681 11.3341 15.588L9.53327 14.8693L9.15827 15.4962C8.95319 15.84 8.75593 16.1525 8.72273 16.1896C8.64655 16.2716 8.56061 16.3087 8.44733 16.3087C8.32625 16.3087 8.24031 16.2697 8.16609 16.1798C8.13289 16.1369 7.80281 15.5763 7.43367 14.9318L6.76375 13.7599L5.29109 13.172C3.93563 12.629 3.81257 12.5763 3.75593 12.5099C3.64069 12.3771 3.63093 12.1505 3.73641 12.0333C3.79109 11.9747 14.8927 4.57045 14.961 4.54897C15.043 4.52163 15.168 4.54311 15.2618 4.59781Z" fill="white"/>
<path d="M10.8555 9.71095C8.98046 11.7227 7.44532 13.377 7.44336 13.3887C7.44336 13.3984 7.66796 13.8008 7.94336 14.2793L8.44726 15.1523L8.48828 15.0898C8.51172 15.0566 9.77344 13.0859 11.293 10.7129C12.8125 8.33789 14.1055 6.32031 14.166 6.22461C14.2266 6.13087 14.2734 6.05469 14.2695 6.05469C14.2676 6.05469 12.7305 7.70117 10.8555 9.71095Z" fill="white"/>
<path d="M9.06251 9.35595C6.75783 10.8911 4.87305 12.1548 4.87305 12.1626C4.87305 12.1704 5.36719 12.3774 5.97267 12.6196C6.57619 12.8618 7.08595 13.0747 7.10547 13.0903C7.13673 13.1177 7.30079 12.9458 9.32033 10.7837C10.5195 9.49853 11.8965 8.02393 12.3809 7.50439C12.8652 6.98681 13.2598 6.56299 13.2578 6.56299C13.2539 6.56493 11.3672 7.82079 9.06251 9.35595Z" fill="white"/>
<path d="M11.9786 10.4062L9.59192 14.1113L9.68372 14.1289C9.7345 14.1367 10.4825 14.4297 11.3458 14.7793C12.2091 15.127 12.9161 15.4102 12.9181 15.4063C12.9259 15.3965 14.3751 6.71093 14.3693 6.70703C14.3673 6.70507 13.2911 8.36913 11.9786 10.4062Z" fill="white"/>
</svg>
