<svg width="40" height="40" viewBox="0 0 40 40" fill="none" xmlns="http://www.w3.org/2000/svg">
<path d="M34.1421 5.85789C30.3646 2.08031 25.3422 0 20 0C14.6578 0 9.63539 2.08031 5.85789 5.85789C2.08031 9.63539 0 14.6578 0 20C0 25.3422 2.08031 30.3646 5.85789 34.1421C9.63539 37.9197 14.6578 40 20 40C25.3422 40 30.3646 37.9197 34.1421 34.1421C37.9197 30.3646 40 25.3422 40 20C40 14.6578 37.9197 9.63539 34.1421 5.85789ZM20 38.4375C9.83352 38.4375 1.5625 30.1665 1.5625 20C1.5625 9.83352 9.83352 1.5625 20 1.5625C30.1665 1.5625 38.4375 9.83352 38.4375 20C38.4375 30.1665 30.1665 38.4375 20 38.4375Z" fill="#FF0000"/>
<path d="M36.2255 19.8474C36.1602 19.5259 35.8956 19.2744 35.5703 19.2271C35.2441 19.1797 34.9137 19.35 34.7637 19.6431C34.6151 19.9334 34.6643 20.2953 34.8879 20.5338C35.1081 20.7687 35.4608 20.8439 35.7579 20.7209C36.0973 20.5804 36.2988 20.2082 36.2255 19.8474Z" fill="#FF0000"/>
<path d="M35.2275 22.7819C34.8072 22.6832 34.3869 22.9435 34.2881 23.3635C32.7207 30.025 26.8451 34.6774 19.9999 34.6774C11.9071 34.6774 5.323 28.0934 5.323 20.0005C5.323 11.9076 11.9071 5.32365 19.9999 5.32365C26.8511 5.32365 32.7278 9.98115 34.291 16.6498C34.3895 17.0699 34.8099 17.3305 35.2299 17.2322C35.6499 17.1337 35.9107 16.7133 35.8122 16.2933C34.9908 12.7887 32.9821 9.60795 30.1561 7.33717C27.2864 5.03115 23.6795 3.76123 19.9999 3.76123C11.0454 3.76115 3.7605 11.0461 3.7605 20.0005C3.7605 28.955 11.0454 36.2399 19.9999 36.2399C23.677 36.2399 27.282 34.9715 30.1509 32.6681C32.9757 30.4001 34.9852 27.2228 35.8091 23.7214C35.9079 23.3014 35.6475 22.8808 35.2275 22.7819Z" fill="#FF0000"/>
<path d="M14.416 28.8C15.2909 28.8 16.0001 28.1176 16.0001 27.2756V12.7243C16.0001 11.8823 15.2909 11.2 14.416 11.2H11.1842C10.3093 11.2 9.6001 11.8823 9.6001 12.7243C9.6001 13.5664 10.3093 14.2487 11.1842 14.2487H12.8322V27.2756C12.832 28.1176 13.5412 28.8 14.416 28.8Z" fill="#FF0000"/>
<path d="M27.089 13.6067C27.0037 12.4935 26.3921 11.5868 25.5306 11.2966C24.6774 11.0088 23.7672 11.3726 23.0952 12.2691C22.3404 13.277 18.8317 20.1593 17.7745 22.2447C17.535 22.7169 17.5426 23.2916 17.7946 23.7563C18.0466 24.2205 18.5054 24.5056 19.001 24.5056H24.2784C24.2719 25.4824 24.265 26.4196 24.2584 27.2626C24.2517 28.1045 24.8736 28.7926 25.6473 28.8H25.6596C26.4276 28.8 27.0537 28.1262 27.0603 27.2886C27.0644 26.774 27.0722 25.7596 27.0806 24.5054H27.3991C28.1728 24.5054 28.8001 23.8231 28.8001 22.9811C28.8001 22.139 28.1728 21.4568 27.3991 21.4568H27.0995C27.1185 17.9366 27.1288 14.128 27.089 13.6067ZM24.2969 21.4568H21.3812C22.4842 19.3085 23.5639 17.2437 24.3149 15.8578C24.3158 17.2982 24.3081 19.3394 24.2969 21.4568Z" fill="#FF0000"/>
</svg>
