<svg width="40" height="40" viewBox="0 0 40 40" fill="none" xmlns="http://www.w3.org/2000/svg">
<g clip-path="url(#clip0)">
<path d="M10.0748 25.2376C10.5097 25.2376 10.8622 25.5901 10.8622 26.025C10.8622 26.4599 10.5097 26.8124 10.0748 26.8124C9.63993 26.8124 9.28741 26.4599 9.28741 26.025C9.28741 25.5901 9.63993 25.2376 10.0748 25.2376ZM4.25197 4.70691H14.4882C14.923 4.70691 15.2756 4.35439 15.2756 3.91951C15.2756 3.48463 14.923 3.13211 14.4882 3.13211H4.25197C3.81717 3.13211 3.46457 3.48463 3.46457 3.91951C3.46457 4.35439 3.81717 4.70691 4.25197 4.70691ZM2.51969 12.6597H8.0315C8.4663 12.6597 8.8189 12.3071 8.8189 11.8723C8.8189 11.4374 8.4663 11.0849 8.0315 11.0849H2.51969C2.08488 11.0849 1.73228 11.4374 1.73228 11.8723C1.73228 12.3071 2.08488 12.6597 2.51969 12.6597ZM7.87402 20.4549C8.30882 20.4549 8.66142 20.1024 8.66142 19.6675C8.66142 19.2327 8.30882 18.8801 7.87402 18.8801H0.787402C0.352599 18.8801 0 19.2327 0 19.6675C0 20.1024 0.352599 20.4549 0.787402 20.4549H7.87402ZM40 10.2233V16.7957C40 18.4183 39.07 19.8152 37.5696 20.4331C36.2027 20.996 34.5924 20.8385 33.2791 19.5796L31.0855 17.386C30.578 17.9697 29.944 18.4487 29.2082 18.7911L24.5128 20.976L28.2188 24.682C29.8628 26.3401 29.6076 29.1976 27.3708 30.4344L17.9143 35.5109C16.1874 36.368 14.699 35.4384 14.1129 34.3683C13.3694 33.0107 13.8921 31.2995 15.2553 30.5663L22.3478 26.7509L19.2613 23.6644L5.18819 37.7376C3.92528 39.0005 2.17685 38.6744 1.2189 37.7376C0.291811 36.8309 -0.0392914 35.0257 1.2189 33.7675L7.0126 27.9731C7.75063 27.2355 8.8641 28.3497 8.12607 29.0872L2.33236 34.8809C1.79299 35.4203 1.90811 36.1999 2.33236 36.6242C2.7641 37.056 3.5511 37.148 4.07488 36.6242L15.7255 24.9736L13.9826 23.2307L13.1371 24.0762C12.3949 24.8185 11.2815 23.7051 12.0237 22.9628L24.344 10.6423L22.5499 8.84817L19.1899 12.2081C17.388 14.01 14.5629 13.827 12.949 12.2131C12.6541 11.9182 12.635 11.4134 12.949 11.0994L19.771 4.27754C21.3062 2.7425 23.8037 2.74258 25.3388 4.27754L26.9679 5.9066C27.0983 3.41384 29.1606 1.43274 31.6859 1.43274C34.2953 1.43274 36.4106 3.54809 36.4106 6.15746C36.4106 8.68282 34.4293 10.7453 31.9363 10.8755L34.8046 13.7449C34.8616 11.359 36.8172 9.43581 39.2127 9.43581C39.6474 9.43589 40 9.78841 40 10.2233ZM28.2414 12.3127C28.9327 13.0038 29.5728 12.434 29.694 12.3127C29.8152 12.1913 30.3852 11.5514 29.694 10.8601L24.2251 5.39124C23.3041 4.47014 21.8055 4.4703 20.8845 5.39124L14.6984 11.5772C15.6058 12.0907 17.0554 12.1154 18.0762 11.0946L21.993 7.17786C22.3006 6.8703 22.7994 6.87069 23.1066 7.17786L28.2414 12.3127ZM18.1936 22.5054C17.6502 21.7506 17.3382 20.8586 17.2957 19.9175L15.0961 22.1171L16.839 23.86L18.1936 22.5054ZM23.6687 22.359L19.3288 18.0191C18.4481 19.4669 18.9274 21.1637 19.8173 21.9933L21.4023 23.5783L23.6687 22.359ZM22.565 24.7409L24.2101 26.386C24.5593 26.744 24.5136 27.3384 24.0263 27.6363L16.0013 31.9532C15.4028 32.2751 15.178 33.0239 15.4999 33.6223C15.8219 34.2208 16.5707 34.4458 17.169 34.1238L26.626 29.047C27.7055 28.5042 28.1636 26.8735 27.1052 25.7957L24.8314 23.5218L22.565 24.7409ZM30.8625 13.3688C30.8443 13.3881 30.1067 14.2258 28.9433 14.2258C28.3291 14.2258 27.6906 13.989 27.1277 13.4262L25.4575 11.7559L20.375 16.8382L23.3274 19.7905L28.5439 17.3632C30.2032 16.5916 30.9791 14.9406 30.8625 13.3688ZM31.6858 9.30746C33.4254 9.30746 34.8357 7.89715 34.8357 6.15754C34.8357 4.41786 33.4254 3.00762 31.6858 3.00762C29.9461 3.00762 28.5358 4.41786 28.5358 6.15754C28.5358 7.89723 29.9462 9.30746 31.6858 9.30746ZM38.4252 11.1222C37.244 11.4651 36.378 12.5592 36.378 13.8523V15.6453C36.378 16.3478 35.5423 16.6881 35.0337 16.202L32.4509 13.6181C32.474 14.1938 32.3317 15.2073 31.9526 16.026L34.3927 18.4661C35.2154 19.289 36.2618 19.2701 36.9669 18.9782C37.6719 18.6862 38.4252 17.9595 38.4252 16.7958V11.1222Z" fill="#FF0000"/>
</g>
<defs>
<clipPath id="clip0">
<rect width="40" height="40" fill="white"/>
</clipPath>
</defs>
</svg>
