<svg width="40" height="40" viewBox="0 0 40 40" fill="none" xmlns="http://www.w3.org/2000/svg">
<g clip-path="url(#clip0)">
<path d="M22.6666 32H24.0025V33.3333H22.6666V32Z" fill="#FF0000"/>
<path d="M18 5.33333V3.33333C17.9977 1.49316 16.5068 0.00227865 14.6667 0H13.3333C11.4932 0.00227865 10.0023 1.49316 10 3.33333V5.33333C10 7.54232 11.791 9.33333 14 9.33333C16.209 9.33333 18 7.54232 18 5.33333ZM13.3333 1.33333H14.6667C15.7712 1.33333 16.6667 2.22884 16.6667 3.33333H15.4906C14.8301 3.33464 14.2262 2.96061 13.9333 2.36881C13.8079 2.15853 13.5814 2.02962 13.3366 2.02962C13.0921 2.02962 12.8652 2.15853 12.7399 2.36881L12.4421 2.96452C12.3294 3.19238 12.0967 3.33561 11.8428 3.33333H11.3333C11.3333 2.22884 12.2288 1.33333 13.3333 1.33333ZM14 8C12.5273 8 11.3333 6.80599 11.3333 5.33333V4.66667H11.8428C12.4668 4.66927 13.0557 4.37793 13.4326 3.88053C13.9974 4.389 14.7308 4.66894 15.4906 4.66667H16.6667V5.33333C16.6667 6.80599 15.4727 8 14 8Z" fill="#FF0000"/>
<path d="M16.6666 14H18.0025V15.3333H16.6666V14Z" fill="#FF0000"/>
<path d="M30 5.33333V3.33333C29.9977 1.49316 28.5068 0.00227865 26.6667 0H25.3333C23.4932 0.00227865 22.0023 1.49316 22 3.33333V5.33333C22 7.54232 23.791 9.33333 26 9.33333C28.209 9.33333 30 7.54232 30 5.33333ZM25.3333 1.33333H26.6667C27.7712 1.33333 28.6667 2.22884 28.6667 3.33333H27.4906C26.8301 3.33464 26.2262 2.96061 25.9333 2.36881C25.8079 2.15853 25.5814 2.02962 25.3366 2.02962C25.0921 2.02962 24.8652 2.15853 24.7399 2.36881L24.4421 2.96452C24.3294 3.19238 24.0967 3.33561 23.8428 3.33333H23.3333C23.3333 2.22884 24.2288 1.33333 25.3333 1.33333ZM26 8C24.5273 8 23.3333 6.80599 23.3333 5.33333V4.66667H23.8428C24.4668 4.66927 25.0557 4.37793 25.4326 3.88053C25.9974 4.389 26.7308 4.66894 27.4906 4.66667H28.6667V5.33333C28.6667 6.80599 27.4727 8 26 8Z" fill="#FF0000"/>
<path d="M28.6666 14H30.0025V15.3333H28.6666V14Z" fill="#FF0000"/>
<path d="M32.6666 27.3334H28.6666C27.4098 27.3344 26.207 27.8448 25.3333 28.7481C24.4596 27.8448 23.2568 27.3344 22 27.3334H18C16.7431 27.334 15.5403 27.8444 14.6666 28.7481C13.7929 27.8448 12.5901 27.3344 11.3333 27.3334H7.33329C4.75745 27.3366 2.66988 29.4242 2.66663 32V38.6667C2.66663 39.403 3.26363 40 3.99996 40H36C36.7363 40 37.3333 39.403 37.3333 38.6667V32C37.33 29.4242 35.2425 27.3366 32.6666 27.3334ZM31.6552 28.6667L30.6666 30.974L29.678 28.6667H31.6552ZM20.9886 28.6667L20 30.974L19.0114 28.6667H20.9886ZM17.5719 28.6941L19.3333 32.8034V38.6667H14.6666V32C14.664 31.3451 14.8577 30.7045 15.2226 30.1608C15.7552 29.3532 16.6129 28.8177 17.5719 28.6941ZM10.3219 28.6667L9.33329 30.974L8.34469 28.6667H10.3219ZM3.99996 32C4.00517 30.3269 5.25191 28.918 6.91207 28.7094L8.66663 32.8002V38.6667H3.99996V32ZM9.99996 38.6667V32.8002L11.7601 28.6941C12.5797 28.7985 13.331 29.2054 13.8665 29.8347C13.8486 29.8679 13.8365 29.9014 13.8199 29.9382C13.7861 30.0046 13.7565 30.0746 13.7265 30.1439C13.6718 30.2692 13.6227 30.3962 13.5794 30.5261C13.5546 30.5987 13.5312 30.6719 13.5127 30.7468C13.4746 30.8848 13.4459 31.0248 13.4192 31.1661C13.4072 31.2328 13.3919 31.2995 13.3828 31.3659C13.3522 31.5759 13.3356 31.7878 13.3333 32V38.6667H9.99996ZM20.6666 32.8002L22.428 28.6908C23.3886 28.8158 24.2474 29.3529 24.7806 30.1622C25.1442 30.7058 25.3369 31.3461 25.3333 32V38.6667H20.6666V32.8002ZM26.6666 32C26.6653 31.7878 26.65 31.5762 26.6207 31.3659C26.6113 31.2995 26.596 31.2328 26.5839 31.1661C26.5586 31.0261 26.5293 30.8874 26.4912 30.7513C26.47 30.6748 26.4453 30.5993 26.4199 30.5241C26.3785 30.3988 26.3307 30.2754 26.278 30.154C26.2461 30.0814 26.2155 30.0088 26.1793 29.9366C26.1634 29.904 26.1513 29.8702 26.1341 29.8366C26.6699 29.2084 27.4209 28.8028 28.2399 28.6986L30 32.8002V38.6667H26.6666V32ZM36 38.6667H31.3333V32.8002L33.0879 28.7067C34.749 28.9154 35.9964 30.3259 36 32V38.6667Z" fill="#FF0000"/>
<path d="M33.3334 32H34.6693V33.3333H33.3334V32Z" fill="#FF0000"/>
<path d="M13.3334 23.3333V21.9999H16V23.3333C16 25.5422 17.7911 27.3333 20 27.3333C22.209 27.3333 24 25.5422 24 23.3333V21.9999H26.6667V23.3333C26.6667 25.5422 28.4577 27.3333 30.6667 27.3333C32.8757 27.3333 34.6667 25.5422 34.6667 23.3333V21.3333C34.6651 20.0094 33.8799 18.8121 32.6667 18.2825V13.9999C32.6703 13.0839 32.3998 12.1874 31.8894 11.4267C31.0284 10.1184 29.5664 9.33163 28 9.33326H24C22.4359 9.33098 20.9756 10.1158 20.114 11.4211C20.0707 11.4879 20.0401 11.5546 20 11.6213C19.9613 11.5546 19.9333 11.4879 19.8894 11.4273C19.0284 10.1187 17.5664 9.33163 16 9.33326H12C10.4359 9.33098 8.97563 10.1158 8.11397 11.4211C7.60193 12.1835 7.33012 13.0816 7.33337 13.9999V18.2825C6.12016 18.8121 5.335 20.0094 5.33337 21.3333V23.3333C5.33337 25.5422 7.12439 27.3333 9.33337 27.3333C11.5424 27.3333 13.3334 25.5422 13.3334 23.3333ZM20.6667 19.3333C21.7712 19.3333 22.6667 20.2288 22.6667 21.3333H21.4906C20.8301 21.3346 20.2263 20.9605 19.9333 20.3687C19.808 20.1585 19.5814 20.0296 19.3366 20.0296C19.0922 20.0296 18.8653 20.1585 18.7399 20.3687L18.4421 20.9644C18.3301 21.1913 18.0987 21.3342 17.8461 21.3333H17.3334C17.3334 20.2288 18.2289 19.3333 19.3334 19.3333H20.6667ZM20 25.9999C18.5274 25.9999 17.3334 24.8059 17.3334 23.3333V22.6666H17.8428C18.4668 22.6692 19.0557 22.3779 19.4327 21.8805C19.9974 22.3889 20.7308 22.6689 21.4906 22.6666H22.6667V23.3333C22.6667 24.8059 21.4727 25.9999 20 25.9999ZM30.6667 25.9999C29.194 25.9999 28 24.8059 28 23.3333V22.6666H28.5095C29.1335 22.6692 29.7224 22.3779 30.0993 21.8805C30.6641 22.3889 31.3975 22.6689 32.1573 22.6666H33.3334V23.3333C33.3334 24.8059 32.1394 25.9999 30.6667 25.9999ZM33.3334 21.3333H32.1573C31.4968 21.3346 30.8929 20.9605 30.6 20.3687C30.4746 20.1585 30.2481 20.0296 30.0033 20.0296C29.7588 20.0296 29.5319 20.1585 29.4066 20.3687L29.1088 20.9644C28.9968 21.1913 28.7653 21.3342 28.5127 21.3333H28C28 20.2288 28.8955 19.3333 30 19.3333H31.3334C32.4379 19.3333 33.3334 20.2288 33.3334 21.3333ZM30.7806 12.1659C31.1436 12.7086 31.3363 13.3473 31.3334 13.9999V17.9999H30C28.4167 18.0019 27.0524 19.1155 26.7334 20.6666H26.6667V14.8001L28.4281 10.6907C29.3897 10.8163 30.2487 11.3551 30.7806 12.1659ZM26.9886 10.6666L26 12.9739L25.0114 10.6666H26.9886ZM21.2227 12.1607C21.7552 11.3531 22.613 10.8176 23.572 10.6939L25.3334 14.8033V20.6666H23.9333C23.6143 19.1155 22.25 18.0019 20.6667 17.9999V13.9999C20.6641 13.345 20.8578 12.7044 21.2227 12.1607ZM18.7806 12.1659C19.1436 12.7086 19.3363 13.3473 19.3334 13.9999V17.9999C17.75 18.0019 16.3858 19.1155 16.0668 20.6666H14.6667V14.8001L16.4281 10.6907C17.3897 10.8163 18.2487 11.3551 18.7806 12.1659ZM14.9886 10.6666L14 12.9739L13.0114 10.6666H14.9886ZM8.66671 13.9999C8.6641 13.345 8.85779 12.7044 9.2227 12.1607C9.75525 11.3531 10.613 10.8176 11.572 10.6939L13.3334 14.8033V20.6666H13.2666C12.9476 19.1155 11.5834 18.0019 10 17.9999H8.66671V13.9999ZM8.66671 19.3333H10C11.1045 19.3333 12 20.2288 12 21.3333H11.4906C11.238 21.3342 11.0065 21.1913 10.8946 20.9644L10.5967 20.3687C10.4841 20.1422 10.253 19.9993 10 19.9993C9.74711 19.9993 9.51599 20.1422 9.40336 20.3687C9.11007 20.9618 8.50427 21.3359 7.84281 21.3333H6.66671C6.66671 20.2288 7.56221 19.3333 8.66671 19.3333ZM9.33337 25.9999C7.86072 25.9999 6.66671 24.8059 6.66671 23.3333V22.6666H7.84281C8.60258 22.6689 9.33598 22.3889 9.90076 21.8805C10.2777 22.3779 10.8666 22.6692 11.4906 22.6666H12V23.3333C12 24.8059 10.806 25.9999 9.33337 25.9999Z" fill="#FF0000"/>
<path d="M12 32H13.3359V33.3333H12V32Z" fill="#FF0000"/>
</g>
<defs>
<clipPath id="clip0">
<rect width="40" height="40" fill="white"/>
</clipPath>
</defs>
</svg>
