<svg width="40" height="40" viewBox="0 0 40 40" fill="none" xmlns="http://www.w3.org/2000/svg">
<g clip-path="url(#clip0)">
<path d="M39.9229 21.9248C39.5637 18.1615 37.9499 14.6137 35.3784 11.9348C33.1809 9.64559 30.4912 8.1745 27.661 7.52038V5.45246C28.8169 5.15287 29.6762 4.06283 29.6762 2.76721C29.6762 1.24134 28.4846 0 27.0199 0H21.3948C19.9301 0 18.7385 1.24134 18.7385 2.76721C18.7385 4.06275 19.5977 5.15279 20.7536 5.45246V7.52616C17.9321 8.18304 15.2513 9.65211 13.06 11.9349C12.5804 12.4345 12.1382 12.9585 11.7335 13.5032C11.7139 13.5016 11.6942 13.5001 11.6742 13.5001H6.10689C5.67548 13.5001 5.32563 13.8644 5.32563 14.314C5.32563 14.7635 5.67548 15.1278 6.10689 15.1278H10.6704C10.0976 16.1269 9.6357 17.1761 9.28413 18.2561H0.781262C0.349849 18.2561 0 18.6205 0 19.07C0 19.5195 0.349849 19.8839 0.781262 19.8839H8.84264C8.61748 20.9135 8.48826 21.9614 8.4549 23.0122H5.00008C4.56867 23.0122 4.21882 23.3766 4.21882 23.8261C4.21882 24.2756 4.56867 24.64 5.00008 24.64H8.47982C8.54576 25.6935 8.70834 26.7414 8.96764 27.7683H3.90631C3.4749 27.7683 3.12505 28.1327 3.12505 28.5822C3.12505 29.0317 3.4749 29.3961 3.90631 29.3961H9.46624C10.2327 31.5082 11.4304 33.4878 13.06 35.1854C15.6339 37.8668 19.043 39.5485 22.6592 39.9206C23.1753 39.9737 23.6918 40 24.2076 40C27.2562 40 30.2661 39.0809 32.82 37.3483C33.1816 37.103 33.2839 36.5988 33.0484 36.2221C32.8129 35.8454 32.3289 35.7389 31.9674 35.9842C26.3769 39.7767 18.8898 38.9567 14.1648 34.0344C8.62084 28.2589 8.62084 18.8615 14.1648 13.086C19.7087 7.31056 28.7294 7.31056 34.2735 13.086C38.9922 18.0018 39.7837 25.7949 36.1553 31.6159C35.9202 31.9929 36.0231 32.497 36.3849 32.7418C36.747 32.9866 37.2307 32.8794 37.4657 32.5024C39.4043 29.3922 40.277 25.6357 39.9229 21.9248ZM20.301 2.76729C20.301 2.13897 20.7917 1.62785 21.3948 1.62785H27.0199C27.623 1.62785 28.1136 2.13897 28.1136 2.76729C28.1136 3.39561 27.623 3.90673 27.0199 3.90673H26.8797H21.5349H21.3948C20.7917 3.90673 20.301 3.39553 20.301 2.76729ZM22.3161 7.24634V5.5345H26.0985V7.24341C24.8425 7.0878 23.5719 7.08877 22.3161 7.24634Z" fill="#FF0000"/>
<path d="M34.8268 33.7957C34.6204 33.7957 34.4194 33.8827 34.2741 34.0341C34.1279 34.1855 34.0449 34.3955 34.0449 34.6095C34.0449 34.8236 34.1279 35.0335 34.2741 35.1849C34.4194 35.3371 34.6205 35.4234 34.8268 35.4234C35.0324 35.4234 35.2334 35.3371 35.3796 35.1849C35.525 35.0335 35.6087 34.8236 35.6087 34.6095C35.6087 34.3955 35.5251 34.1855 35.3796 34.0341C35.2334 33.8827 35.0324 33.7957 34.8268 33.7957Z" fill="#FF0000"/>
<path d="M24.2193 10.9343C17.5365 10.9343 12.0996 16.5982 12.0996 23.56C12.0996 30.5219 17.5365 36.1858 24.2193 36.1858C30.902 36.1858 36.3389 30.5219 36.3389 23.56C36.3389 16.5982 30.902 10.9343 24.2193 10.9343ZM24.2193 34.558C18.398 34.558 13.6621 29.6243 13.6621 23.56C13.6621 17.4958 18.398 12.5621 24.2193 12.5621C30.0405 12.5621 34.7764 17.4958 34.7764 23.56C34.7764 29.6243 30.0405 34.558 24.2193 34.558Z" fill="#FF0000"/>
<path d="M29.1612 17.2607L25.2916 21.2918C24.968 21.1251 24.604 21.031 24.2192 21.031C23.8344 21.031 23.4705 21.1251 23.1469 21.2918L21.415 19.4877C21.1099 19.1698 20.6153 19.1698 20.3101 19.4877C20.005 19.8055 20.005 20.3208 20.3101 20.6387L22.0419 22.4428C21.8818 22.7799 21.7915 23.1591 21.7915 23.5599C21.7915 24.9545 22.8805 26.089 24.2192 26.089C25.5579 26.089 26.6469 24.9545 26.6469 23.5599C26.6469 23.1591 26.5565 22.7799 26.3965 22.4428L30.1525 18.53L30.266 18.4117C30.5711 18.0939 30.5711 17.5785 30.266 17.2607C29.9609 16.9429 29.4664 16.9429 29.1612 17.2607ZM24.2192 24.4613C23.7422 24.4613 23.3541 24.057 23.3541 23.56C23.3541 23.0631 23.7422 22.6587 24.2192 22.6587C24.6963 22.6587 25.0844 23.0631 25.0844 23.56C25.0844 24.057 24.6963 24.4613 24.2192 24.4613Z" fill="#FF0000"/>
<path d="M32.5722 22.7561H31.8484C31.417 22.7561 31.0671 23.1205 31.0671 23.57C31.0671 24.0195 31.417 24.3838 31.8484 24.3838H32.5722C33.0036 24.3838 33.3535 24.0195 33.3535 23.57C33.3535 23.1205 33.0036 22.7561 32.5722 22.7561Z" fill="#FF0000"/>
<path d="M16.5897 22.7361H15.866C15.4346 22.7361 15.0847 23.1005 15.0847 23.55C15.0847 23.9995 15.4346 24.3638 15.866 24.3638H16.5897C17.0211 24.3638 17.371 23.9995 17.371 23.55C17.371 23.1005 17.0211 22.7361 16.5897 22.7361Z" fill="#FF0000"/>
<path d="M24.2294 16.4259C24.6611 16.4259 25.0113 16.0615 25.0113 15.612V14.8581C25.0113 14.4086 24.6611 14.0442 24.2294 14.0442C23.7976 14.0442 23.4475 14.4086 23.4475 14.8581V15.612C23.4475 16.0615 23.7976 16.4259 24.2294 16.4259Z" fill="#FF0000"/>
<path d="M24.2103 30.6942C23.7786 30.6942 23.4285 31.0586 23.4285 31.5081V32.2621C23.4285 32.7116 23.7786 33.0759 24.2103 33.0759C24.6421 33.0759 24.9922 32.7116 24.9922 32.2621V31.5081C24.9922 31.0586 24.6421 30.6942 24.2103 30.6942Z" fill="#FF0000"/>
<path d="M0.781878 27.7681C0.576244 27.7681 0.37452 27.8552 0.22909 28.0065C0.083661 28.1579 0 28.3679 0 28.5819C0 28.7968 0.0835828 29.006 0.22909 29.1573C0.374598 29.3087 0.576244 29.3958 0.781878 29.3958C0.987512 29.3958 1.18924 29.3087 1.33459 29.1573C1.48002 29.006 1.56376 28.796 1.56376 28.5819C1.56376 28.3679 1.4801 28.1579 1.33459 28.0065C1.18924 27.8552 0.987512 27.7681 0.781878 27.7681Z" fill="#FF0000"/>
</g>
<defs>
<clipPath id="clip0">
<rect width="40" height="40" fill="white"/>
</clipPath>
</defs>
</svg>
