<svg width="40" height="40" viewBox="0 0 40 40" fill="none" xmlns="http://www.w3.org/2000/svg">
<path d="M13.1274 11.875V9.375C13.1274 9.20924 13.0614 9.05027 12.944 8.93306C12.8266 8.81585 12.6673 8.75 12.5012 8.75C12.3351 8.75 12.1758 8.81585 12.0584 8.93306C11.941 9.05027 11.875 9.20924 11.875 9.375V11.875C11.875 12.0408 11.941 12.1997 12.0584 12.3169C12.1758 12.4341 12.3351 12.5 12.5012 12.5C12.6673 12.5 12.8266 12.4341 12.944 12.3169C13.0614 12.1997 13.1274 12.0408 13.1274 11.875Z" fill="#FF0000"/>
<path d="M26.8774 23.75V21.25C26.8774 21.0842 26.8114 20.9253 26.694 20.8081C26.5766 20.6908 26.4173 20.625 26.2512 20.625C26.0851 20.625 25.9258 20.6908 25.8084 20.8081C25.691 20.9253 25.625 21.0842 25.625 21.25V23.75C25.625 23.9158 25.691 24.0747 25.8084 24.1919C25.9258 24.3092 26.0851 24.375 26.2512 24.375C26.4173 24.375 26.5766 24.3092 26.694 24.1919C26.8114 24.0747 26.8774 23.9158 26.8774 23.75Z" fill="#FF0000"/>
<path d="M30.6274 23.75V21.25C30.6274 21.0842 30.5614 20.9253 30.444 20.8081C30.3266 20.6908 30.1673 20.625 30.0012 20.625C29.8351 20.625 29.6758 20.6908 29.5584 20.8081C29.441 20.9253 29.375 21.0842 29.375 21.25V23.75C29.375 23.9158 29.441 24.0747 29.5584 24.1919C29.6758 24.3092 29.8351 24.375 30.0012 24.375C30.1673 24.375 30.3266 24.3092 30.444 24.1919C30.5614 24.0747 30.6274 23.9158 30.6274 23.75Z" fill="#FF0000"/>
<path d="M39.3663 14.272L38.7413 10.522C38.7222 10.4051 38.6703 10.296 38.5917 10.2075C38.513 10.119 38.4108 10.0546 38.2969 10.022L30.6251 7.83197V5.62509H36.2501C36.4158 5.62509 36.5748 5.55924 36.692 5.44203C36.8092 5.32482 36.8751 5.16585 36.8751 5.00009V1.25009C36.8751 1.08433 36.8092 0.92536 36.692 0.808149C36.5748 0.690939 36.4158 0.625091 36.2501 0.625091H34.3751C34.2093 0.625091 34.0503 0.690939 33.9331 0.808149C33.8159 0.92536 33.7501 1.08433 33.7501 1.25009C33.7501 1.41585 33.8159 1.57482 33.9331 1.69203C34.0503 1.80924 34.2093 1.87509 34.3751 1.87509H35.6251V4.37509H30.6251V1.87509H31.8751C32.0408 1.87509 32.1998 1.80924 32.317 1.69203C32.4342 1.57482 32.5001 1.41585 32.5001 1.25009C32.5001 1.08433 32.4342 0.92536 32.317 0.808149C32.1998 0.690939 32.0408 0.625091 31.8751 0.625091H30.0001C29.8343 0.625091 29.6753 0.690939 29.5581 0.808149C29.4409 0.92536 29.3751 1.08433 29.3751 1.25009V7.47509L25.6251 6.40384V3.75009C25.6252 3.62517 25.5878 3.50308 25.5179 3.39959C25.4479 3.29609 25.3485 3.21594 25.2326 3.16947L22.1076 1.91947C21.9799 1.86836 21.8389 1.86081 21.7064 1.89798C21.574 1.93516 21.4575 2.01499 21.3751 2.12509L19.6876 4.37509H15.5219L14.9376 1.13884C14.9211 1.04754 14.8844 0.961049 14.8304 0.88566C14.7763 0.810271 14.7061 0.74787 14.6249 0.702988C14.5437 0.658105 14.4535 0.631866 14.3609 0.626176C14.2683 0.620486 14.1755 0.635488 14.0894 0.670091L4.76883 4.42009C4.64181 4.47068 4.53489 4.56153 4.46444 4.67871C4.394 4.79589 4.36392 4.93293 4.37883 5.06884L4.92695 10.0001H3.12508C3.00893 10 2.89507 10.0323 2.79626 10.0934C2.69746 10.1544 2.61762 10.2418 2.5657 10.3457L0.690701 14.0957C0.62032 14.2352 0.604703 14.3959 0.646926 14.5463C0.689148 14.6967 0.78615 14.8258 0.918826 14.9082L5.91883 18.0332C5.97757 18.0698 6.04199 18.0965 6.10945 18.112L7.35945 18.4001C7.43943 18.4185 7.52226 18.421 7.60321 18.4074C7.68416 18.3938 7.76163 18.3644 7.83122 18.3209C7.9008 18.2774 7.96114 18.2206 8.00877 18.1537C8.0564 18.0869 8.0904 18.0113 8.10883 17.9313C8.12725 17.8514 8.12974 17.7685 8.11616 17.6876C8.10257 17.6066 8.07318 17.5292 8.02965 17.4596C7.98612 17.39 7.92932 17.3297 7.86247 17.282C7.79563 17.2344 7.72006 17.2004 7.64008 17.182L6.49258 16.9176L2.06258 14.1463L3.51133 11.2501H5.62508C5.71296 11.2501 5.79985 11.2316 5.88008 11.1957C5.96032 11.1599 6.03209 11.1075 6.09072 11.042C6.14934 10.9766 6.1935 10.8995 6.22032 10.8158C6.24713 10.7321 6.25599 10.6437 6.24633 10.5563L5.67383 5.40322L13.8426 2.11634L14.3851 5.11134C14.4111 5.25546 14.487 5.38585 14.5994 5.47975C14.7118 5.57365 14.8536 5.62509 15.0001 5.62509H20.0001C20.0971 5.62509 20.1928 5.6025 20.2796 5.55911C20.3664 5.51572 20.4419 5.45271 20.5001 5.37509L22.0876 3.25822L24.3751 4.17322V6.87509C24.3751 7.01083 24.4194 7.14286 24.5011 7.25122C24.5829 7.35959 24.6977 7.43839 24.8282 7.47572L29.3751 8.77509V12.1876C29.3751 12.3534 29.4409 12.5123 29.5581 12.6295C29.6753 12.7467 29.8343 12.8126 30.0001 12.8126C30.1658 12.8126 30.3248 12.7467 30.442 12.6295C30.5592 12.5123 30.6251 12.3534 30.6251 12.1876V9.13259L37.5738 11.1182L38.0738 14.1038L33.3751 17.6251C33.2515 17.7179 33.1667 17.8532 33.137 18.0049C33.1074 18.1565 33.135 18.3138 33.2144 18.4463L34.9207 21.2895L34.2044 22.8657C34.1683 22.9407 34.1475 23.0222 34.1432 23.1053C34.139 23.1885 34.1514 23.2716 34.1797 23.3499C34.208 23.4282 34.2517 23.5 34.3082 23.5612C34.3647 23.6224 34.4328 23.6717 34.5086 23.7061C34.5844 23.7406 34.6663 23.7596 34.7495 23.762C34.8327 23.7644 34.9156 23.7501 34.9932 23.72C35.0708 23.6899 35.1417 23.6446 35.2016 23.5868C35.2615 23.529 35.3092 23.4598 35.3419 23.3832L36.1944 21.5082C36.2364 21.416 36.2553 21.315 36.2495 21.2138C36.2438 21.1127 36.2135 21.0144 36.1613 20.9276L34.5763 18.2857L39.1251 14.8751C39.2167 14.8063 39.2877 14.7137 39.3302 14.6073C39.3728 14.501 39.3852 14.385 39.3663 14.272Z" fill="#FF0000"/>
<path d="M33.8951 25.0556C33.8203 25.0217 33.7395 25.003 33.6574 25.0003C33.5753 24.9977 33.4935 25.0113 33.4166 25.0403C33.3397 25.0693 33.2694 25.1132 33.2095 25.1695C33.1496 25.2257 33.1014 25.2932 33.0676 25.3681L32.0276 27.655L25.3664 30.6812C25.2813 30.72 25.206 30.7772 25.146 30.8489C25.086 30.9206 25.0429 31.0048 25.0197 31.0953C24.9966 31.1859 24.994 31.2805 25.0123 31.3721C25.0305 31.4638 25.0691 31.5502 25.1251 31.625L26.6551 33.665L21.8326 37.9519L18.3558 35.4681L20.5201 32.2219C20.5905 32.1164 20.6271 31.9919 20.6251 31.8651C20.6231 31.7383 20.5826 31.6151 20.5089 31.5119L17.5345 27.3475L18.117 23.8531C18.139 23.7213 18.1182 23.5858 18.0575 23.4667C17.9969 23.3476 17.8997 23.251 17.7801 23.1912L15.5539 22.0781L14.9914 19.2525C14.9678 19.1346 14.9106 19.026 14.8268 18.9397C14.743 18.8535 14.6361 18.7932 14.5189 18.7662L10.1439 17.7569C9.98235 17.7196 9.81262 17.748 9.67203 17.8358C9.53143 17.9237 9.4315 18.0638 9.3942 18.2253C9.3569 18.3868 9.3853 18.5566 9.47315 18.6972C9.561 18.8378 9.7011 18.9377 9.86264 18.975L13.8445 19.8937L14.3876 22.625C14.4061 22.7185 14.4458 22.8065 14.5035 22.8823C14.5612 22.9582 14.6356 23.0198 14.7208 23.0625L16.8076 24.1056L16.2589 27.4C16.2453 27.481 16.2478 27.5638 16.2663 27.6438C16.2847 27.7238 16.3187 27.7994 16.3664 27.8662L19.2414 31.89L16.9808 35.2812C16.8907 35.4163 16.8566 35.5811 16.8859 35.7408C16.9152 35.9005 17.0055 36.0426 17.1376 36.1369L21.5126 39.2619C21.6279 39.3443 21.7677 39.3851 21.9092 39.3776C22.0507 39.3701 22.1855 39.3148 22.2914 39.2206L27.9164 34.2206C28.0344 34.1162 28.1086 33.971 28.1241 33.8142C28.1396 33.6574 28.0953 33.5005 28.0001 33.375L26.592 31.5L32.7589 28.6969C32.8976 28.6342 33.0088 28.5231 33.0714 28.3844L34.2076 25.8844C34.2417 25.8095 34.2607 25.7286 34.2634 25.6463C34.2661 25.5641 34.2526 25.4821 34.2235 25.4051C34.1945 25.3281 34.1505 25.2576 34.0942 25.1976C34.0378 25.1376 33.9702 25.0894 33.8951 25.0556Z" fill="#FF0000"/>
<path d="M20.001 14.375C20.1669 14.375 20.326 14.3092 20.4433 14.1919C20.5606 14.0747 20.6265 13.9158 20.6265 13.75C20.6265 13.5842 20.5606 13.4253 20.4433 13.3081C20.326 13.1908 20.1669 13.125 20.001 13.125H19.3755C19.2096 13.125 19.0505 13.1908 18.9332 13.3081C18.8159 13.4253 18.75 13.5842 18.75 13.75C18.75 13.9158 18.8159 14.0747 18.9332 14.1919C19.0505 14.3092 19.2096 14.375 19.3755 14.375H20.001Z" fill="#FF0000"/>
<path d="M22.501 14.375C22.6669 14.375 22.826 14.3092 22.9433 14.1919C23.0606 14.0747 23.1265 13.9158 23.1265 13.75C23.1265 13.5842 23.0606 13.4253 22.9433 13.3081C22.826 13.1908 22.6669 13.125 22.501 13.125H21.8755C21.7096 13.125 21.5505 13.1908 21.4332 13.3081C21.3159 13.4253 21.25 13.5842 21.25 13.75C21.25 13.9158 21.3159 14.0747 21.4332 14.1919C21.5505 14.3092 21.7096 14.375 21.8755 14.375H22.501Z" fill="#FF0000"/>
</svg>
