<svg width="40" height="40" viewBox="0 0 40 40" fill="none" xmlns="http://www.w3.org/2000/svg">
<g clip-path="url(#clip0)">
<path d="M39.2163 19.2317C39.2161 19.2317 39.2161 19.2317 39.2159 19.2317C38.7847 19.2317 38.435 19.5812 38.4347 20.0125C38.4322 24.933 36.5147 29.559 33.0353 33.0384C29.5534 36.5202 24.924 38.4378 19.9999 38.4378C15.0757 38.4378 10.4465 36.5202 6.96457 33.0383C3.4827 29.5565 1.56512 24.927 1.56512 20.0029C1.56512 15.0788 3.48262 10.4494 6.96457 6.96751C12.5522 1.37978 21.0657 -0.029206 28.1491 3.46126C28.5358 3.65189 29.0043 3.49275 29.195 3.10587C29.3858 2.71892 29.2266 2.25064 28.8397 2.05993C21.1558 -1.72639 11.921 -0.198035 5.85996 5.86282C2.08301 9.63978 0.00292969 14.6614 0.00292969 20.0029C0.00292969 25.3443 2.08301 30.366 5.85988 34.1431C9.63692 37.92 14.6586 40 20 40C25.3415 40 30.3632 37.9199 34.1401 34.1431C37.9143 30.3688 39.9944 25.3507 39.9971 20.0133C39.9972 19.5818 39.6478 19.232 39.2163 19.2317Z" fill="#FF0000"/>
<path d="M31.5255 3.65681L31.505 3.64251C31.1515 3.39509 30.6639 3.48103 30.4163 3.83454C30.1688 4.1879 30.2549 4.67494 30.6086 4.92236L30.6268 4.93525C30.7636 5.03119 30.9203 5.07728 31.0755 5.07728C31.3215 5.07728 31.5637 4.9615 31.7159 4.74509C31.9641 4.39197 31.8789 3.90486 31.5255 3.65681Z" fill="#FF0000"/>
<path d="M35.2972 19.2161C34.8655 19.2161 34.5153 19.5658 34.5153 19.9972L34.5153 20.045C34.5133 20.4764 34.8617 20.8277 35.2936 20.8296C35.2948 20.8296 35.2959 20.8297 35.2972 20.8297C35.7273 20.8297 36.077 20.4822 36.0789 20.0519L36.079 19.9972C36.079 19.5658 35.7289 19.2161 35.2972 19.2161Z" fill="#FF0000"/>
<path d="M35.129 22.4018C34.707 22.3127 34.2926 22.5832 34.2037 23.0054C32.7987 29.681 26.8194 34.5263 19.9863 34.5263C11.9749 34.5263 5.45716 28.0086 5.45716 19.9972C5.45716 14.8087 8.19107 10.0954 12.5644 7.50208C12.5136 7.82997 12.677 8.16685 12.9903 8.32162C13.1016 8.37662 13.2197 8.40271 13.3358 8.40271C13.6236 8.40271 13.9004 8.24294 14.0367 7.96747L14.902 6.21638C15.0932 5.82966 14.9346 5.36123 14.5479 5.17005L12.7967 4.30466C12.4098 4.11349 11.9415 4.27216 11.7503 4.65888C11.5591 5.0456 11.7177 5.51404 12.1044 5.70521L12.3519 5.82748C7.16787 8.61646 3.8949 14.0225 3.8949 19.997C3.8949 28.8698 11.1134 36.0884 19.9863 36.0884C23.7 36.0884 27.3233 34.7931 30.1889 32.4411C33.0151 30.1215 34.9838 26.8847 35.7326 23.327C35.8213 22.905 35.5511 22.4907 35.129 22.4018Z" fill="#FF0000"/>
<path d="M20 17.5033C18.8946 17.5033 17.9549 18.225 17.626 19.2218H11.1731C10.7418 19.2218 10.392 19.5715 10.392 20.003C10.392 20.4343 10.7417 20.7841 11.1731 20.7841H17.626C17.8738 21.535 18.468 22.1292 19.2189 22.377V30.9054C19.2189 31.3367 19.5686 31.6866 20 31.6866C20.4313 31.6866 20.7811 31.3368 20.7811 30.9054V22.3769C21.7779 22.0481 22.4996 21.1084 22.4996 20.0029C22.4996 18.6246 21.3783 17.5033 20 17.5033ZM20 20.9403C19.4832 20.9403 19.0627 20.5199 19.0627 20.003C19.0627 19.4861 19.4832 19.0656 20 19.0656C20.5169 19.0656 20.9374 19.4861 20.9374 20.003C20.9374 20.5199 20.5169 20.9403 20 20.9403Z" fill="#FF0000"/>
<path d="M23.5937 14.5986H22.0713C23.1568 13.5089 24.3749 11.933 24.3749 10.3474C24.3749 8.80128 23.3361 7.76245 21.79 7.76245C20.3647 7.76245 19.2051 8.92206 19.2051 10.3474C19.2051 10.7788 19.5548 11.1285 19.9862 11.1285C20.4176 11.1285 20.7674 10.7789 20.7674 10.3474C20.7674 9.78346 21.2262 9.32472 21.7901 9.32472C22.8127 9.32472 22.8127 10.0945 22.8127 10.3474C22.8126 11.9696 20.438 14.076 19.5235 14.7504C19.2516 14.9504 19.1388 15.3024 19.2441 15.6232C19.3494 15.9439 19.6487 16.1609 19.9863 16.1609H23.5939C24.0252 16.1609 24.3751 15.8112 24.3751 15.3797C24.3749 14.9483 24.0251 14.5986 23.5937 14.5986Z" fill="#FF0000"/>
<path d="M31.7057 11.1833H31.5843V8.54338C31.5843 8.11197 31.2346 7.76221 30.8031 7.76221C30.3717 7.76221 30.022 8.11189 30.022 8.54338V11.1833H27.9163V8.54338C27.9163 8.11197 27.5666 7.76221 27.1352 7.76221C26.7038 7.76221 26.354 8.11189 26.354 8.54338V11.9645C26.354 12.3959 26.7038 12.7457 27.1352 12.7457H30.022V15.3932C30.022 15.8246 30.3717 16.1743 30.8031 16.1743C31.2346 16.1743 31.5843 15.8246 31.5843 15.3932V12.7457H31.7057C32.1371 12.7457 32.4869 12.396 32.4869 11.9645C32.4869 11.533 32.1371 11.1833 31.7057 11.1833Z" fill="#FF0000"/>
<path d="M37.2171 11.2031C36.8934 11.2031 36.5843 11.2661 36.3006 11.3795V8.54338C36.3006 8.11197 35.9509 7.76221 35.5195 7.76221C35.088 7.76221 34.7383 8.11189 34.7383 8.54338V15.3795C34.7383 15.8109 35.088 16.1607 35.5195 16.1607C35.9509 16.1607 36.3006 15.811 36.3006 15.3795V14.4246V13.6818C36.3006 13.1764 36.7118 12.7653 37.2171 12.7653C37.7226 12.7653 38.1337 13.1765 38.1337 13.6818V15.3795C38.1337 15.8109 38.4834 16.1607 38.9148 16.1607C39.3462 16.1607 39.696 15.811 39.696 15.3795V13.6818C39.6959 12.315 38.5839 11.2031 37.2171 11.2031Z" fill="#FF0000"/>
</g>
<defs>
<clipPath id="clip0">
<rect width="40" height="40" fill="white"/>
</clipPath>
</defs>
</svg>
