<svg width="20" height="20" viewBox="0 0 20 20" fill="none" xmlns="http://www.w3.org/2000/svg">
<path d="M9.41413 1.56411C7.39069 1.7145 5.54499 2.54654 4.09577 3.96254C2.18953 5.82192 1.27547 8.45474 1.61336 11.0993C2.03524 14.4059 4.36725 17.1598 7.57039 18.1344C10.047 18.8883 12.8028 18.4411 14.9024 16.9469C17.4825 15.109 18.8243 12.0602 18.4259 8.93912C18.004 5.63246 15.672 2.87856 12.4688 1.90395C11.5157 1.61294 10.4044 1.48989 9.41413 1.56411ZM10.0606 6.81606C10.4942 6.85904 10.711 6.9274 10.8087 7.05434C10.8341 7.0895 10.8751 7.17544 10.8985 7.24576C10.9493 7.39418 10.9513 7.56412 10.92 8.83364C10.9005 9.62662 10.9122 9.87076 10.9766 10.0465C11.0528 10.2477 11.2208 10.3395 11.3692 10.2633C11.504 10.193 11.8184 9.84732 12.0235 9.54068C12.4981 8.83754 12.7872 8.29262 13.1348 7.45082C13.2052 7.28482 13.2989 7.17544 13.3966 7.15004C13.4356 7.13832 13.9884 7.12856 14.668 7.12662L15.8692 7.1227L15.9708 7.16568C16.1016 7.22426 16.1524 7.30044 16.1524 7.43912C16.1524 7.70278 15.877 8.2438 15.4044 8.9059C15.3399 8.9977 15.0958 9.32192 14.8634 9.62856C14.3497 10.3043 14.2384 10.4625 14.1602 10.6266C14.0626 10.8336 14.086 11.0036 14.2403 11.2047C14.2852 11.2614 14.5118 11.4899 14.7442 11.7125C15.3946 12.3356 15.6895 12.6637 15.9298 13.0231C16.1016 13.2829 16.168 13.4743 16.1407 13.6383C16.127 13.7282 16.0372 13.8356 15.9356 13.8883C15.8145 13.9489 15.629 13.9606 14.6075 13.9743L13.6407 13.9879L13.4845 13.9352C13.086 13.8024 12.8204 13.5817 12.2169 12.8825C11.8829 12.4958 11.6348 12.3063 11.463 12.3043C11.3048 12.3043 11.1036 12.5153 11.0177 12.777C10.9591 12.9528 10.9376 13.0875 10.92 13.3922C10.8985 13.7516 10.8555 13.8356 10.6348 13.9274C10.5548 13.9625 9.55867 13.9743 9.29499 13.9469C8.76569 13.8883 8.27547 13.7223 7.78913 13.4352C7.08405 13.0211 6.65241 12.65 6.18953 12.0602C5.38483 11.0329 4.83601 10.1579 4.16999 8.83754C3.91219 8.32388 3.60945 7.65982 3.56061 7.50162C3.51179 7.33754 3.58211 7.20278 3.74225 7.152C3.79695 7.13442 4.10163 7.12466 4.80475 7.1149L5.79109 7.10512L5.90633 7.1481C6.08797 7.2184 6.16413 7.30826 6.28719 7.60708C6.39265 7.85904 6.96101 8.99966 7.13875 9.31802C7.32039 9.64028 7.51375 9.90982 7.67975 10.07C7.88483 10.2711 7.97663 10.32 8.12117 10.3083C8.24421 10.2965 8.27741 10.2692 8.35359 10.1032C8.53913 9.70278 8.56843 8.34926 8.40241 7.81802C8.30671 7.51528 8.16413 7.40004 7.76961 7.31606C7.70125 7.30044 7.70125 7.277 7.76375 7.1852C7.91609 6.96646 8.18757 6.86098 8.70515 6.81802C8.98835 6.79458 9.82819 6.79262 10.0606 6.81606Z" fill="white"/>
</svg>
