<svg width="45" height="45" viewBox="0 0 45 45" fill="none" xmlns="http://www.w3.org/2000/svg">
<g clip-path="url(#clip0)">
<path d="M29.255 7.52836C25.378 7.5236 21.6377 8.96209 18.763 11.5635C15.449 7.31795 9.45906 6.27064 4.9017 9.14067C0.343986 12.0103 -1.30053 17.8646 1.09598 22.6879C3.49249 27.511 9.15167 29.7362 14.1913 27.8374C14.4039 28.5352 14.6667 29.2166 14.977 29.8767C11.9119 31.8945 10.551 35.6958 11.6386 39.2004C12.7261 42.7046 16.0001 45.0678 19.6686 44.9961C23.3375 44.9243 26.5164 42.4353 27.4663 38.8908C33.2657 39.559 38.9582 36.9612 42.2538 32.1426C45.549 27.324 45.9054 21.0767 43.1792 15.9145C40.453 10.7522 35.0928 7.52397 29.255 7.52836ZM1.52596 18.0204C1.51973 14.1525 3.99162 10.7157 7.66049 9.49087C11.3294 8.26608 15.3704 9.52892 17.6889 12.6247C15.003 15.5171 13.5125 19.3195 13.5169 23.2665C13.5191 24.309 13.6245 25.3483 13.8309 26.37C11.0637 27.4791 7.92579 27.1406 5.45866 25.4665C2.99152 23.7927 1.5179 21.0021 1.52596 18.0204ZM19.5124 43.5012C15.7872 43.5012 12.7675 40.4815 12.7675 36.7563C12.7675 33.0315 15.7872 30.0114 19.5124 30.0114C23.2376 30.0114 26.2573 33.0315 26.2573 36.7563C26.2533 40.4797 23.2358 43.4972 19.5124 43.5012ZM29.255 37.5057C28.7431 37.5021 28.2319 37.471 27.7232 37.4121C27.7404 37.1954 27.7562 36.9777 27.7562 36.7563C27.7562 33.9924 26.3704 31.4122 24.0664 29.8852C21.7622 28.3581 18.846 28.0877 16.3002 29.1646C15.9277 28.3559 15.6335 27.5135 15.422 26.6488C15.1526 25.5415 15.0161 24.406 15.0158 23.2665C15.0158 15.4025 21.3911 9.02723 29.255 9.02723C37.1193 9.02723 43.4943 15.4025 43.4943 23.2665C43.4943 31.1308 37.1193 37.5057 29.255 37.5057Z" fill="#FF0000"/>
<path d="M6.77188 33.7582C6.77188 33.3444 6.43631 33.0088 6.02244 33.0088C5.60857 33.0088 5.27301 33.3444 5.27301 33.7582C5.27301 35.0002 4.26632 36.0065 3.0247 36.0065C2.61083 36.0065 2.27527 36.3421 2.27527 36.756C2.27527 37.1698 2.61083 37.5054 3.0247 37.5054C4.26632 37.5054 5.27301 38.5121 5.27301 39.7537C5.27301 40.1676 5.60857 40.5032 6.02244 40.5032C6.43631 40.5032 6.77188 40.1676 6.77188 39.7537C6.77188 38.5121 7.77856 37.5054 9.02018 37.5054C9.43405 37.5054 9.76962 37.1698 9.76962 36.756C9.76962 36.3421 9.43405 36.0065 9.02018 36.0065C7.77856 36.0065 6.77188 35.0002 6.77188 33.7582ZM6.02244 37.5288C5.80434 37.2346 5.5438 36.9744 5.24995 36.756C5.5438 36.5379 5.80434 36.2773 6.02244 35.9835C6.24091 36.2773 6.50108 36.5379 6.7953 36.756C6.50108 36.9744 6.24091 37.2346 6.02244 37.5288Z" fill="#FF0000"/>
<path d="M36.7494 6.77909C36.7494 7.19296 37.085 7.52852 37.4989 7.52852C37.9128 7.52852 38.2483 7.19296 38.2483 6.77909C38.2483 5.53747 39.255 4.53079 40.4966 4.53079C40.9105 4.53079 41.246 4.19522 41.246 3.78135C41.246 3.36748 40.9105 3.03192 40.4966 3.03192C39.255 3.03192 38.2483 2.0256 38.2483 0.783614C38.2483 0.369742 37.9128 0.0341797 37.4989 0.0341797C37.085 0.0341797 36.7494 0.369742 36.7494 0.783614C36.7494 2.0256 35.7428 3.03192 34.5011 3.03192C34.0873 3.03192 33.7517 3.36748 33.7517 3.78135C33.7517 4.19522 34.0873 4.53079 34.5011 4.53079C35.7428 4.53079 36.7494 5.53747 36.7494 6.77909ZM37.4989 3.00886C37.7173 3.30271 37.9775 3.56326 38.2717 3.78135C37.9775 3.99982 37.7173 4.25999 37.4989 4.55421C37.2808 4.25999 37.0202 3.99982 36.7264 3.78135C37.0202 3.56326 37.2808 3.30271 37.4989 3.00886Z" fill="#FF0000"/>
<path d="M38.9976 23.2663C37.756 23.2663 36.7493 22.26 36.7493 21.018C36.7493 20.6041 36.4137 20.2686 35.9999 20.2686C35.586 20.2686 35.2504 20.6041 35.2504 21.018C35.2504 22.26 34.2437 23.2663 33.0021 23.2663C32.5882 23.2663 32.2527 23.6019 32.2527 24.0157C32.2527 24.4296 32.5882 24.7652 33.0021 24.7652C34.2437 24.7652 35.2504 25.7718 35.2504 27.0135C35.2504 27.4273 35.586 27.7629 35.9999 27.7629C36.4137 27.7629 36.7493 27.4273 36.7493 27.0135C36.7493 25.7718 37.756 24.7652 38.9976 24.7652C39.4115 24.7652 39.747 24.4296 39.747 24.0157C39.747 23.6019 39.4115 23.2663 38.9976 23.2663ZM35.9999 24.7886C35.7818 24.4944 35.5212 24.2342 35.2274 24.0157C35.5212 23.7976 35.7818 23.5371 35.9999 23.2432C36.2183 23.5371 36.4785 23.7976 36.7727 24.0157C36.4785 24.2342 36.2183 24.4944 35.9999 24.7886Z" fill="#FF0000"/>
<path d="M30.7539 17.2711C30.7539 16.8572 30.4183 16.5217 30.0044 16.5217C28.7628 16.5217 27.7561 15.5153 27.7561 14.2734C27.7561 13.8595 27.4206 13.5239 27.0067 13.5239C26.5928 13.5239 26.2573 13.8595 26.2573 14.2734C26.2573 15.5153 25.2506 16.5217 24.009 16.5217C23.5951 16.5217 23.2595 16.8572 23.2595 17.2711C23.2595 17.685 23.5951 18.0205 24.009 18.0205C25.2506 18.0205 26.2573 19.0272 26.2573 20.2688C26.2573 20.6827 26.5928 21.0183 27.0067 21.0183C27.4206 21.0183 27.7561 20.6827 27.7561 20.2688C27.7561 19.0272 28.7628 18.0205 30.0044 18.0205C30.4183 18.0205 30.7539 17.685 30.7539 17.2711ZM27.0067 18.0439C26.7886 17.7497 26.528 17.4896 26.2342 17.2711C26.528 17.053 26.7886 16.7925 27.0067 16.4986C27.2252 16.7925 27.4853 17.053 27.7795 17.2711C27.4853 17.4896 27.2252 17.7497 27.0067 18.0439Z" fill="#FF0000"/>
<path d="M9.02026 30.7603H10.5191V32.2591H9.02026V30.7603Z" fill="#FF0000"/>
<path d="M1.526 41.2529H3.02487V42.7518H1.526V41.2529Z" fill="#FF0000"/>
<path d="M44.2437 39.0042C44.2437 37.7625 43.237 36.7559 41.9954 36.7559C40.7538 36.7559 39.7471 37.7625 39.7471 39.0042C39.7471 40.2462 40.7538 41.2525 41.9954 41.2525C43.237 41.2525 44.2437 40.2462 44.2437 39.0042ZM41.2459 39.0042C41.2459 38.5903 41.5815 38.2547 41.9954 38.2547C42.4092 38.2547 42.7448 38.5903 42.7448 39.0042C42.7448 39.418 42.4092 39.7536 41.9954 39.7536C41.5815 39.7536 41.2459 39.418 41.2459 39.0042Z" fill="#FF0000"/>
<path d="M22.5101 5.27997C22.5101 3.62448 21.1679 2.28223 19.5124 2.28223C17.8569 2.28223 16.5146 3.62448 16.5146 5.27997C16.5146 6.93582 17.8569 8.2777 19.5124 8.2777C21.1679 8.2777 22.5101 6.93582 22.5101 5.27997ZM18.0135 5.27997C18.0135 4.45222 18.6846 3.7811 19.5124 3.7811C20.3401 3.7811 21.0112 4.45222 21.0112 5.27997C21.0112 6.10808 20.3401 6.77883 19.5124 6.77883C18.6846 6.77883 18.0135 6.10808 18.0135 5.27997Z" fill="#FF0000"/>
<path d="M27.0067 3.78076H28.5056V5.27963H27.0067V3.78076Z" fill="#FF0000"/>
<path d="M30.0045 31.5098H31.5034V33.0086H30.0045V31.5098Z" fill="#FF0000"/>
<path d="M34.501 41.2529H35.9999V42.7518H34.501V41.2529Z" fill="#FF0000"/>
<path d="M9.02026 19.519H10.5191V21.0179H9.02026V19.519Z" fill="#FF0000"/>
<path d="M3.02492 19.5868L4.52379 19.4518C4.52013 19.4159 4.22408 15.8492 6.19867 13.681C7.3316 12.5305 8.90732 11.9263 10.5193 12.0248V10.5259C8.48357 10.4183 6.50166 11.2018 5.08952 12.6725C2.67033 15.3226 3.01211 19.4145 3.02492 19.5868Z" fill="#FF0000"/>
<path d="M30.0045 10.5259V12.0247C30.3792 12.0247 39.1141 12.1847 40.505 22.616L41.9904 22.418C40.4216 10.6624 30.1088 10.5259 30.0045 10.5259Z" fill="#FF0000"/>
</g>
<defs>
<clipPath id="clip0">
<rect width="45" height="45" fill="white"/>
</clipPath>
</defs>
</svg>
