<svg width="45" height="45" viewBox="0 0 45 45" fill="none" xmlns="http://www.w3.org/2000/svg">
<g clip-path="url(#clip0)">
<path d="M38.9576 12.9666C39.3879 12.6791 39.5051 12.0969 39.2176 11.6666C38.9282 11.2326 38.3441 11.1191 37.9175 11.4066C36.8927 12.0898 35.721 12.4931 34.6774 12.741C34.2857 11.9642 33.8989 11.2316 33.5288 10.5618C34.5547 9.90294 35.656 9.37411 36.5625 9.37411C37.0807 9.37411 37.5 8.95478 37.5 8.43658C37.5 7.91837 37.0807 7.49905 36.5625 7.49905C35.245 7.49905 33.8336 8.15445 32.5988 8.93281C31.8342 7.63695 31.2199 6.69371 30.9356 6.27042C30.855 1.39601 28.7841 0.218627 28.5443 0.0977776C28.1836 -0.0798494 27.746 -0.0120857 27.4621 0.273559C26.0833 1.65239 25.1861 3.02568 24.7613 3.74902H20.2386C19.8139 3.02577 18.9166 1.65239 17.5378 0.273559C17.254 -0.0120857 16.8182 -0.0798494 16.4556 0.0977776C16.2158 0.218627 14.1448 1.39601 14.0643 6.27042C13.7801 6.69379 13.1658 7.63686 12.4013 8.93272C11.1665 8.15427 9.75504 7.49896 8.43756 7.49896C7.91936 7.49896 7.50003 7.91828 7.50003 8.43649C7.50003 8.95469 7.91936 9.37402 8.43756 9.37402C9.34213 9.37402 10.4438 9.90365 11.4705 10.5631C11.1004 11.2333 10.7133 11.9661 10.3214 12.7434C9.28069 12.4959 8.11113 12.0919 7.08264 11.4066C6.65602 11.1209 6.07005 11.2345 5.78256 11.6666C5.49507 12.0969 5.61223 12.6791 6.04254 12.9666C7.1468 13.7025 8.36848 14.1681 9.4839 14.4675C7.48975 18.7486 5.62506 24.0783 5.62506 29.062C5.62506 36.8606 12.1802 43.5093 12.4604 43.7877C12.563 43.8903 12.6893 43.969 12.8266 44.0147C12.9475 44.055 15.8405 44.9999 20.6251 44.9999C20.8741 44.9999 21.1122 44.901 21.288 44.7252L21.9508 44.0623H23.0495L23.7123 44.7252C23.8881 44.901 24.1261 44.9999 24.3752 44.9999C29.1598 44.9999 32.0528 44.055 32.1737 44.0147C32.311 43.9689 32.4373 43.8902 32.5399 43.7877C32.8199 43.5093 39.3751 36.8607 39.3751 29.062C39.3751 24.0783 37.5104 18.7486 35.5162 14.4675C36.6316 14.168 37.8533 13.7026 38.9576 12.9666ZM37.5001 29.0624C37.5001 35.4455 32.3457 41.2554 31.3716 42.2972C30.6757 42.4931 28.2991 43.0828 24.7615 43.1231L24.1005 42.462C23.9247 42.2862 23.6867 42.1874 23.4376 42.1874H21.5626C21.3136 42.1874 21.0755 42.2862 20.8997 42.462L20.2387 43.1231C16.7011 43.0828 14.3225 42.4931 13.6286 42.2972C12.6546 41.259 7.50012 35.46 7.50012 29.0624C7.50012 24.2806 9.4135 19.029 11.3991 14.854C12.3738 14.9893 13.0588 14.9999 13.1251 14.9999C13.6433 14.9999 14.0626 14.5806 14.0626 14.0624C14.0626 13.5442 13.6433 13.1248 13.1251 13.1248C13.1148 13.1248 12.7796 13.1173 12.2792 13.0703C12.5293 12.5847 12.7747 12.1225 13.0147 11.6827C13.575 12.1361 14.0495 12.5628 14.3373 12.8502C14.5204 13.0333 14.7603 13.1248 15.0002 13.1248C15.24 13.1248 15.4799 13.0333 15.663 12.8502C16.0293 12.4839 16.0293 11.8907 15.663 11.5245C15.505 11.3665 14.8583 10.7369 13.9515 10.0218C14.9902 8.24111 15.7465 7.13131 15.7711 7.09519C15.8791 6.93953 15.9377 6.75277 15.9377 6.56231C15.9377 4.15999 16.4596 2.89832 16.8551 2.28494C18.168 3.76809 18.8418 5.09199 18.8492 5.10842C19.0083 5.42342 19.3342 5.62487 19.6876 5.62487H25.3126C25.666 5.62487 25.9919 5.42342 26.1512 5.10851C26.1585 5.09199 26.8324 3.77002 28.1416 2.28872C28.5462 2.90764 29.0626 4.16922 29.0626 6.5624C29.0626 6.75286 29.1212 6.93962 29.2292 7.09528C29.2538 7.1314 30.0105 8.24076 31.0496 10.0213C30.1424 10.7367 29.4953 11.3666 29.3372 11.5246C28.971 11.8909 28.971 12.4841 29.3372 12.8503C29.5203 13.0333 29.7603 13.1249 30.0001 13.1249C30.24 13.1249 30.4798 13.0333 30.663 12.8503C30.9507 12.5626 31.4253 12.1351 31.9859 11.6811C32.2259 12.121 32.4715 12.5831 32.7217 13.0688C32.2199 13.1165 31.8836 13.1249 31.8732 13.1249C31.3569 13.1268 30.9376 13.5461 30.9376 14.0643C30.9394 14.5807 31.3569 15 31.8751 15C31.9414 15 32.6273 14.9893 33.6027 14.8538C35.5878 19.0271 37.5001 24.2774 37.5001 29.0624Z" fill="#FF0000"/>
<path d="M22.5 15C15.2637 15 9.375 20.8887 9.375 28.125C9.375 35.3613 15.2637 41.2499 22.5 41.2499C29.7363 41.2499 35.6249 35.3613 35.6249 28.125C35.6249 20.8887 29.7363 15 22.5 15ZM22.5 39.375C16.2964 39.375 11.25 34.3286 11.25 28.125C11.25 21.9214 16.2964 16.875 22.5 16.875C28.7036 16.875 33.75 21.9214 33.75 28.125C33.75 34.3286 28.7036 39.375 22.5 39.375Z" fill="#FF0000"/>
<path d="M17.8126 11.2495C18.8471 11.2495 19.6875 10.409 19.6875 9.37457C19.6875 8.85637 19.2682 8.43704 18.75 8.43704C18.75 7.91884 18.3307 7.49951 17.8125 7.49951C16.7779 7.49951 15.9375 8.34001 15.9375 9.37449C15.9375 10.4091 16.778 11.2495 17.8126 11.2495Z" fill="#FF0000"/>
<path d="M27.1875 11.2495C28.222 11.2495 29.0624 10.409 29.0624 9.37457C29.0625 8.85637 28.6432 8.43704 28.125 8.43704C28.125 7.91884 27.7057 7.49951 27.1875 7.49951C26.1529 7.49951 25.3125 8.34001 25.3125 9.37449C25.3125 10.4091 26.153 11.2495 27.1875 11.2495Z" fill="#FF0000"/>
<path d="M21.8372 12.8498C22.0203 13.0329 22.2602 13.1245 22.5 13.1245C22.7399 13.1245 22.9797 13.0329 23.1629 12.8498L24.1004 11.9123C24.3678 11.645 24.4483 11.2403 24.3037 10.8906C24.1591 10.5409 23.8166 10.312 23.4377 10.312H21.5627C21.1836 10.312 20.8413 10.5409 20.6966 10.8906C20.552 11.2403 20.6325 11.645 20.8999 11.9123L21.8372 12.8498Z" fill="#FF0000"/>
<path d="M24.7944 21.6614L22.9194 20.7239C22.6557 20.592 22.3444 20.592 22.0807 20.7239L20.2058 21.6614C19.7425 21.894 19.5557 22.4561 19.7865 22.9194C20.019 23.3808 20.5793 23.5713 21.0444 23.3387L22.5001 22.6099L23.9558 23.3387C24.0913 23.4065 24.2342 23.4376 24.3751 23.4376C24.7176 23.4376 25.049 23.2471 25.2138 22.9194C25.4444 22.4561 25.2576 21.894 24.7944 21.6614Z" fill="#FF0000"/>
<path d="M18.2319 24.4739L16.3569 23.5364C16.0932 23.4045 15.7819 23.4045 15.5182 23.5364L13.6433 24.4739C13.18 24.7065 12.9932 25.2686 13.224 25.7319C13.4565 26.1933 14.0168 26.3838 14.4819 26.1512L15.9377 25.4224L17.3934 26.1512C17.5289 26.219 17.6717 26.2501 17.8127 26.2501C18.1551 26.2501 18.4866 26.0596 18.6514 25.7319C18.8818 25.2686 18.6951 24.7065 18.2319 24.4739Z" fill="#FF0000"/>
<path d="M28.6434 23.5364L26.7684 24.4739C26.3051 24.7065 26.1184 25.2686 26.3491 25.7319C26.5816 26.1933 27.1438 26.3838 27.6071 26.1512L29.0628 25.4224L30.5185 26.1512C30.654 26.219 30.7969 26.2501 30.9378 26.2501C31.2803 26.2501 31.6117 26.0596 31.7765 25.7319C32.0072 25.2686 31.8204 24.7065 31.3572 24.4739L29.4822 23.5364C29.2184 23.4045 28.907 23.4045 28.6434 23.5364Z" fill="#FF0000"/>
</g>
<defs>
<clipPath id="clip0">
<rect width="45" height="45" fill="white"/>
</clipPath>
</defs>
</svg>
