<svg width="45" height="45" viewBox="0 0 45 45" fill="none" xmlns="http://www.w3.org/2000/svg">
<path d="M40.4339 9.82666C40.0653 9.82666 39.7665 10.1255 39.7665 10.4941V12.2294C39.7665 12.598 40.0653 12.8968 40.4339 12.8968C40.8025 12.8968 41.1014 12.598 41.1014 12.2294V10.4941C41.1014 10.1255 40.8025 9.82666 40.4339 9.82666Z" fill="#FF0000"/>
<path d="M40.4339 14.499C40.0653 14.499 39.7665 14.7979 39.7665 15.1665V16.9018C39.7665 17.2704 40.0653 17.5692 40.4339 17.5692C40.8025 17.5692 41.1014 17.2704 41.1014 16.9018V15.1666C41.1014 14.7979 40.8025 14.499 40.4339 14.499Z" fill="#FF0000"/>
<path d="M43.6375 13.0308H41.9022C41.5336 13.0308 41.2347 13.3296 41.2347 13.6982C41.2347 14.0668 41.5336 14.3656 41.9022 14.3656H43.6375C44.0061 14.3656 44.3049 14.0668 44.3049 13.6982C44.3049 13.3296 44.0061 13.0308 43.6375 13.0308Z" fill="#FF0000"/>
<path d="M38.9659 13.0308H37.2306C36.8619 13.0308 36.5631 13.3296 36.5631 13.6982C36.5631 14.0668 36.8619 14.3656 37.2306 14.3656H38.9659C39.3345 14.3656 39.6333 14.0668 39.6333 13.6982C39.6333 13.3296 39.3345 13.0308 38.9659 13.0308Z" fill="#FF0000"/>
<path d="M4.61507 0.162109C4.24646 0.162109 3.94763 0.460938 3.94763 0.829551V2.56486C3.94763 2.93348 4.24646 3.2323 4.61507 3.2323C4.98369 3.2323 5.28252 2.93348 5.28252 2.56486V0.829551C5.28252 0.460938 4.98369 0.162109 4.61507 0.162109Z" fill="#FF0000"/>
<path d="M4.61507 4.8335C4.24646 4.8335 3.94763 5.13232 3.94763 5.50094V7.23625C3.94763 7.60495 4.24646 7.90369 4.61507 7.90369C4.98369 7.90369 5.28252 7.60486 5.28252 7.23625V5.50094C5.28252 5.13232 4.98369 4.8335 4.61507 4.8335Z" fill="#FF0000"/>
<path d="M7.81865 3.36523H6.08334C5.71472 3.36523 5.41589 3.66406 5.41589 4.03268C5.41589 4.40129 5.71472 4.70012 6.08334 4.70012H7.81865C8.18726 4.70012 8.48609 4.40129 8.48609 4.03268C8.48609 3.66415 8.18726 3.36523 7.81865 3.36523Z" fill="#FF0000"/>
<path d="M3.14689 3.36523H1.41158C1.04297 3.36523 0.744141 3.66406 0.744141 4.03268C0.744141 4.40129 1.04297 4.70012 1.41158 4.70012H3.14689C3.51551 4.70012 3.81434 4.40129 3.81434 4.03268C3.81442 3.66415 3.51551 3.36523 3.14689 3.36523Z" fill="#FF0000"/>
<path d="M23.5395 13.3197C21.4142 13.1943 19.1786 13.1808 17.0367 13.2796C16.6685 13.2966 16.3838 13.609 16.4007 13.9771C16.4177 14.3454 16.7303 14.6301 17.0982 14.6131C19.1936 14.5163 21.382 14.5296 23.4608 14.6522C23.4743 14.6531 23.4875 14.6535 23.5007 14.6535C23.8514 14.6535 24.1455 14.3798 24.1664 14.0252C24.1881 13.6573 23.9075 13.3413 23.5395 13.3197Z" fill="#FF0000"/>
<path d="M32.8795 14.7587C32.5245 14.6601 32.1565 14.8677 32.0577 15.2229C31.9589 15.5781 32.1666 15.9461 32.5218 16.0448C36.1966 17.067 38.4793 18.5399 38.4793 19.8886C38.4793 21.1393 36.5478 22.489 33.3127 23.4991C29.7415 24.6141 24.9806 25.2283 19.9071 25.2283C14.8337 25.2283 10.0728 24.6142 6.50162 23.4991C3.26637 22.4891 1.33488 21.1393 1.33488 19.8887C1.33488 18.8579 2.66396 17.9674 3.45621 17.5283C4.95984 16.6949 7.14401 15.9802 9.77221 15.4616C10.1338 15.3902 10.3692 15.0392 10.2978 14.6775C10.2264 14.3159 9.87478 14.0805 9.51372 14.1519C3.46764 15.3449 0 17.4358 0 19.8886C0 21.2476 1.05899 23.1982 6.10365 24.7734C9.80024 25.9276 14.7023 26.5632 19.9071 26.5632C25.1118 26.5632 30.0139 25.9275 33.7104 24.7734C38.7552 23.1983 39.8141 21.2476 39.8141 19.8886C39.8142 17.8245 37.3514 16.0027 32.8795 14.7587Z" fill="#FF0000"/>
<path d="M30.6457 18.7247L30.6249 18.7198C30.2661 18.6348 29.9066 18.857 29.8219 19.2158C29.7676 19.4451 29.8387 19.6746 29.9908 19.8326C27.1073 20.4769 23.5432 20.8304 19.9069 20.8304C16.2709 20.8303 12.7067 20.4768 9.82307 19.8326C9.97485 19.6748 10.046 19.4456 9.99226 19.2166C9.90797 18.8578 9.54858 18.6353 9.18981 18.7195L9.16749 18.7248C8.61738 18.8547 8.2478 19.3223 8.2478 19.8882C8.2478 20.4541 8.61738 20.9217 9.1674 21.0516L9.18955 21.0569C12.2256 21.7716 16.0317 22.1654 19.9069 22.1654C23.782 22.1654 27.5883 21.7717 30.6249 21.0568L30.6465 21.0517C31.1966 20.9218 31.5661 20.4543 31.5661 19.8883C31.5661 19.3224 31.1965 18.855 30.6457 18.7247Z" fill="#FF0000"/>
<path d="M31.5325 25.7446C31.1639 25.7446 30.8651 26.0435 30.8651 26.4121V40.6837C30.8651 41.8915 26.5963 43.6459 19.9072 43.6459C13.2181 43.6459 8.94938 41.8915 8.94938 40.6837V37.9128C8.94938 37.5442 8.65056 37.2454 8.28194 37.2454C7.91333 37.2454 7.6145 37.5442 7.6145 37.9128V40.6836C7.6145 41.9882 8.95395 43.0962 11.488 43.8873C13.7464 44.5924 16.7364 44.9807 19.9073 44.9807C23.0782 44.9807 26.0683 44.5923 28.3266 43.8873C30.8607 43.0961 32.2001 41.9882 32.2001 40.6836V26.4122C32.2001 26.0435 31.9011 25.7446 31.5325 25.7446Z" fill="#FF0000"/>
<path d="M8.28194 25.7446C7.91333 25.7446 7.6145 26.0435 7.6145 26.4121V35.6878C7.6145 36.0564 7.91333 36.3552 8.28194 36.3552C8.65056 36.3552 8.94938 36.0564 8.94938 35.6878V26.4122C8.94947 26.0435 8.65056 25.7446 8.28194 25.7446Z" fill="#FF0000"/>
<path d="M44.8798 4.48686L43.3528 2.29698C43.1419 1.99455 42.7259 1.92046 42.4235 2.13122L22.057 16.3315C21.9118 16.4328 21.8127 16.5876 21.7816 16.7618C21.7505 16.9361 21.7899 17.1156 21.8912 17.2607L23.4182 19.4506C23.548 19.6367 23.7555 19.7363 23.9663 19.7363C24.0982 19.7363 24.2312 19.6974 24.3475 19.6164L44.7141 5.41613C44.8594 5.31488 44.9585 5.1601 44.9895 4.98582C45.0205 4.81153 44.9811 4.63197 44.8798 4.48686ZM24.1315 18.1398L23.368 17.0448L42.6396 3.60796L43.4031 4.7029L24.1315 18.1398Z" fill="#FF0000"/>
<path d="M30.8584 4.9686L29.4531 4.68366C28.3283 4.45567 27.4543 3.5816 27.2263 2.45695L26.9414 1.05158C26.8182 0.443643 26.2989 0.019043 25.6787 0.019043C25.0584 0.019043 24.5391 0.443643 24.4159 1.05158L24.1309 2.45695C23.9029 3.58169 23.0289 4.45567 21.9042 4.68366L20.4988 4.9686C19.8909 5.09183 19.4663 5.61126 19.4663 6.23142C19.4663 6.85175 19.8909 7.37092 20.4988 7.49414L21.9042 7.77908C23.029 8.00707 23.9029 8.88114 24.1309 10.0058L24.4159 11.4112C24.5391 12.0191 25.0585 12.4437 25.6787 12.4437C26.299 12.4437 26.8183 12.0191 26.9414 11.4112L27.2263 10.0058C27.4543 8.88105 28.3284 8.00707 29.4531 7.77908L30.8584 7.49414C31.4664 7.37092 31.891 6.85166 31.891 6.23142C31.891 5.61117 31.4664 5.09183 30.8584 4.9686ZM29.1879 6.47083C27.5364 6.80569 26.253 8.08925 25.918 9.74071L25.6784 10.9215L25.4391 9.74071C25.1042 8.08925 23.8207 6.80578 22.1692 6.47083L20.9884 6.23124L22.1692 5.99191C23.8207 5.65705 25.1041 4.3735 25.4391 2.72203L25.6786 1.54122L25.918 2.72203C26.2529 4.3735 27.5364 5.65696 29.1879 5.99191L30.3687 6.23142L29.1879 6.47083Z" fill="#FF0000"/>
<path d="M19.2736 9.23259L17.5717 8.88753C16.1542 8.60013 15.0526 7.49859 14.7652 6.08109L14.4202 4.37918C14.2844 3.70945 13.7123 3.2417 13.029 3.2417C12.3457 3.2417 11.7736 3.70945 11.6378 4.37918L11.2928 6.08109C11.0054 7.49859 9.90383 8.60021 8.48633 8.88753L6.78433 9.23259C6.1146 9.36838 5.64685 9.94055 5.64685 10.6238C5.64685 11.3071 6.11452 11.8792 6.78433 12.015L8.48633 12.3601C9.90383 12.6475 11.0055 13.7491 11.2928 15.1666L11.6378 16.8685C11.7736 17.5383 12.3457 18.006 13.029 18.006C13.7123 18.006 14.2844 17.5383 14.4202 16.8685L14.7652 15.1666C15.0526 13.7491 16.1542 12.6475 17.5717 12.3601L19.2736 12.015C19.9433 11.8792 20.4111 11.3072 20.4111 10.6238C20.4111 9.94046 19.9433 9.36838 19.2736 9.23259ZM19.0084 10.7068L17.3065 11.0518C15.3621 11.4461 13.8511 12.9571 13.4569 14.9014L13.1118 16.6034C13.1054 16.6351 13.0981 16.6711 13.029 16.6711C12.9598 16.6711 12.9525 16.6352 12.946 16.6034L12.6009 14.9014C12.2067 12.9571 10.6957 11.4461 8.75132 11.0518L7.04932 10.7068C7.01759 10.7004 6.98156 10.6931 6.98156 10.6238C6.98156 10.5546 7.0175 10.5473 7.04932 10.5408L8.75132 10.1958C10.6956 9.8015 12.2067 8.29058 12.6009 6.34617L12.946 4.64426C12.9524 4.61244 12.9597 4.57641 13.029 4.57641C13.0981 4.57641 13.1054 4.61244 13.1118 4.64426L13.4569 6.34617C13.8512 8.29049 15.3621 9.8015 17.3065 10.1957L19.0084 10.5408C19.0402 10.5472 19.0763 10.5545 19.0763 10.6237C19.0763 10.693 19.0401 10.7003 19.0084 10.7068Z" fill="#FF0000"/>
</svg>
