<svg width="120" height="120" viewBox="0 0 120 120" fill="none" xmlns="http://www.w3.org/2000/svg">
<path d="M60 2.17846C91.9385 2.17846 117.822 28.0615 117.822 60C117.822 91.9385 91.9385 117.822 60 117.822C28.0615 117.822 2.17846 91.9385 2.17846 60C2.17846 28.0615 28.0615 2.17846 60 2.17846ZM60 0C43.9754 0 28.9108 6.24 17.5754 17.5754C6.24 28.9108 0 43.9754 0 60C0 76.0246 6.24 91.0892 17.5754 102.425C28.9108 113.76 43.9754 120 60 120C76.0246 120 91.0892 113.76 102.425 102.425C113.76 91.0892 120 76.0246 120 60C120 43.9754 113.76 28.9108 102.425 17.5754C91.0892 6.24 76.0246 0 60 0Z" fill="#FF0000"/>
<path d="M94.4117 18.0184C94.6332 17.5384 94.5594 16.9476 94.1532 16.5784C93.9686 16.3938 93.7102 16.3199 93.4886 16.283H26.5101C26.2517 16.3199 26.0301 16.3938 25.8455 16.5784C25.4393 16.9476 25.3286 17.5384 25.587 18.0184L49.3655 65.2799L36.3686 79.8645C35.9255 80.3445 35.9624 81.1199 36.4794 81.563C36.7009 81.7845 36.9963 81.8584 37.2917 81.8584C37.624 81.8584 37.9563 81.7107 38.1778 81.4522L50.4732 67.5691L58.6332 83.7784L52.6517 95.6676L51.2117 92.8245H52.4671C53.1317 92.8245 53.6855 92.2707 53.6855 91.6061C53.6855 90.9414 53.1317 90.3876 52.4671 90.3876H45.8209C45.1563 90.3876 44.6024 90.9414 44.6024 91.6061C44.6024 92.2707 45.1563 92.8245 45.8209 92.8245H48.5163C48.5163 92.8614 48.5163 92.8614 48.5532 92.8984L51.3224 98.326L50.6947 99.5814C48.9594 103.2 46.0055 106.043 43.347 106.671C41.907 107.003 40.6517 106.708 39.4701 105.748C38.6209 105.083 37.587 103.532 37.5132 102.055C37.5501 101.243 37.8455 100.431 38.3624 99.8399C38.6947 99.4707 39.1009 99.286 39.507 99.323C39.9501 99.323 40.3563 99.5814 40.6517 99.9876C41.0578 100.505 41.8332 100.615 42.3501 100.209C42.867 99.803 42.9778 99.0276 42.5717 98.5107C41.8332 97.5507 40.7624 96.9968 39.6178 96.923C38.4732 96.886 37.4024 97.3291 36.5901 98.2153C36.2947 98.5476 36.0732 98.8799 35.8517 99.286L35.8147 99.2491C35.3347 100.061 35.1132 100.911 35.1132 101.797C35.0394 103.237 35.4086 104.714 36.3317 105.858C36.4055 105.932 36.4794 106.006 36.5901 106.08C37.0332 106.671 37.5132 107.188 37.9932 107.594C39.2855 108.628 40.7624 109.181 42.3132 109.181C42.8301 109.181 43.384 109.108 43.9009 108.997C47.187 108.258 50.6209 105.12 52.7255 100.985L59.0024 113.206C59.224 113.612 59.6301 113.871 60.0732 113.871C60.2578 113.871 60.4424 113.834 60.6271 113.723C60.8486 113.612 61.0332 113.428 61.144 113.206L67.384 101.095C69.4886 105.194 72.8855 108.258 76.1348 109.034C76.6886 109.145 77.2055 109.218 77.7225 109.218C79.2732 109.218 80.7501 108.701 82.0425 107.631C82.5225 107.225 83.0025 106.708 83.4455 106.117C83.5194 106.043 83.6301 105.969 83.704 105.895C84.6271 104.714 84.9963 103.274 84.9225 101.834C84.9225 100.948 84.7009 100.098 84.2209 99.286L84.184 99.323C83.9625 98.9537 83.7409 98.5845 83.4455 98.2522C82.6332 97.3661 81.5624 96.923 80.4178 96.9599C79.2732 96.9968 78.2024 97.5876 77.464 98.5476C77.0578 99.0645 77.1317 99.8399 77.6855 100.246C78.2394 100.652 78.9778 100.578 79.384 100.025C79.7163 99.6184 80.1225 99.3968 80.5286 99.3599C80.9717 99.3599 81.3409 99.5445 81.6732 99.8768C82.2271 100.468 82.4855 101.28 82.5224 102.092C82.4486 103.569 81.4148 105.083 80.5655 105.785C79.384 106.745 78.1286 107.04 76.6886 106.708C74.0301 106.117 71.0763 103.274 69.3409 99.6183L68.7501 98.4737L71.6301 92.8984L71.5563 92.8614H73.7348C74.3994 92.8614 74.9532 92.3076 74.9532 91.643C74.9532 90.9784 74.3994 90.4245 73.7348 90.4245H67.0886C66.424 90.4245 65.8701 90.9784 65.8701 91.643C65.8701 92.3076 66.424 92.8614 67.0886 92.8614H68.9348L67.4209 95.7784L61.4024 83.7784L69.5624 67.5691L81.8578 81.4522C82.0794 81.7107 82.4117 81.8584 82.744 81.8584C83.0394 81.8584 83.2978 81.7476 83.5563 81.563C84.0732 81.1199 84.1101 80.3445 83.6671 79.8645L70.7071 65.2799L94.4117 18.0184ZM90.6825 18.683L59.9994 53.243L29.3163 18.683H90.6825ZM31.864 25.1815L58.3747 55.0522L51.064 63.323L31.864 25.1815ZM66.0178 98.4368L60.0732 109.994L54.0547 98.326L59.9994 86.4737L66.0178 98.4368ZM59.9994 81.1199L52.2086 65.6491L59.9994 56.8984L67.7901 65.6491L59.9994 81.1199ZM61.624 55.0522L88.1348 25.1815L68.9348 63.323L61.624 55.0522Z" fill="#FF0000"/>
</svg>
