<svg width="20" height="20" viewBox="0 0 20 20" fill="none" xmlns="http://www.w3.org/2000/svg">
<path d="M10.1744 8.90887C10.0094 8.81387 9.84202 8.72587 9.68602 8.61607C9.53662 8.51107 9.40682 8.40607 9.25642 8.30367C9.17622 8.24907 9.00002 8.19547 9.00002 8.14307C9.00002 8.22027 9.00002 8.52987 9.00002 8.57267C9.00002 8.82047 8.98122 10.0953 8.98402 10.2551C8.98802 10.5225 8.96722 10.7899 8.97702 11.0573C8.98622 11.3123 8.98782 11.5559 8.97902 11.8223C8.97902 11.8223 9.61602 11.5129 9.70102 11.4595C10.0278 11.2537 10.348 11.0303 10.6828 10.8391C10.8474 10.7451 11.0176 10.6619 11.1748 10.5557C11.3176 10.4587 11.871 9.99327 11.8902 10.0051C11.6346 9.84887 11.3868 9.68547 11.1204 9.54727C10.7796 9.37047 10.5064 9.09987 10.1744 8.90887Z" fill="white"/>
<path d="M10.0001 0.768066C4.90127 0.768066 0.768066 4.90127 0.768066 10.0001C0.768066 15.0989 4.90127 19.2321 10.0001 19.2321C15.0989 19.2321 19.2321 15.0989 19.2321 10.0001C19.2321 4.90127 15.0989 0.768066 10.0001 0.768066ZM15.0709 12.0029C14.9755 12.4521 14.8553 12.9219 14.5473 13.2767C14.2131 13.6611 13.6375 13.5599 13.1777 13.5931C12.0599 13.6739 10.9445 13.5983 9.82587 13.6277C9.36607 13.6399 8.91267 13.6293 8.45407 13.6065C7.99767 13.5837 7.52027 13.6325 7.06407 13.5957C6.78727 13.5731 6.50867 13.5725 6.23287 13.5385C6.01167 13.5113 5.67727 13.4791 5.50987 13.3119C5.42847 13.2307 5.40187 13.1045 5.33127 13.0097L5.22947 12.8321C4.79127 11.8977 4.80007 10.8689 4.79827 9.84807C4.79727 9.46887 4.84327 9.09167 4.83307 8.71207C4.82647 8.46707 4.93767 8.23507 4.95287 7.98847C4.96847 7.74127 5.01507 7.50307 5.13467 7.28847C5.36747 6.87107 5.48527 6.67507 5.91787 6.49807C6.13447 6.40927 6.53807 6.38447 6.77007 6.38887C7.04627 6.39367 7.32307 6.39247 7.59887 6.38927C8.15967 6.38247 8.71967 6.36587 9.28027 6.36767C9.76787 6.36907 10.2617 6.37147 10.7481 6.40187C11.2351 6.43187 11.7241 6.38527 12.2125 6.39767C12.6149 6.40787 13.0181 6.40707 13.4197 6.43667C13.7203 6.45887 14.0707 6.49547 14.3319 6.66247C14.4887 6.76267 14.6631 6.89647 14.7337 7.06087C14.9389 7.53867 15.1097 8.02247 15.1385 8.54527C15.1681 9.08087 15.1749 9.61727 15.1895 10.1533C15.1921 10.2457 15.1949 10.3383 15.1979 10.4307C15.2157 10.9561 15.1795 11.4883 15.0709 12.0029Z" fill="white"/>
</svg>
