<svg width="45" height="45" viewBox="0 0 45 45" fill="none" xmlns="http://www.w3.org/2000/svg">
<g clip-path="url(#clip0)">
<path d="M6.78749 39.2874C6.3927 39.2874 6.07324 38.9683 6.07324 38.5732C6.07324 35.0278 8.95745 32.1436 12.5029 32.1436C12.898 32.1436 13.2171 32.463 13.2171 32.8578C13.2171 33.2529 12.898 33.5721 12.5029 33.5721C9.74529 33.5721 7.50174 35.8156 7.50174 38.5732C7.50174 38.9683 7.18263 39.2874 6.78749 39.2874Z" fill="#FF0000"/>
<path d="M38.2145 39.2875C37.8197 39.2875 37.5003 38.9684 37.5003 38.5733C37.5003 35.8171 35.2567 33.5735 32.5005 33.5735C32.1057 33.5735 31.7863 33.2544 31.7863 32.8593C31.7863 32.4645 32.1057 32.145 32.5005 32.145C36.0453 32.145 38.9288 35.0285 38.9288 38.5733C38.9288 38.9684 38.6097 39.2875 38.2145 39.2875Z" fill="#FF0000"/>
<path d="M16.0734 33.5721H12.5028C12.108 33.5721 11.7886 33.2529 11.7886 32.8578C11.7886 32.463 12.108 32.1436 12.5028 32.1436H16.0734C16.4685 32.1436 16.7876 32.463 16.7876 32.8578C16.7876 33.2529 16.4685 33.5721 16.0734 33.5721Z" fill="#FF0000"/>
<path d="M6.78819 44.2857C6.3941 44.2857 6.07394 43.9666 6.07394 43.5715L6.07324 38.5731C6.07324 38.179 6.3927 37.8589 6.78749 37.8589C7.18194 37.8589 7.50175 38.1783 7.50175 38.5731L7.50244 43.5715C7.50244 43.9659 7.18333 44.2857 6.78819 44.2857Z" fill="#FF0000"/>
<path d="M7.50247 45.0002C6.71464 45.0002 6.07397 44.3595 6.07397 43.5717C6.07397 43.1769 6.39343 42.8574 6.78822 42.8574C7.18336 42.8574 7.50247 43.1769 7.50247 43.5717V43.5731C7.89761 43.5731 8.21672 43.8918 8.21672 44.2866C8.21672 44.6811 7.89761 45.0002 7.50247 45.0002Z" fill="#FF0000"/>
<path d="M37.5003 45.0002C37.1055 45.0002 36.786 44.6811 36.786 44.2859C36.786 43.8911 37.1055 43.5717 37.5003 43.5717H37.5017C37.5017 43.1769 37.8204 42.8574 38.2152 42.8574C38.6097 42.8574 38.9288 43.1769 38.9288 43.5717C38.9288 44.3595 38.2881 45.0002 37.5003 45.0002Z" fill="#FF0000"/>
<path d="M38.2146 44.2857C37.8198 44.2857 37.5004 43.9666 37.5004 43.5715V38.5731C37.5004 38.1783 37.8198 37.8589 38.2146 37.8589C38.6098 37.8589 38.9289 38.1783 38.9289 38.5731V43.5715C38.9289 43.9666 38.6098 44.2857 38.2146 44.2857Z" fill="#FF0000"/>
<path d="M37.5003 45.0003H7.50246C7.10767 45.0003 6.78821 44.6812 6.78821 44.286C6.78821 43.8912 7.10767 43.5718 7.50246 43.5718H37.5003C37.8955 43.5718 38.2146 43.8912 38.2146 44.286C38.2146 44.6812 37.8955 45.0003 37.5003 45.0003Z" fill="#FF0000"/>
<path d="M17.5014 32.1434C17.1066 32.1434 16.7871 31.8243 16.7871 31.4292V28.765C16.7871 28.3702 17.1066 28.0508 17.5014 28.0508C17.8965 28.0508 18.2156 28.3702 18.2156 28.765V31.4292C18.2156 31.8243 17.8965 32.1434 17.5014 32.1434Z" fill="#FF0000"/>
<path d="M27.5009 32.1434C27.1061 32.1434 26.7866 31.8243 26.7866 31.4292V28.765C26.7866 28.3702 27.1061 28.0508 27.5009 28.0508C27.896 28.0508 28.2151 28.3702 28.2151 28.765V31.4292C28.2151 31.8243 27.896 32.1434 27.5009 32.1434Z" fill="#FF0000"/>
<path d="M22.501 30.7145C16.2001 30.7145 11.073 25.5878 11.073 19.2865C11.073 18.8924 11.3925 18.5723 11.7872 18.5723C12.1824 18.5723 12.5015 18.8924 12.5015 19.2865C12.5015 24.8 16.9872 29.286 22.501 29.286C28.0152 29.286 32.5005 24.8007 32.5005 19.2865C32.5005 18.8924 32.82 18.5723 33.2148 18.5723C33.6099 18.5723 33.929 18.8924 33.929 19.2865C33.929 25.5878 28.8023 30.7145 22.501 30.7145Z" fill="#FF0000"/>
<path d="M11.7872 20.0014C11.3925 20.0014 11.073 19.6815 11.073 19.2871V15.6625C11.073 15.2681 11.3925 14.9482 11.7872 14.9482C12.1824 14.9482 12.5015 15.2681 12.5015 15.6625V19.2871C12.5015 19.6815 12.1824 20.0014 11.7872 20.0014Z" fill="#FF0000"/>
<path d="M33.2149 20.0016C32.8201 20.0016 32.5006 19.6818 32.5006 19.2873V15.662C32.5006 15.2676 32.8201 14.9478 33.2149 14.9478C33.61 14.9478 33.9291 15.2676 33.9291 15.662V19.2873C33.9291 19.6818 33.61 20.0016 33.2149 20.0016Z" fill="#FF0000"/>
<path d="M18.6143 35.0019C18.3621 35.0019 18.1187 34.8683 17.9879 34.6325C17.7972 34.2869 17.9227 33.852 18.2687 33.662L22.1563 31.5178C22.5026 31.3277 22.9368 31.4536 23.1269 31.7985C23.3176 32.1442 23.1917 32.5791 22.8461 32.7691L18.9585 34.9133C18.8493 34.9733 18.7308 35.0019 18.6143 35.0019Z" fill="#FF0000"/>
<path d="M26.388 35.0019C26.2715 35.0019 26.1529 34.9733 26.0438 34.9133L22.1562 32.7692C21.8113 32.5784 21.6854 32.1442 21.8755 31.7986C22.0662 31.4544 22.5004 31.3285 22.846 31.5178L26.734 33.662C27.0789 33.8527 27.2044 34.2869 27.0144 34.6326C26.8846 34.8683 26.6401 35.0019 26.388 35.0019Z" fill="#FF0000"/>
<path d="M14.6443 35.002C14.4616 35.002 14.2785 34.9323 14.1393 34.7928C13.86 34.5134 13.86 34.0621 14.1393 33.7828L16.9963 30.9244C17.2757 30.645 17.727 30.645 18.0063 30.9244C18.2857 31.2037 18.2857 31.655 18.0063 31.9344L15.1493 34.7928C15.0102 34.9323 14.8271 35.002 14.6443 35.002Z" fill="#FF0000"/>
<path d="M17.5013 37.8578C17.3186 37.8578 17.1355 37.7877 16.9963 37.6486L14.1393 34.793C13.86 34.5136 13.86 34.0623 14.1393 33.783C14.4187 33.504 14.87 33.504 15.1493 33.783L18.0063 36.6386C18.2857 36.9179 18.2857 37.3692 18.0063 37.6486C17.8672 37.7877 17.6841 37.8578 17.5013 37.8578Z" fill="#FF0000"/>
<path d="M16.0728 39.286C15.89 39.286 15.7069 39.2159 15.5678 39.0767C15.2884 38.7974 15.2884 38.3461 15.5678 38.0667L16.9963 36.6382C17.2757 36.3589 17.7269 36.3589 18.0063 36.6382C18.2856 36.9176 18.2856 37.3689 18.0063 37.6482L16.5778 39.0767C16.4386 39.2159 16.2555 39.286 16.0728 39.286Z" fill="#FF0000"/>
<path d="M20.3589 44.9999C20.141 44.9999 19.9275 44.9015 19.787 44.7142L15.5015 39.0002C15.2643 38.6853 15.3285 38.2375 15.6441 38.001C15.959 37.7645 16.4061 37.8273 16.6433 38.1436L20.9288 43.8577C21.1659 44.173 21.1018 44.6208 20.7862 44.8572C20.6582 44.9535 20.5082 44.9999 20.3589 44.9999Z" fill="#FF0000"/>
<path d="M22.5011 45.0001C22.2155 45.0001 21.9456 44.8274 21.8353 44.5446L16.8356 31.6881C16.6929 31.3201 16.875 30.9065 17.2422 30.7635C17.6084 30.6195 18.0234 30.8029 18.1664 31.1702L23.1662 44.0267C23.3088 44.3943 23.1268 44.8079 22.7596 44.9509C22.6748 44.9851 22.5876 45.0001 22.5011 45.0001Z" fill="#FF0000"/>
<path d="M30.3579 35.002C30.1751 35.002 29.992 34.9323 29.8529 34.7928L26.9959 31.9344C26.7165 31.655 26.7165 31.2037 26.9959 30.9244C27.2752 30.645 27.7265 30.645 28.0059 30.9244L30.8629 33.7828C31.1422 34.0621 31.1422 34.5134 30.8629 34.7928C30.7237 34.9323 30.5406 35.002 30.3579 35.002Z" fill="#FF0000"/>
<path d="M27.5009 37.8578C27.3181 37.8578 27.135 37.7877 26.9959 37.6486C26.7165 37.3692 26.7165 36.9179 26.9959 36.6386L29.8529 33.783C30.1322 33.504 30.5835 33.504 30.8629 33.783C31.1422 34.0623 31.1422 34.5136 30.8629 34.793L28.0059 37.6486C27.8667 37.7877 27.6836 37.8578 27.5009 37.8578Z" fill="#FF0000"/>
<path d="M28.9294 39.286C28.7466 39.286 28.5636 39.2159 28.4244 39.0767L26.9959 37.6482C26.7165 37.3689 26.7165 36.9176 26.9959 36.6382C27.2752 36.3589 27.7265 36.3589 28.0059 36.6382L29.4344 38.0667C29.7137 38.3461 29.7137 38.7974 29.4344 39.0767C29.2952 39.2159 29.1121 39.286 28.9294 39.286Z" fill="#FF0000"/>
<path d="M24.6432 44.9998C24.4939 44.9998 24.344 44.9534 24.2153 44.8572C23.8996 44.6207 23.8355 44.1729 24.0726 43.8576L28.3581 38.1436C28.5953 37.828 29.0424 37.7652 29.3573 38.001C29.6729 38.2374 29.7371 38.6852 29.4999 39.0002L25.2144 44.7142C25.0753 44.9015 24.8612 44.9998 24.6432 44.9998Z" fill="#FF0000"/>
<path d="M22.501 44.9998C22.4145 44.9998 22.3273 44.9848 22.2426 44.9513C21.8747 44.8083 21.6926 44.3947 21.836 44.0271L26.8357 31.1705C26.978 30.8026 27.393 30.6192 27.7599 30.7639C28.1278 30.9069 28.3099 31.3205 28.1666 31.6884L23.1668 44.545C23.0566 44.8271 22.7867 44.9998 22.501 44.9998Z" fill="#FF0000"/>
<path d="M32.5005 33.5735H28.9292C28.5344 33.5735 28.215 33.2544 28.215 32.8593C28.215 32.4645 28.5344 32.145 28.9292 32.145H32.5005C32.8956 32.145 33.2147 32.4645 33.2147 32.8593C33.2147 33.2544 32.8956 33.5735 32.5005 33.5735Z" fill="#FF0000"/>
<path d="M20.2791 39.286C20.1863 39.286 20.0918 39.2683 20.0011 39.2296C19.6377 39.0761 19.4675 38.6569 19.6213 38.2938L21.129 34.7243C21.2825 34.3599 21.7017 34.1907 22.0647 34.3442C22.4281 34.4976 22.5983 34.9172 22.4445 35.2799L20.9368 38.8498C20.8211 39.1225 20.5567 39.286 20.2791 39.286Z" fill="#FF0000"/>
<path d="M24.723 39.2859C24.4447 39.2859 24.1804 39.1223 24.0653 38.8496L22.5576 35.2783C22.4041 34.9146 22.574 34.4961 22.9374 34.3426C23.3005 34.1892 23.7197 34.359 23.8731 34.7224L25.3811 38.2937C25.5346 38.6574 25.3648 39.0759 25.001 39.2294C24.9103 39.2681 24.8162 39.2859 24.723 39.2859Z" fill="#FF0000"/>
<path d="M23.2153 35.7156H21.7868C21.392 35.7156 21.0725 35.3965 21.0725 35.0014C21.0725 34.6066 21.392 34.2871 21.7868 34.2871H23.2153C23.6104 34.2871 23.9295 34.6066 23.9295 35.0014C23.9295 35.3965 23.6104 35.7156 23.2153 35.7156Z" fill="#FF0000"/>
<path d="M23.2153 35.7164C23.0518 35.7164 22.8868 35.6606 22.7525 35.5459C22.4519 35.2909 22.416 34.8393 22.6727 34.5393L24.1012 32.8622C24.3561 32.5615 24.8074 32.5253 25.1073 32.7823C25.408 33.0372 25.4439 33.4889 25.1876 33.7888L23.759 35.4656C23.6174 35.6316 23.4169 35.7164 23.2153 35.7164Z" fill="#FF0000"/>
<path d="M21.7869 35.7158C21.5857 35.7158 21.3848 35.6311 21.2436 35.4643L19.8151 33.7875C19.5591 33.4873 19.5943 33.036 19.8949 32.781C20.1956 32.5247 20.6461 32.5603 20.9014 32.8609L22.3299 34.5381C22.5856 34.838 22.5503 35.2896 22.2497 35.5446C22.1154 35.66 21.9505 35.7158 21.7869 35.7158Z" fill="#FF0000"/>
<path d="M24.6438 27.1393C24.4611 27.1393 24.278 27.0692 24.1388 26.9301L23.6338 26.4251H21.3683L20.8633 26.9301C20.584 27.2094 20.1327 27.2094 19.8533 26.9301C19.574 26.6507 19.574 26.1994 19.8533 25.9201L20.5676 25.2058C20.7018 25.0716 20.8825 24.9966 21.0726 24.9966H23.9296C24.1196 24.9966 24.301 25.0716 24.4346 25.2058L25.1488 25.9201C25.4282 26.1994 25.4282 26.6507 25.1488 26.9301C25.0097 27.0699 24.8266 27.1393 24.6438 27.1393Z" fill="#FF0000"/>
<path d="M20.3582 27.1395C16.4197 27.1395 13.2157 23.9355 13.2157 19.997C13.2157 19.6025 13.5352 19.2827 13.93 19.2827C14.3251 19.2827 14.6442 19.6025 14.6442 19.997C14.6442 23.1483 17.2076 25.711 20.3582 25.711C20.7534 25.711 21.0725 26.0301 21.0725 26.4252C21.0725 26.82 20.7534 27.1395 20.3582 27.1395Z" fill="#FF0000"/>
<path d="M13.93 20.7114C13.5352 20.7114 13.2158 20.3912 13.2158 19.9971C13.2158 19.2093 12.5751 18.5686 11.7873 18.5686C11.3925 18.5686 11.073 18.2485 11.073 17.8544C11.073 17.4599 11.3925 17.1401 11.7873 17.1401C13.3629 17.1401 14.6443 18.4215 14.6443 19.9971C14.6443 20.3912 14.3251 20.7114 13.93 20.7114Z" fill="#FF0000"/>
<path d="M24.6437 27.1395C24.2489 27.1395 23.9294 26.82 23.9294 26.4252C23.9294 26.0301 24.2489 25.711 24.6437 25.711C27.7944 25.711 30.3577 23.1476 30.3577 19.997C30.3577 19.6025 30.6772 19.2827 31.072 19.2827C31.4671 19.2827 31.7862 19.6025 31.7862 19.997C31.7862 23.9355 28.5822 27.1395 24.6437 27.1395Z" fill="#FF0000"/>
<path d="M31.0722 20.7114C30.6774 20.7114 30.3579 20.3912 30.3579 19.9971C30.3579 18.4215 31.6392 17.1401 33.2149 17.1401C33.61 17.1401 33.9292 17.4599 33.9292 17.8544C33.9292 18.2485 33.61 18.5686 33.2149 18.5686C32.4271 18.5686 31.7864 19.2093 31.7864 19.9971C31.7864 20.3912 31.4673 20.7114 31.0722 20.7114Z" fill="#FF0000"/>
<path d="M22.501 17.1444C21.8304 17.1444 6.07324 17.1036 6.07324 13.5731C6.07324 12.7476 6.70379 11.5511 12.1594 10.699C12.5493 10.637 12.9151 10.9048 12.9758 11.294C13.0365 11.6832 12.77 12.0491 12.3801 12.1098C8.95885 12.6448 7.77029 13.3025 7.53034 13.5752C8.15113 14.3746 13.4609 15.7152 22.5017 15.7152C31.5429 15.7152 36.8527 14.3746 37.4731 13.5752C37.2332 13.3025 36.0446 12.6448 32.6226 12.1098C32.2327 12.0491 31.9663 11.6832 32.0269 11.294C32.0876 10.9048 32.4556 10.6363 32.8434 10.699C38.2976 11.5511 38.9288 12.7476 38.9288 13.5731C38.9288 17.1036 23.1717 17.1444 22.501 17.1444Z" fill="#FF0000"/>
<path d="M11.7879 14.287C11.7367 14.287 11.6843 14.2815 11.6324 14.27C11.2474 14.1842 11.0043 13.803 11.0894 13.4179L13.9492 0.559323C14.0356 0.173599 14.4193 -0.0663448 14.8015 0.0170079C15.1865 0.102802 15.4293 0.48434 15.3442 0.869018L12.4844 13.728C12.4101 14.0607 12.1151 14.287 11.7879 14.287Z" fill="#FF0000"/>
<path d="M33.2141 14.2869C32.887 14.2869 32.5919 14.0605 32.517 13.7278L29.6579 0.868846C29.5721 0.484168 29.8151 0.101932 30.1998 0.0168354C30.5848 -0.0675634 30.9657 0.173427 31.0522 0.559151L33.912 13.4178C33.9971 13.8028 33.754 14.1847 33.369 14.2698C33.3177 14.2813 33.2654 14.2869 33.2141 14.2869Z" fill="#FF0000"/>
<path d="M22.501 3.57265C21.0826 3.57265 20.2376 3.09346 19.4204 2.62927C18.4282 2.06638 17.3042 1.4285 14.647 1.4285C14.2522 1.4285 13.9327 1.10835 13.9327 0.714252C13.9327 0.320158 14.2522 0 14.647 0C17.6812 0 19.0368 0.769355 20.1253 1.387C20.8995 1.82643 21.4596 2.14415 22.501 2.14415C23.5424 2.14415 24.1011 1.82713 24.8739 1.3877C25.9624 0.769355 27.3173 0 30.355 0C30.7498 0 31.0692 0.320158 31.0692 0.714252C31.0692 1.10835 30.7498 1.4285 30.355 1.4285C27.6943 1.4285 26.571 2.06708 25.5794 2.62997C24.7637 3.09277 23.9194 3.57265 22.501 3.57265Z" fill="#FF0000"/>
<path d="M33.2148 14.2869H11.7872C11.3925 14.2869 11.073 13.9671 11.073 13.5726C11.073 13.1786 11.3925 12.8584 11.7872 12.8584H33.2148C33.6099 12.8584 33.929 13.1786 33.929 13.5726C33.929 13.9671 33.6099 14.2869 33.2148 14.2869Z" fill="#FF0000"/>
<path d="M32.5791 11.4305H12.4231C12.028 11.4305 11.7089 11.1106 11.7089 10.7162C11.7089 10.3221 12.028 10.002 12.4231 10.002H32.5791C32.9742 10.002 33.2933 10.3221 33.2933 10.7162C33.2933 11.1106 32.9742 11.4305 32.5791 11.4305Z" fill="#FF0000"/>
<path d="M32.1435 41.412C31.1586 41.412 30.3579 40.6112 30.3579 39.6264C30.3579 39.2312 30.6774 38.9121 31.0722 38.9121C31.4673 38.9121 31.7864 39.2312 31.7864 39.6264C31.7864 39.8227 31.9472 39.9835 32.1435 39.9835C32.3399 39.9835 32.5007 39.8227 32.5007 39.6264C32.5007 39.2312 32.8201 38.9121 33.2149 38.9121C33.61 38.9121 33.9292 39.2312 33.9292 39.6264C33.9292 40.6105 33.1284 41.412 32.1435 41.412Z" fill="#FF0000"/>
<path d="M32.1433 42.8559C31.7485 42.8559 31.4291 42.5368 31.4291 42.1416V40.6981C31.4291 40.303 31.7485 39.9839 32.1433 39.9839C32.5385 39.9839 32.8576 40.303 32.8576 40.6981V42.1416C32.8576 42.5368 32.5385 42.8559 32.1433 42.8559Z" fill="#FF0000"/>
<path d="M31.0722 40.3411C30.6774 40.3411 30.3579 40.022 30.3579 39.6268V37.8412C30.3579 37.4461 30.6774 37.127 31.0722 37.127C31.4673 37.127 31.7864 37.4461 31.7864 37.8412V39.6268C31.7864 40.0213 31.4673 40.3411 31.0722 40.3411Z" fill="#FF0000"/>
<path d="M33.2149 38.5555H31.0722C30.6774 38.5555 30.3579 38.2364 30.3579 37.8412C30.3579 37.4461 30.6774 37.127 31.0722 37.127H33.2149C33.61 37.127 33.9292 37.4461 33.9292 37.8412C33.9292 38.2364 33.61 38.5555 33.2149 38.5555Z" fill="#FF0000"/>
<path d="M33.2149 40.3411C32.8201 40.3411 32.5006 40.022 32.5006 39.6268V37.8412C32.5006 37.4461 32.8201 37.127 33.2149 37.127C33.61 37.127 33.9291 37.4461 33.9291 37.8412V39.6268C33.9291 40.0213 33.61 40.3411 33.2149 40.3411Z" fill="#FF0000"/>
</g>
<defs>
<clipPath id="clip0">
<rect width="45" height="45" fill="white"/>
</clipPath>
</defs>
</svg>
